<svg xmlns="http://www.w3.org/2000/svg" viewBox="0 0 40 55"><defs><style>.a,.b{fill:#4d4d4d;}.b{font-size:7px;font-family:GothamRounded-Bold, Gotham Rounded;font-weight:700;}.c{letter-spacing:-0.01em;}.d{letter-spacing:0em;}.e{letter-spacing:-0.015em;}.f{letter-spacing:-0.06em;}</style></defs><title>2</title><path class="a" d="M34.66,9.67V8.27a11.472,11.472,0,0,0-7.33-2.79A11.472,11.472,0,0,0,20,8.27a11.472,11.472,0,0,0-7.33-2.79A11.472,11.472,0,0,0,5.34,8.27v1.4a1.4,1.4,0,0,0-1.4,1.4V29.22a1.4,1.4,0,0,0,1.4,1.4H9.4V25.47a13.1,13.1,0,0,0-2.67,1.1V8.77A10.046,10.046,0,0,1,12.67,6.7a10.147,10.147,0,0,1,6.37,2.43l.26.26V19.86h1.4V9.39l.26-.26A10.047,10.047,0,0,1,27.33,6.7a10.086,10.086,0,0,1,5.94,2.08V26.57a13.1,13.1,0,0,0-2.67-1.1v5.15h4.06a1.4,1.4,0,0,0,1.4-1.4V11.07A1.4,1.4,0,0,0,34.66,9.67Z"/><path class="a" d="M28.63,19.86H11.37A1.967,1.967,0,0,0,9.4,21.83v9.31a1.967,1.967,0,0,0,1.97,1.97h.57a3.125,3.125,0,0,1,.04-.43l.41-2.06.18-.87a2.081,2.081,0,0,1,2.05-1.69H25.38a2.082,2.082,0,0,1,2.05,1.68l.18.88.4,2.03a2.487,2.487,0,0,1,.05.46h.57a1.967,1.967,0,0,0,1.97-1.97V21.83A1.967,1.967,0,0,0,28.63,19.86ZM16.17,25.54a1.264,1.264,0,0,1-.81.28,1.321,1.321,0,0,1-1.17-.71,1.253,1.253,0,0,1-.15-.61,1.325,1.325,0,1,1,2.65,0A1.3,1.3,0,0,1,16.17,25.54Zm9.64-.43a1.321,1.321,0,0,1-1.17.71,1.264,1.264,0,0,1-.81-.28,1.3,1.3,0,0,1-.52-1.04,1.325,1.325,0,1,1,2.65,0A1.253,1.253,0,0,1,25.81,25.11Z"/><path class="a" d="M26.73,33.11a.818.818,0,0,1-.17.47.782.782,0,0,1-.59.27H14.03a.782.782,0,0,1-.59-.27.818.818,0,0,1-.17-.47.488.488,0,0,1,.01-.17l.47-2.32.12-.62a.771.771,0,0,1,.75-.61H25.38a.771.771,0,0,1,.75.61l.12.62.47,2.32A.488.488,0,0,1,26.73,33.11Z"/><text class="b" transform="translate(4.888 42.931)">Ca<tspan class="c" x="9.31" y="0">s</tspan><tspan class="d" x="12.754" y="0">set</tspan><tspan class="e" x="23.464" y="0">t</tspan><tspan x="26.265" y="0">e </tspan><tspan class="f" x="0.543" y="7">w</tspan><tspan x="6.066" y="7">/ book</tspan></text></svg>