<svg xmlns="http://www.w3.org/2000/svg" viewBox="0 0 40 55"><defs><style>.a,.c{fill:#4d4d4d;}.b{fill:#fff;}.c{font-size:7px;font-family:GothamRounded-Bold, Gotham Rounded;font-weight:700;}.d{letter-spacing:-0.06em;}</style></defs><title>5</title><path class="a" d="M19.99,18.14q-.345,0-.69.03v.01c.23-.02.46-.03.7-.03s.47.01.7.03v-.01C20.47,18.15,20.23,18.14,19.99,18.14Zm0,0q-.345,0-.69.03v.01c.23-.02.46-.03.7-.03s.47.01.7.03v-.01C20.47,18.15,20.23,18.14,19.99,18.14Zm0,0q-.345,0-.69.03v.01c.23-.02.46-.03.7-.03s.47.01.7.03v-.01C20.47,18.15,20.23,18.14,19.99,18.14Zm0,0q-.345,0-.69.03v.01c.23-.02.46-.03.7-.03s.47.01.7.03v-.01C20.47,18.15,20.23,18.14,19.99,18.14ZM12.54,31.38c.07.12.15.24.22.35h.01C12.69,31.61,12.62,31.5,12.54,31.38Zm14.67.35h.01c.01-.02.02-.03.03-.05A.176.176,0,0,1,27.21,31.73Zm1.27-2.93c-.02.07-.03.15-.05.23l-.06.24c.02-.08.05-.16.07-.24a.188.188,0,0,1,.02-.08c.02-.11.05-.22.07-.33C28.51,28.68,28.5,28.74,28.48,28.8ZM19.99,18.14q-.345,0-.69.03v.01c.23-.02.46-.03.7-.03s.47.01.7.03v-.01C20.47,18.15,20.23,18.14,19.99,18.14Zm7.22,13.59h.01c.01-.02.02-.03.03-.05A.176.176,0,0,1,27.21,31.73Zm1.27-2.93c-.02.07-.03.15-.05.23l-.06.24c.02-.08.05-.16.07-.24a.188.188,0,0,1,.02-.08c.02-.11.05-.22.07-.33C28.51,28.68,28.5,28.74,28.48,28.8ZM19.99,18.14q-.345,0-.69.03v.01c.23-.02.46-.03.7-.03s.47.01.7.03v-.01C20.47,18.15,20.23,18.14,19.99,18.14ZM28.48,28.8c-.02.07-.03.15-.05.23l-.06.24c.02-.08.05-.16.07-.24a.188.188,0,0,1,.02-.08c.02-.11.05-.22.07-.33C28.51,28.68,28.5,28.74,28.48,28.8ZM19.99,18.14q-.345,0-.69.03v.01c.23-.02.46-.03.7-.03s.47.01.7.03v-.01C20.47,18.15,20.23,18.14,19.99,18.14Zm8.44,10.89h.01a.188.188,0,0,1,.02-.08c.02-.11.05-.22.07-.33-.02.06-.03.12-.05.18S28.45,28.95,28.43,29.03Zm6.23-18.25V9.38a11.469,11.469,0,0,0-5.69-2.65c-.15-.03-.3-.05-.46-.07h-.04a5.481,5.481,0,0,0-.57-.05,4.608,4.608,0,0,0-.53-.02h-.04a1.275,1.275,0,0,0-.2.01.673.673,0,0,0-.2.01,1.9,1.9,0,0,0-.34.01c-.25.02-.5.04-.75.08h-.01A11.552,11.552,0,0,0,20,9.38,11.557,11.557,0,0,0,14.16,6.7h-.01a10,10,0,0,0-1.48-.11,5.429,5.429,0,0,0-.57.02,5.673,5.673,0,0,0-.58.05h-.04l-.23.03h-.01a2,2,0,0,0-.24.04A11.592,11.592,0,0,0,5.34,9.38v1.4a1.4,1.4,0,0,0-1.4,1.4V30.33a1.4,1.4,0,0,0,1.4,1.4h6.03a9.859,9.859,0,0,1-1.19-3.56,9.5,9.5,0,0,1-.09-1.31c0-.15,0-.3.01-.45a12.9,12.9,0,0,0-3.37,1.27V9.88a10.348,10.348,0,0,1,4.45-1.95l.22-.03.22-.03a4.382,4.382,0,0,1,.52-.04,4.608,4.608,0,0,1,.53-.02,9.736,9.736,0,0,1,1.35.1,10.364,10.364,0,0,1,5.02,2.33l.26.26v6.48c.23-.02.46-.03.7-.03s.47.01.7.03V10.5l.26-.26a10.24,10.24,0,0,1,5.01-2.33c.21-.03.44-.06.67-.07.11-.01.22-.02.34-.02a1.087,1.087,0,0,1,.18-.01h.17a4.7,4.7,0,0,1,.53.02,4.379,4.379,0,0,1,.51.04l.43.06a10.38,10.38,0,0,1,4.47,1.96V27.68a12.9,12.9,0,0,0-3.37-1.27c.01.15.01.3.01.45a9.577,9.577,0,0,1-.3,2.35c0,.01-.01.02-.01.03-.02.12-.06.23-.09.35l-.06.21c-.04.14-.09.28-.14.42a4.192,4.192,0,0,1-.2.49,6.756,6.756,0,0,1-.48,1.02h6.03a1.4,1.4,0,0,0,1.4-1.4V12.18A1.4,1.4,0,0,0,34.66,10.78ZM19.3,18.17v.01c.23-.02.46-.03.7-.03s.47.01.7.03v-.01c-.23-.02-.47-.03-.71-.03S19.53,18.15,19.3,18.17ZM28.48,28.8c-.02.07-.03.15-.05.23h.01a.188.188,0,0,1,.02-.08c.02-.11.05-.22.07-.33C28.51,28.68,28.5,28.74,28.48,28.8ZM19.99,18.14q-.345,0-.69.03v.01c.23-.02.46-.03.7-.03s.47.01.7.03v-.01C20.47,18.15,20.23,18.14,19.99,18.14Zm0,0q-.345,0-.69.03v.01c.23-.02.46-.03.7-.03s.47.01.7.03v-.01C20.47,18.15,20.23,18.14,19.99,18.14ZM28.48,28.8c-.02.07-.03.15-.05.23l-.06.24c.02-.08.05-.16.07-.24a.188.188,0,0,1,.02-.08c.02-.11.05-.22.07-.33C28.51,28.68,28.5,28.74,28.48,28.8ZM19.99,18.14q-.345,0-.69.03v.01c.23-.02.46-.03.7-.03s.47.01.7.03v-.01C20.47,18.15,20.23,18.14,19.99,18.14ZM28.48,28.8c-.02.07-.03.15-.05.23l-.06.24c.02-.08.05-.16.07-.24a.188.188,0,0,1,.02-.08c.02-.11.05-.22.07-.33C28.51,28.68,28.5,28.74,28.48,28.8Zm-1.27,2.93h.01c.01-.02.02-.03.03-.05A.176.176,0,0,1,27.21,31.73Zm1.27-2.93c-.02.07-.03.15-.05.23l-.06.24c.02-.08.05-.16.07-.24a.188.188,0,0,1,.02-.08c.02-.11.05-.22.07-.33C28.51,28.68,28.5,28.74,28.48,28.8ZM19.99,18.14q-.345,0-.69.03v.01c.23-.02.46-.03.7-.03s.47.01.7.03v-.01C20.47,18.15,20.23,18.14,19.99,18.14Zm0,0q-.345,0-.69.03v.01c.23-.02.46-.03.7-.03s.47.01.7.03v-.01C20.47,18.15,20.23,18.14,19.99,18.14Zm0,0q-.345,0-.69.03v.01c.23-.02.46-.03.7-.03s.47.01.7.03v-.01C20.47,18.15,20.23,18.14,19.99,18.14Zm0,0q-.345,0-.69.03v.01c.23-.02.46-.03.7-.03s.47.01.7.03v-.01C20.47,18.15,20.23,18.14,19.99,18.14Z"/><path class="b" d="M27.21,31.73a4.047,4.047,0,0,1-.23.34,2.616,2.616,0,0,0,.24-.34c.01-.02.02-.03.03-.05A.176.176,0,0,1,27.21,31.73Zm1.27-2.93c-.02.07-.03.15-.05.23l-.06.24c.02-.08.05-.16.07-.24a.188.188,0,0,1,.02-.08c.02-.11.05-.22.07-.33C28.51,28.68,28.5,28.74,28.48,28.8ZM20.7,18.17c-.23-.02-.47-.03-.71-.03s-.46.01-.69.03a.248.248,0,0,0-.09.01.249.249,0,0,1-.08.01l.17-.01c.23-.02.46-.03.7-.03s.47.01.7.03c.05,0,.1.01.15.01A.772.772,0,0,0,20.7,18.17Zm.23.03a8.461,8.461,0,0,1,1.24.22A7.314,7.314,0,0,0,20.93,18.2Z"/><path class="a" d="M20.55,35.55h.07v-.01C20.6,35.54,20.57,35.55,20.55,35.55Z"/><path class="a" d="M12.54,31.38c.07.12.15.24.22.35h.01C12.69,31.61,12.62,31.5,12.54,31.38Zm7.45,4.19c-.21,0-.42-.01-.62-.02q.315.03.63.03a2.549,2.549,0,0,0,.39-.02C20.26,35.57,20.12,35.57,19.99,35.57Z"/><path class="a" d="M28.69,26.2a6.82,6.82,0,0,0-.1-.79,8.772,8.772,0,0,0-4.44-6.21c-.25-.13-.5-.26-.76-.37a7.641,7.641,0,0,0-.8-.29l-.42-.12a8.461,8.461,0,0,0-1.24-.22c-.03,0-.05-.01-.08-.01-.05,0-.1-.01-.15-.01-.23-.02-.46-.03-.7-.03s-.9.04-.9.04a10.985,10.985,0,0,0-1.17.21.425.425,0,0,0-.11.02h-.01c-.21.05-.41.12-.62.19s-.39.14-.59.22a7.6,7.6,0,0,0-.76.37,8.688,8.688,0,0,0-4.53,7q-.03.33-.03.66a9.867,9.867,0,0,0,.08,1.22,8.636,8.636,0,0,0,1.18,3.3c.08.12.15.23.23.35a2.616,2.616,0,0,0,.24.34c.08.12.17.23.26.34a1.826,1.826,0,0,1,.13.16,1.92,1.92,0,0,1,.14.15,4.036,4.036,0,0,0,.29.3l.01.01c.09.1.19.19.28.28a3.824,3.824,0,0,1,.32.27,10.639,10.639,0,0,0,1.03.73.01.01,0,0,0,.01.01c.24.14.48.27.73.39a.01.01,0,0,0,.01.01c.25.11.51.22.77.32a2.828,2.828,0,0,0,.41.14,7.222,7.222,0,0,0,1.24.29c.03,0,.05.01.08.01h.03c.13.02.26.04.4.05a1.635,1.635,0,0,0,.22.02c.2.01.41.02.62.02.13,0,.27,0,.4-.01h.08a.22.22,0,0,1,.08-.01c.02,0,.05-.01.07-.01a5.61,5.61,0,0,0,.59-.06l.54-.09a4.607,4.607,0,0,0,.64-.16c.13-.03.25-.07.37-.11a8.407,8.407,0,0,0,3.53-2.24c.1-.1.2-.21.3-.32.13-.16.26-.32.39-.49a4.047,4.047,0,0,0,.23-.34.176.176,0,0,0,.04-.05c.02-.03.03-.05.05-.08.11-.16.2-.32.3-.49s.18-.34.26-.51v-.01c.05-.11.1-.21.15-.32.06-.13.11-.26.16-.4l.01-.01c.02-.08.05-.14.07-.23a.578.578,0,0,0,.06-.17c.02-.06.04-.13.06-.19l.06-.24c.02-.08.03-.16.05-.23s.03-.12.05-.18a2.069,2.069,0,0,1,.04-.22l.06-.36c.01-.06.01-.13.02-.2a.86.86,0,0,0,.01-.16c.02-.12.03-.24.04-.37.01-.15.01-.3.01-.45C28.71,26.64,28.7,26.42,28.69,26.2ZM16.63,31.73l-.7,1.4a7.106,7.106,0,0,1-1.59-1.4,5.832,5.832,0,0,1-.61-.8l2.82-1.41a4.919,4.919,0,0,0,.79.79Zm6.54-4.86A3.169,3.169,0,0,1,20,30.03a3.2,3.2,0,0,1-2.45-1.15,3.132,3.132,0,0,1-.73-2.01v-.01a3.156,3.156,0,0,1,2.48-3.09,3.1,3.1,0,0,1,1.4,0,3.181,3.181,0,0,1,2.47,3.09Zm2.43-3.74L23.45,24.2a5.364,5.364,0,0,0-.79-.79l.91-1.83.49-.98a7.562,7.562,0,0,1,2.2,2.2Z"/><path class="a" d="M20.7,24.53a2.5,2.5,0,0,0-1.4,0,2.451,2.451,0,0,0-1.74,2.33c0,.11.01.21.02.32a2.432,2.432,0,0,0,4.82.01c.01-.11.02-.22.02-.33A2.434,2.434,0,0,0,20.7,24.53Zm0,3.44a1.3,1.3,0,0,1-1.4.01v-.01a1.31,1.31,0,0,1,.7-2.42,1.364,1.364,0,0,1,.7.2,1.324,1.324,0,0,1,.61,1.11A1.3,1.3,0,0,1,20.7,27.97Z"/><text class="c" transform="translate(9.013 42.931)">CD <tspan class="d" x="12.74" y="0">w</tspan><tspan x="18.263" y="0">/ </tspan><tspan x="1.918" y="7">book</tspan></text></svg>