<svg xmlns="http://www.w3.org/2000/svg" viewBox="0 0 40 55"><defs><style>.a,.b{fill:#4d4d4d;}.b{font-size:7px;font-family:GothamRounded-Bold, Gotham Rounded;font-weight:700;}</style></defs><title>a</title><path class="a" d="M34.863,12.218v-1.4a11.477,11.477,0,0,0-7.331-2.793A11.478,11.478,0,0,0,20.2,10.822a11.478,11.478,0,0,0-7.332-2.793,11.47,11.47,0,0,0-7.331,2.793v1.4a1.4,1.4,0,0,0-1.4,1.4V31.769a1.4,1.4,0,0,0,1.4,1.4H34.863a1.4,1.4,0,0,0,1.4-1.4V13.615A1.4,1.4,0,0,0,34.863,12.218Zm-27.93,16.9v-17.8A10,10,0,0,1,12.868,9.25a10.142,10.142,0,0,1,6.369,2.429l.265.254V29.524a12.584,12.584,0,0,0-6.634-1.965A12.438,12.438,0,0,0,6.933,29.114Zm26.534,0a12.438,12.438,0,0,0-5.935-1.555A12.581,12.581,0,0,0,20.9,29.524V11.933l.265-.254A9.985,9.985,0,0,1,27.532,9.25a10.12,10.12,0,0,1,5.935,2.073Z"/><text class="b" transform="translate(10.767 45.474)">Book</text></svg>