<svg xmlns="http://www.w3.org/2000/svg" viewBox="0 0 40 55"><defs><style>.a,.b{fill:#4d4d4d;}.b{font-size:6.5px;font-family:GothamRounded-Bold, Gotham Rounded;font-weight:700;}</style></defs><title>b</title><path class="a" d="M20,35.007h0Z"/><path class="a" d="M20.162,34.98h0a.434.434,0,0,1-.048.014Z"/><path class="a" d="M35.942,12.292h-2.16V8.236a.495.495,0,0,0-.533-.491,25.808,25.808,0,0,1-3.764-.058,15.273,15.273,0,0,0-5.382.27A6.584,6.584,0,0,0,21.645,9.3,8.344,8.344,0,0,0,20,11.263,8.393,8.393,0,0,0,18.357,9.3,6.592,6.592,0,0,0,15.9,7.957a15.273,15.273,0,0,0-5.382-.27,25.808,25.808,0,0,1-3.764.058.493.493,0,0,0-.533.491v4.056H4.059a.493.493,0,0,0-.494.492V35.017a.494.494,0,0,0,.494.494H35.942a.494.494,0,0,0,.493-.494V12.784A.493.493,0,0,0,35.942,12.292ZM4.552,34.524V13.277H6.22V30.5a.494.494,0,0,0,.492.495c.566,0,1.128-.009,1.672-.017,4.242-.061,7.921-.116,10.99,3.551ZM19.508,33.2c-2.817-2.892-6.089-3.23-9.553-3.23-.523,0-1.053.008-1.587.017-.38,0-.769.01-1.161.013V8.762a30.84,30.84,0,0,0,3.373-.091c3.592-.23,6.7-.43,8.928,3.706Zm.985-20.824c2.229-4.136,5.335-3.936,8.929-3.706a30.348,30.348,0,0,0,3.373.091V30c-.392,0-.781-.008-1.163-.013-4.049-.06-7.9-.116-11.139,3.213ZM35.45,34.524H20.628c3.069-3.667,6.747-3.612,10.99-3.551.544.008,1.106.017,1.67.017a.494.494,0,0,0,.494-.495V13.277H35.45Z"/><path class="a" d="M20.05,35l-.032,0Z"/><text class="b" transform="translate(4.309 45.104)">Magazine</text></svg>