<svg xmlns="http://www.w3.org/2000/svg" viewBox="0 0 40 55"><defs><style>.a{font-size:7px;font-family:GothamRounded-Bold, Gotham Rounded;font-weight:700;}.a,.d{fill:#4d4d4d;}.b{letter-spacing:-0.015em;}.c{fill:#333;}</style></defs><title>c</title><text class="a" transform="translate(7.053 44.565)">Prin<tspan class="b" x="14.077" y="0">t</tspan><tspan x="16.876" y="0">ed </tspan><tspan x="2.628" y="7">music</tspan></text><rect class="c" x="9.342" y="15.188" width="23.231" height="0.781"/><polygon class="c" points="9.188 19.186 19.938 19.186 19.928 19.656 19.928 19.966 9.188 19.966 9.188 19.186"/><polygon class="c" points="9.028 23.186 19.878 23.186 19.868 23.966 9.028 23.966 9.028 23.186"/><polygon class="c" points="8.878 27.176 19.828 27.176 19.818 27.956 8.878 27.956 8.878 27.176"/><path class="c" d="M8.728,31.176h7.18a2.629,2.629,0,0,0-.15.78H8.728Z"/><path class="d" d="M11.19,5.92,4.91,12.19V37.04H35.09V5.92Zm-.27,1.62.06,4.38H6.54ZM34.13,36.09H5.87V12.87h6.07l-.06-6H34.13Z"/><path class="d" d="M32.57,17.28V29.67a1.594,1.594,0,0,1-.07.48,2.534,2.534,0,0,1-.6,1.03,3.327,3.327,0,0,1-1.07.78c-.06.03-.12.05-.18.08a3.765,3.765,0,0,1-1.39.29,2.49,2.49,0,0,1-1.36-.37,1.651,1.651,0,0,1-.63-.73c-.01-.02-.01-.03-.02-.05-.38-1.04.42-2.33,1.83-2.92a3.609,3.609,0,0,1,1.37-.28,2.73,2.73,0,0,1,.72.09V21.59l-8.07,1.6-1.11.22-.01.56-.04,3.21-.01.78-.04,3.1v.04a.22.22,0,0,1-.01.08,1.756,1.756,0,0,1-.06.39,2.138,2.138,0,0,1-.16.39,3.35,3.35,0,0,1-1.7,1.48,3.538,3.538,0,0,1-1.39.29,2.036,2.036,0,0,1-1.99-1.09,1.456,1.456,0,0,1-.11-.68,1.9,1.9,0,0,1,.21-.78,3.283,3.283,0,0,1,1.72-1.51,3.609,3.609,0,0,1,1.37-.28,2.807,2.807,0,0,1,.73.09l.02-1.52.01-.78.04-3.21.01-.78.05-3.22v-.3l2.4-.48Z"/></svg>