<svg xmlns="http://www.w3.org/2000/svg" viewBox="0 0 40 55"><defs><style>.a{font-size:7px;font-family:GothamRounded-Bold, Gotham Rounded;font-weight:700;}.a,.e{fill:#4d4d4d;}.b{letter-spacing:-0.015em;}.c{letter-spacing:0em;}.d{letter-spacing:-0.01em;}.f{fill:#fff;}</style></defs><title>d</title><text class="a" transform="translate(1.773 44.565)">Mic<tspan class="b" x="12.187" y="0">r</tspan><tspan class="c" x="15.008" y="0">o</tspan><tspan class="d" x="19.655" y="0">f</tspan><tspan x="22.26" y="0">orm</tspan></text><path class="e" d="M3.14,10.14V34.03H36.86V10.14ZM36.36,33.53H3.64V10.64H36.36Z"/><rect class="f" x="4.88" y="11.65" width="6.5" height="4.47"/><rect class="f" x="4.88" y="17.16" width="6.5" height="4.47"/><rect class="f" x="4.88" y="22.66" width="6.5" height="4.47"/><rect class="f" x="4.88" y="28.16" width="6.5" height="4.47"/><rect class="f" x="12.8" y="11.65" width="6.5" height="4.47"/><rect class="f" x="12.8" y="17.16" width="6.5" height="4.47"/><rect class="f" x="12.8" y="22.66" width="6.5" height="4.47"/><rect class="f" x="12.8" y="28.16" width="6.5" height="4.47"/><rect class="f" x="20.73" y="11.65" width="6.5" height="4.47"/><rect class="f" x="20.73" y="17.16" width="6.5" height="4.47"/><rect class="f" x="20.73" y="22.66" width="6.5" height="4.47"/><rect class="f" x="20.73" y="28.16" width="6.5" height="4.47"/><rect class="f" x="28.65" y="11.65" width="6.5" height="4.47"/><rect class="f" x="28.65" y="17.16" width="6.5" height="4.47"/><rect class="f" x="28.65" y="22.66" width="6.5" height="4.47"/><rect class="f" x="28.65" y="28.16" width="6.5" height="4.47"/><rect class="e" x="4.88" y="11.65" width="6.5" height="4.47"/><rect class="e" x="12.8" y="11.65" width="6.5" height="4.47"/><rect class="e" x="20.73" y="11.65" width="6.5" height="4.47"/><rect class="e" x="28.65" y="11.65" width="6.5" height="4.47"/><rect class="e" x="4.88" y="17.16" width="6.5" height="4.47"/><rect class="e" x="12.8" y="17.16" width="6.5" height="4.47"/><rect class="e" x="20.73" y="17.16" width="6.5" height="4.47"/><rect class="e" x="28.65" y="17.16" width="6.5" height="4.47"/><rect class="e" x="4.88" y="22.66" width="6.5" height="4.47"/><rect class="e" x="12.8" y="22.66" width="6.5" height="4.47"/><rect class="e" x="20.73" y="22.66" width="6.5" height="4.47"/><rect class="e" x="28.65" y="22.66" width="6.5" height="4.47"/><rect class="e" x="4.88" y="28.16" width="6.5" height="4.47"/><rect class="e" x="12.8" y="28.16" width="6.5" height="4.47"/><rect class="e" x="20.73" y="28.16" width="6.5" height="4.47"/><rect class="e" x="28.65" y="28.16" width="6.5" height="4.47"/></svg>