<svg xmlns="http://www.w3.org/2000/svg" viewBox="0 0 40 55"><defs><style>.a,.b{fill:#4d4d4d;}.b{font-size:7px;font-family:GothamRounded-Bold, Gotham Rounded;font-weight:700;}</style></defs><title>e</title><path class="a" d="M17.46,31.22v.62h5.08v-.62Zm0,0v.62h5.08v-.62Zm0,0v.62h5.08v-.62Z"/><path class="a" d="M34.86,29.36V13.22a1.586,1.586,0,0,0-1.58-1.59H6.72a1.586,1.586,0,0,0-1.58,1.59V29.36H1.57v.53a3.759,3.759,0,0,0,3.8,3.79H34.63a3.8,3.8,0,0,0,3.8-3.79v-.53ZM6.21,13.22a.514.514,0,0,1,.51-.52H33.28a.523.523,0,0,1,.52.52V29.36H32.12V14.37H7.88V29.36H6.21ZM31.5,27.66v1.57H8.5V27.66Zm3.13,4.96H5.37a2.679,2.679,0,0,1-2.68-2.2H37.31A2.744,2.744,0,0,1,34.63,32.62Z"/><text class="b" transform="translate(8.265 43.252)">Equip<tspan x="20.615" y="0">-</tspan><tspan x="2.632" y="7">ment</tspan></text></svg>