<svg xmlns="http://www.w3.org/2000/svg" viewBox="0 0 40 55"><defs><style>.a,.b{fill:#4d4d4d;}.a{fill-rule:evenodd;}.b{font-size:7px;font-family:GothamRounded-Bold, Gotham Rounded;font-weight:700;}</style></defs><title>f</title><path class="a" d="M5.933,14.792a.888.888,0,1,1-.9.888.9.9,0,0,1,.9-.888ZM35.1,19.207v-3.9H34.49l-1.827,3.11h-2.9l1.827-3.11H28.67l-1.827,3.11H23.938l1.827-3.11H22.85l-1.827,3.11h-2.9l1.827-3.11H17.03L15.2,18.417H12.3l1.827-3.11H11.21l-1.826,3.11h-2.9l1.664-2.833,26.2-6.9L33.318,4.918l-2.139.563L33.762,8.02l-2.806.739L28.373,6.22l-2.816.741L28.141,9.5l-2.806.74L22.751,7.7l-2.815.742,2.583,2.539-2.8.739L17.13,9.181l-2.816.741L16.9,12.461l-2.806.739-2.584-2.539L8.693,11.4l2.583,2.539-2.8.739-2.584-2.54H4.393v7.066h.5V35.753a1.065,1.065,0,0,0,1.071,1.053H33.537a1.066,1.066,0,0,0,1.072-1.053V19.207ZM19.748,21.03a6.665,6.665,0,1,1-6.78,6.664,6.724,6.724,0,0,1,6.78-6.664Zm-1.255,2.164L23.5,27.313a.475.475,0,0,1,0,.762l-5.009,4.119c-.317.259-.927.259-.927-.259V23.44c0-.508.619-.5.927-.246Z"/><text class="b" transform="translate(10.888 47.557)">Films</text></svg>