<svg xmlns="http://www.w3.org/2000/svg" viewBox="0 0 40 55"><defs><style>.a,.d,.e{fill:#4d4d4d;}.a{fill-rule:evenodd;}.b{fill:none;}.c{fill:#fff;}.e{font-size:7px;font-family:GothamRounded-Bold, Gotham Rounded;font-weight:700;}.f{letter-spacing:-0.03em;}</style></defs><title>h</title><path class="a" d="M6.35,4.86V30.13h9.98c-.02-.13-.03-.26-.04-.4v-.08c-.01-.18-.02-.37-.02-.56,0-.14,0-.28.01-.42H12.46V18.22H26.51v.18c.15-.01.3-.01.45-.01a2.175,2.175,0,0,1,.26.01h.08a1.087,1.087,0,0,1,.18.01,10.642,10.642,0,0,1,3.83.9,12.487,12.487,0,0,1,1.3.7V4.86Zm4.6,23.81H7.94V26.9h3.01Zm0-3.45H7.94V23.45h3.01Zm0-3.45H7.94V20h3.01Zm0-3.45H7.94V16.55h3.01Zm0-3.33H7.94V13.22h3.01Zm0-3.45H7.94V9.77h3.01Zm0-3.45H7.94V6.32h3.01Zm15.56,8.67H12.46V6.32H26.51Zm4.52,1.56H28.01V16.55h3.02Zm0-3.33H28.01V13.22h3.02Zm0-3.45H28.01V9.77h3.02Zm0-3.45H28.01V6.32h3.02Z"/><path class="b" d="M28.3,28.67a1.4,1.4,0,0,0-.29-.52m.29.52a1.158,1.158,0,0,1,.07.42,1.4,1.4,0,0,1-.46,1.04,1.355,1.355,0,0,1-.95.38,1.337,1.337,0,0,1-.95-.38,1.368,1.368,0,0,1-.46-1.04,1.158,1.158,0,0,1,.07-.42,1.373,1.373,0,0,1,.89-.91,1.33,1.33,0,0,1,.45-.08,1.4,1.4,0,0,1,1.05.47m.29.52a1.158,1.158,0,0,1,.07.42,1.4,1.4,0,0,1-.46,1.04,1.355,1.355,0,0,1-.95.38,1.337,1.337,0,0,1-.95-.38,1.368,1.368,0,0,1-.46-1.04,1.158,1.158,0,0,1,.07-.42,1.373,1.373,0,0,1,.89-.91,1.33,1.33,0,0,1,.45-.08,1.4,1.4,0,0,1,1.05.47m.29.52a1.158,1.158,0,0,1,.07.42,1.4,1.4,0,0,1-.46,1.04,1.355,1.355,0,0,1-.95.38,1.337,1.337,0,0,1-.95-.38,1.368,1.368,0,0,1-.46-1.04,1.158,1.158,0,0,1,.07-.42,1.373,1.373,0,0,1,.89-.91,1.33,1.33,0,0,1,.45-.08,1.4,1.4,0,0,1,1.05.47m.29.52a1.158,1.158,0,0,1,.07.42,1.4,1.4,0,0,1-.46,1.04,1.355,1.355,0,0,1-.95.38,1.337,1.337,0,0,1-.95-.38,1.368,1.368,0,0,1-.46-1.04,1.158,1.158,0,0,1,.07-.42,1.373,1.373,0,0,1,.89-.91,1.33,1.33,0,0,1,.45-.08,1.4,1.4,0,0,1,1.05.47m.29.52a1.158,1.158,0,0,1,.07.42,1.4,1.4,0,0,1-.46,1.04,1.355,1.355,0,0,1-.95.38,1.337,1.337,0,0,1-.95-.38,1.368,1.368,0,0,1-.46-1.04,1.158,1.158,0,0,1,.07-.42,1.373,1.373,0,0,1,.89-.91,1.33,1.33,0,0,1,.45-.08,1.4,1.4,0,0,1,1.05.47m1.54.52a2.642,2.642,0,0,0-2.59-2.2,2.282,2.282,0,0,0-.45.04,2.635,2.635,0,0,0-2.15,2.16,2.966,2.966,0,0,0-.03.42,2.584,2.584,0,0,0,.22,1.04,2.621,2.621,0,0,0,4.82,0,2.757,2.757,0,0,0,.21-1.04A2.966,2.966,0,0,0,29.55,28.67Zm0,0a2.642,2.642,0,0,0-2.59-2.2,2.282,2.282,0,0,0-.45.04,2.635,2.635,0,0,0-2.15,2.16,2.966,2.966,0,0,0-.03.42,2.584,2.584,0,0,0,.22,1.04,2.621,2.621,0,0,0,4.82,0,2.757,2.757,0,0,0,.21-1.04A2.966,2.966,0,0,0,29.55,28.67Zm0,0a2.642,2.642,0,0,0-2.59-2.2,2.282,2.282,0,0,0-.45.04,2.635,2.635,0,0,0-2.15,2.16,2.966,2.966,0,0,0-.03.42,2.584,2.584,0,0,0,.22,1.04,2.621,2.621,0,0,0,4.82,0,2.757,2.757,0,0,0,.21-1.04A2.966,2.966,0,0,0,29.55,28.67ZM29.39,20c-.19-.05-.38-.1-.56-.13.17.04.35.08.52.13.29.07.56.16.84.25A7.412,7.412,0,0,0,29.39,20Zm-1.95-.31a1.21,1.21,0,0,0-.19-.01h-.29c-.15,0-.3,0-.45.01a8.793,8.793,0,0,0-1.86.28,9.48,9.48,0,0,1,1.86-.27c.15-.01.3-.01.45-.01.32,0,.64.02.95.04C27.76,19.71,27.6,19.7,27.44,19.69Zm2.11,8.98a2.642,2.642,0,0,0-2.59-2.2,2.282,2.282,0,0,0-.45.04,2.635,2.635,0,0,0-2.15,2.16,2.966,2.966,0,0,0-.03.42,2.584,2.584,0,0,0,.22,1.04,2.621,2.621,0,0,0,4.82,0,2.757,2.757,0,0,0,.21-1.04A2.966,2.966,0,0,0,29.55,28.67Zm0,0a2.642,2.642,0,0,0-2.59-2.2,2.282,2.282,0,0,0-.45.04,2.635,2.635,0,0,0-2.15,2.16,2.966,2.966,0,0,0-.03.42,2.584,2.584,0,0,0,.22,1.04,2.621,2.621,0,0,0,4.82,0,2.757,2.757,0,0,0,.21-1.04A2.966,2.966,0,0,0,29.55,28.67Zm-1.25,0a1.393,1.393,0,0,0-1.34-.99,1.33,1.33,0,0,0-.45.08,1.373,1.373,0,0,0-.89.91,1.158,1.158,0,0,0-.07.42,1.368,1.368,0,0,0,.46,1.04,1.337,1.337,0,0,0,.95.38,1.355,1.355,0,0,0,.95-.38,1.4,1.4,0,0,0,.46-1.04A1.158,1.158,0,0,0,28.3,28.67Zm8.01,1.31v.07c.02-.16.03-.32.04-.48C36.34,29.71,36.33,29.84,36.31,29.98ZM28.3,28.67a1.393,1.393,0,0,0-1.34-.99,1.33,1.33,0,0,0-.45.08,1.373,1.373,0,0,0-.89.91,1.158,1.158,0,0,0-.07.42,1.368,1.368,0,0,0,.46,1.04,1.337,1.337,0,0,0,.95.38,1.355,1.355,0,0,0,.95-.38,1.4,1.4,0,0,0,.46-1.04A1.158,1.158,0,0,0,28.3,28.67Zm1.25,0a2.642,2.642,0,0,0-2.59-2.2,2.282,2.282,0,0,0-.45.04,2.635,2.635,0,0,0-2.15,2.16,2.966,2.966,0,0,0-.03.42,2.584,2.584,0,0,0,.22,1.04,2.621,2.621,0,0,0,4.82,0,2.757,2.757,0,0,0,.21-1.04A2.966,2.966,0,0,0,29.55,28.67Zm0,0a2.642,2.642,0,0,0-2.59-2.2,2.282,2.282,0,0,0-.45.04,2.635,2.635,0,0,0-2.15,2.16,2.966,2.966,0,0,0-.03.42,2.584,2.584,0,0,0,.22,1.04,2.621,2.621,0,0,0,4.82,0,2.757,2.757,0,0,0,.21-1.04A2.966,2.966,0,0,0,29.55,28.67Zm0,0a2.642,2.642,0,0,0-2.59-2.2,2.282,2.282,0,0,0-.45.04,2.635,2.635,0,0,0-2.15,2.16,2.966,2.966,0,0,0-.03.42,2.584,2.584,0,0,0,.22,1.04,2.621,2.621,0,0,0,4.82,0,2.757,2.757,0,0,0,.21-1.04A2.966,2.966,0,0,0,29.55,28.67Zm0,0a2.642,2.642,0,0,0-2.59-2.2,2.282,2.282,0,0,0-.45.04,2.635,2.635,0,0,0-2.15,2.16,2.966,2.966,0,0,0-.03.42,2.584,2.584,0,0,0,.22,1.04,2.621,2.621,0,0,0,4.82,0,2.757,2.757,0,0,0,.21-1.04A2.966,2.966,0,0,0,29.55,28.67Z"/><path class="c" d="M29.55,28.67a2.642,2.642,0,0,0-2.59-2.2,2.282,2.282,0,0,0-.45.04,2.635,2.635,0,0,0-2.15,2.16,2.966,2.966,0,0,0-.03.42,2.584,2.584,0,0,0,.22,1.04,2.621,2.621,0,0,0,4.82,0,2.757,2.757,0,0,0,.21-1.04A2.966,2.966,0,0,0,29.55,28.67Zm-2.59,1.84a1.337,1.337,0,0,1-.95-.38,1.368,1.368,0,0,1-.46-1.04,1.158,1.158,0,0,1,.07-.42,1.373,1.373,0,0,1,.89-.91,1.33,1.33,0,0,1,.45-.08,1.393,1.393,0,0,1,1.34.99,1.158,1.158,0,0,1,.07.42,1.4,1.4,0,0,1-.46,1.04A1.355,1.355,0,0,1,26.96,30.51Z"/><path class="c" d="M29.39,20c-.19-.05-.38-.1-.56-.13.17.04.35.08.52.13.29.07.56.16.84.25A7.412,7.412,0,0,0,29.39,20Zm-1.95-.31a1.21,1.21,0,0,0-.19-.01h-.29c-.15,0-.3,0-.45.01a8.793,8.793,0,0,0-1.86.28,9.48,9.48,0,0,1,1.86-.27c.15-.01.3-.01.45-.01.32,0,.64.02.95.04C27.76,19.71,27.6,19.7,27.44,19.69Zm.12,18.78h.08v-.01C27.61,38.46,27.59,38.47,27.56,38.47ZM29.39,20h-.04c.29.07.56.16.84.25A7.412,7.412,0,0,0,29.39,20Zm6.92,9.98v.07c.02-.16.03-.32.04-.48C36.34,29.71,36.33,29.84,36.31,29.98Z"/><path class="d" d="M29.55,28.67a2.642,2.642,0,0,0-2.59-2.2,2.282,2.282,0,0,0-.45.04,2.635,2.635,0,0,0-2.15,2.16,2.966,2.966,0,0,0-.03.42,2.584,2.584,0,0,0,.22,1.04,2.621,2.621,0,0,0,4.82,0,2.757,2.757,0,0,0,.21-1.04A2.966,2.966,0,0,0,29.55,28.67Zm-2.59,1.84a1.337,1.337,0,0,1-.95-.38,1.368,1.368,0,0,1-.46-1.04,1.158,1.158,0,0,1,.07-.42,1.373,1.373,0,0,1,.89-.91,1.33,1.33,0,0,1,.45-.08,1.393,1.393,0,0,1,1.34.99,1.158,1.158,0,0,1,.07.42,1.4,1.4,0,0,1-.46,1.04A1.355,1.355,0,0,1,26.96,30.51Z"/><path class="d" d="M29.55,28.67a2.642,2.642,0,0,0-2.59-2.2,2.282,2.282,0,0,0-.45.04,2.635,2.635,0,0,0-2.15,2.16,2.966,2.966,0,0,0-.03.42,2.584,2.584,0,0,0,.22,1.04,2.621,2.621,0,0,0,4.82,0,2.757,2.757,0,0,0,.21-1.04A2.966,2.966,0,0,0,29.55,28.67Zm-2.59,1.84a1.337,1.337,0,0,1-.95-.38,1.368,1.368,0,0,1-.46-1.04,1.158,1.158,0,0,1,.07-.42,1.373,1.373,0,0,1,.89-.91,1.33,1.33,0,0,1,.45-.08,1.393,1.393,0,0,1,1.34.99,1.158,1.158,0,0,1,.07.42,1.4,1.4,0,0,1-.46,1.04A1.355,1.355,0,0,1,26.96,30.51Zm2.59-1.84a2.642,2.642,0,0,0-2.59-2.2,2.282,2.282,0,0,0-.45.04,2.635,2.635,0,0,0-2.15,2.16,2.966,2.966,0,0,0-.03.42,2.584,2.584,0,0,0,.22,1.04,2.621,2.621,0,0,0,4.82,0,2.757,2.757,0,0,0,.21-1.04A2.966,2.966,0,0,0,29.55,28.67Zm-2.59,1.84a1.337,1.337,0,0,1-.95-.38,1.368,1.368,0,0,1-.46-1.04,1.158,1.158,0,0,1,.07-.42,1.373,1.373,0,0,1,.89-.91,1.33,1.33,0,0,1,.45-.08,1.393,1.393,0,0,1,1.34.99,1.158,1.158,0,0,1,.07.42,1.4,1.4,0,0,1-.46,1.04A1.355,1.355,0,0,1,26.96,30.51Z"/><path class="d" d="M27.56,38.47h.08v-.01C27.61,38.46,27.59,38.47,27.56,38.47Z"/><path class="d" d="M26.96,38.49a9.606,9.606,0,0,1-3.05-.5,9.339,9.339,0,0,0,3.05.51,1.548,1.548,0,0,0,.22-.01Z"/><path class="d" d="M35.23,24.6c-.08-.13-.15-.26-.23-.39-.16-.26-.32-.51-.5-.75-.1-.12-.19-.24-.28-.35-.2-.23-.4-.46-.61-.67l-.01-.01c-.1-.1-.2-.2-.31-.3s-.22-.19-.34-.3c-.11-.08-.22-.17-.34-.26v-.01c-.01,0-.02,0-.03-.02-.12-.09-.24-.17-.37-.25l-.36-.24c-.01,0-.02,0-.02-.01-.26-.15-.52-.29-.79-.42h-.01v-.01a8.584,8.584,0,0,0-.83-.35.01.01,0,0,1-.01-.01c-.28-.09-.55-.18-.84-.25-.17-.05-.35-.09-.52-.13-.31-.06-.61-.1-.92-.14-.31-.02-.63-.04-.95-.04-.15,0-.3,0-.45.01a9.48,9.48,0,0,0-1.86.27c-.2.05-.4.11-.59.17-.26.08-.51.18-.76.28a.01.01,0,0,1-.01.01,9.137,9.137,0,0,0-1.21.61c-.26.16-.51.33-.76.51a10.834,10.834,0,0,0-1.02.89,9.362,9.362,0,0,0-2.74,6.23c-.01.14-.01.28-.01.42,0,.18.01.35.01.52.02.18.03.35.05.52a9.433,9.433,0,0,0,.87,3.04c.07.14.13.27.2.4a10.19,10.19,0,0,0,1.01,1.51q.165.165.3.33c.09.11.2.22.31.33l.01.01a2.912,2.912,0,0,0,.31.3c.11.09.23.19.34.3.2.16.41.32.62.47s.45.29.68.43c.17.1.35.19.53.28a10.105,10.105,0,0,0,1.12.46,9.606,9.606,0,0,0,3.05.5h.22a1.477,1.477,0,0,0,.21-.01h.08a.277.277,0,0,1,.09-.01c.03,0,.05-.01.08-.01.15-.01.31-.02.46-.04.04-.01.09-.01.13-.02a.777.777,0,0,0,.16-.02,9.728,9.728,0,0,0,1.24-.27c.14-.04.27-.08.4-.13.21-.07.4-.15.59-.23.14-.06.28-.12.41-.19a8.381,8.381,0,0,0,1.55-.93c.12-.1.24-.19.36-.28s.24-.21.35-.3c.11-.11.22-.21.32-.31s.21-.22.31-.33a9.023,9.023,0,0,0,1.53-2.28v-.02a7.429,7.429,0,0,0,.33-.77,2.672,2.672,0,0,0,.09-.26,2.224,2.224,0,0,0,.12-.39c.05-.16.09-.34.13-.51.04-.14.06-.28.09-.43a1.846,1.846,0,0,0,.04-.23c.02-.12.04-.24.05-.36a.41.41,0,0,1,.01-.11v-.07c.02-.14.03-.27.04-.41.01-.16.01-.32.01-.48A9.4,9.4,0,0,0,35.23,24.6ZM22.57,35.86a8.179,8.179,0,0,1-2.38-2.38l3.05-1.52a4.561,4.561,0,0,0,.85.85Zm7.65-5.73a3.419,3.419,0,0,1-6.52,0,3.285,3.285,0,0,1-.17-1.04,2.966,2.966,0,0,1,.03-.42,3.429,3.429,0,0,1,5.28-2.44c.07.05.15.1.22.16a3.2,3.2,0,0,1,.53.51,3.374,3.374,0,0,1,.76,1.77,2.966,2.966,0,0,1,.03.42A3.588,3.588,0,0,1,30.22,30.13Zm2.39-4.87-1.93.96a5.317,5.317,0,0,0-.85-.86l.07-.14.88-1.77.56-1.12a7.885,7.885,0,0,1,1.27,1.02,7.6,7.6,0,0,1,1.11,1.35Z"/><text class="e" transform="translate(4.264 46.619)"><tspan class="f">D</tspan><tspan x="5.264" y="0">VD film</tspan></text></svg>