<svg xmlns="http://www.w3.org/2000/svg" viewBox="0 0 40 55"><defs><style>.a{font-size:7px;font-family:GothamRounded-Bold, Gotham Rounded;font-weight:700;}.a,.d{fill:#4d4d4d;}.b{letter-spacing:-0.01em;}.c{letter-spacing:-0.015em;}</style></defs><title>i</title><text class="a" transform="translate(5.603 42.743)">Book on <tspan x="0.094" y="7">ca</tspan><tspan class="b" x="8.235" y="7">s</tspan><tspan x="11.68" y="7">set</tspan><tspan class="c" x="22.39" y="7">t</tspan><tspan x="25.19" y="7">e</tspan></text><path class="d" d="M34.683,21.867H19.675a1.711,1.711,0,0,0-1.71,1.711v8.1a1.711,1.711,0,0,0,1.71,1.71h.5a2.01,2.01,0,0,1,.04-.374l.507-2.546A1.814,1.814,0,0,1,22.5,29h9.352a1.806,1.806,0,0,1,1.78,1.457l.507,2.534a1.912,1.912,0,0,1,.046.4h.495a1.711,1.711,0,0,0,1.71-1.71v-8.1A1.711,1.711,0,0,0,34.683,21.867ZM23.148,27.05A1.152,1.152,0,1,1,24.3,25.9,1.155,1.155,0,0,1,23.148,27.05Zm8.062,0A1.152,1.152,0,1,1,32.362,25.9,1.155,1.155,0,0,1,31.21,27.05Z"/><path class="d" d="M33.03,33.385a.662.662,0,0,1-.662.645H21.99a.662.662,0,0,1-.662-.645.424.424,0,0,1,.012-.15l.512-2.557a.662.662,0,0,1,.651-.53h9.352a.662.662,0,0,1,.651.53l.513,2.557A.448.448,0,0,1,33.03,33.385Z"/><path class="d" d="M34.327,10.713v-1.4A11.472,11.472,0,0,0,27,6.523a11.472,11.472,0,0,0-7.33,2.79,11.472,11.472,0,0,0-7.33-2.79,11.472,11.472,0,0,0-7.33,2.79v1.4a1.4,1.4,0,0,0-1.4,1.39v18.16a1.4,1.4,0,0,0,1.4,1.39h12.07a1.526,1.526,0,0,1-.03-.3v-4.33a12.114,12.114,0,0,0-4.71-.97A12.554,12.554,0,0,0,6.4,27.6V9.813a9.979,9.979,0,0,1,5.94-2.07,10.147,10.147,0,0,1,6.37,2.43l.26.25v10.5a.249.249,0,0,1,.08-.01h1.32V10.423l.26-.25A9.987,9.987,0,0,1,27,7.743a10.162,10.162,0,0,1,5.94,2.07v11.1h1.75a1.91,1.91,0,0,1,1.04.3V12.1A1.4,1.4,0,0,0,34.327,10.713Z"/></svg>