<svg xmlns="http://www.w3.org/2000/svg" viewBox="0 0 40 55"><defs><style>.a,.c,.d{fill:#4d4d4d;}.b{fill:#fff;}.c{opacity:0.64;}.d{font-size:7px;font-family:GothamRounded-Bold, Gotham Rounded;font-weight:700;}</style></defs><title>j</title><path class="a" d="M31.75,4.21V17.4a9.1,9.1,0,0,0-2.36-1.37v-4.6L14.02,14.46l-.17,12.82v.06a3.072,3.072,0,0,1-.11.79,5.257,5.257,0,0,1-3.12,3.14,5.991,5.991,0,0,1-2.32.48,3.408,3.408,0,0,1-3.33-1.83c-.73-1.75.63-3.97,3.03-4.97a6.112,6.112,0,0,1,2.31-.47,4.934,4.934,0,0,1,1.23.15l.21-16.42Z"/><path class="a" d="M24.65,24.62a1.325,1.325,0,1,1,1.32,1.31A1.319,1.319,0,0,1,24.65,24.62Z"/><path class="b" d="M31.75,20.57v.4l.21-.1A2.73,2.73,0,0,0,31.75,20.57Z"/><path class="a" d="M23.54,27.98l-.18.36-.55,1.09-.59,1.17a7.185,7.185,0,0,1-1.28-1.04,2.352,2.352,0,0,1-.3-.33c-.07-.07-.13-.14-.19-.21-.16-.21-.32-.43-.46-.65l1.63-.82.99-.49a1,1,0,0,0,.14.16v.01a1.2,1.2,0,0,0,.11.12,1.507,1.507,0,0,0,.21.23.265.265,0,0,0,.06.05A4.467,4.467,0,0,0,23.54,27.98Z"/><path class="b" d="M25.97,23.3a1.315,1.315,0,1,0,1.33,1.32A1.319,1.319,0,0,0,25.97,23.3Zm0,0a1.315,1.315,0,1,0,1.33,1.32A1.319,1.319,0,0,0,25.97,23.3Zm0,0a1.315,1.315,0,1,0,1.33,1.32A1.319,1.319,0,0,0,25.97,23.3Zm0,0a1.315,1.315,0,1,0,1.33,1.32A1.319,1.319,0,0,0,25.97,23.3Zm0,0a1.315,1.315,0,1,0,1.33,1.32A1.319,1.319,0,0,0,25.97,23.3Zm0,0a1.315,1.315,0,1,0,1.33,1.32A1.319,1.319,0,0,0,25.97,23.3Zm0,0a1.315,1.315,0,1,0,1.33,1.32A1.319,1.319,0,0,0,25.97,23.3Zm5.78-2.73v.4l.21-.1A2.73,2.73,0,0,0,31.75,20.57ZM25.97,23.3a1.315,1.315,0,1,0,1.33,1.32A1.319,1.319,0,0,0,25.97,23.3Zm0,0a1.315,1.315,0,1,0,1.33,1.32A1.319,1.319,0,0,0,25.97,23.3Zm0,0a1.315,1.315,0,1,0,1.33,1.32A1.319,1.319,0,0,0,25.97,23.3Zm0,0a1.315,1.315,0,1,0,1.33,1.32A1.319,1.319,0,0,0,25.97,23.3Zm0,0a1.315,1.315,0,1,0,1.33,1.32A1.319,1.319,0,0,0,25.97,23.3Zm0,0a1.315,1.315,0,1,0,1.33,1.32A1.319,1.319,0,0,0,25.97,23.3Zm0,0a1.315,1.315,0,1,0,1.33,1.32A1.319,1.319,0,0,0,25.97,23.3Zm5.78-2.73v.4l.21-.1A2.73,2.73,0,0,0,31.75,20.57ZM25.97,23.3a1.315,1.315,0,1,0,1.33,1.32A1.319,1.319,0,0,0,25.97,23.3Zm0,0a1.315,1.315,0,1,0,1.33,1.32A1.319,1.319,0,0,0,25.97,23.3Zm0,0a1.315,1.315,0,1,0,1.33,1.32A1.319,1.319,0,0,0,25.97,23.3Zm0,0a1.315,1.315,0,1,0,1.33,1.32A1.319,1.319,0,0,0,25.97,23.3Zm0,0a1.315,1.315,0,1,0,1.33,1.32A1.319,1.319,0,0,0,25.97,23.3Zm0,0a1.315,1.315,0,1,0,1.33,1.32A1.319,1.319,0,0,0,25.97,23.3Zm0,0a1.315,1.315,0,1,0,1.33,1.32A1.319,1.319,0,0,0,25.97,23.3Zm5.78-2.73v.4l.21-.1A2.73,2.73,0,0,0,31.75,20.57ZM25.97,23.3a1.315,1.315,0,1,0,1.33,1.32A1.319,1.319,0,0,0,25.97,23.3Zm0,0a1.315,1.315,0,1,0,1.33,1.32A1.319,1.319,0,0,0,25.97,23.3Zm0,0a1.315,1.315,0,1,0,1.33,1.32A1.319,1.319,0,0,0,25.97,23.3Zm0,0a1.315,1.315,0,1,0,1.33,1.32A1.319,1.319,0,0,0,25.97,23.3Zm0,0a1.315,1.315,0,1,0,1.33,1.32A1.319,1.319,0,0,0,25.97,23.3Zm5.78-2.73v.4l.21-.1A2.73,2.73,0,0,0,31.75,20.57ZM25.97,23.3a1.315,1.315,0,1,0,1.33,1.32A1.319,1.319,0,0,0,25.97,23.3Zm0,0a1.315,1.315,0,1,0,1.33,1.32A1.319,1.319,0,0,0,25.97,23.3Zm0,0a1.315,1.315,0,1,0,1.33,1.32A1.319,1.319,0,0,0,25.97,23.3Zm0,0a1.315,1.315,0,1,0,1.33,1.32A1.319,1.319,0,0,0,25.97,23.3Zm0,0a1.315,1.315,0,1,0,1.33,1.32A1.319,1.319,0,0,0,25.97,23.3Zm5.78-2.73v.4l.21-.1A2.73,2.73,0,0,0,31.75,20.57ZM25.97,23.3a1.315,1.315,0,1,0,1.33,1.32A1.319,1.319,0,0,0,25.97,23.3Zm5.78-2.73v.4l.21-.1A2.73,2.73,0,0,0,31.75,20.57ZM25.97,23.3a1.315,1.315,0,1,0,1.33,1.32A1.319,1.319,0,0,0,25.97,23.3Zm5.78-2.73v.4l.21-.1A2.73,2.73,0,0,0,31.75,20.57ZM25.97,23.3a1.315,1.315,0,1,0,1.33,1.32A1.319,1.319,0,0,0,25.97,23.3Zm5.78-2.73v.4l.21-.1A2.73,2.73,0,0,0,31.75,20.57ZM25.97,23.3a1.315,1.315,0,1,0,1.33,1.32A1.319,1.319,0,0,0,25.97,23.3Zm0,0a1.315,1.315,0,1,0,1.33,1.32A1.319,1.319,0,0,0,25.97,23.3Zm5.78-2.73v.4l.21-.1A2.73,2.73,0,0,0,31.75,20.57ZM25.97,23.3a1.315,1.315,0,1,0,1.33,1.32A1.319,1.319,0,0,0,25.97,23.3Zm5.78-2.73v.4l.21-.1A2.73,2.73,0,0,0,31.75,20.57ZM25.97,23.3a1.315,1.315,0,1,0,1.33,1.32A1.319,1.319,0,0,0,25.97,23.3Zm0,0a1.315,1.315,0,1,0,1.33,1.32A1.319,1.319,0,0,0,25.97,23.3Zm0,0a1.315,1.315,0,1,0,1.33,1.32A1.319,1.319,0,0,0,25.97,23.3Zm5.78-2.73v.4l.21-.1A2.73,2.73,0,0,0,31.75,20.57ZM25.97,23.3a1.315,1.315,0,1,0,1.33,1.32A1.319,1.319,0,0,0,25.97,23.3Zm0,0a1.315,1.315,0,1,0,1.33,1.32A1.319,1.319,0,0,0,25.97,23.3Zm0,0a1.315,1.315,0,1,0,1.33,1.32A1.319,1.319,0,0,0,25.97,23.3Zm5.78-2.73v.4l.21-.1A2.73,2.73,0,0,0,31.75,20.57ZM25.97,23.3a1.315,1.315,0,1,0,1.33,1.32A1.319,1.319,0,0,0,25.97,23.3Zm0,0a1.315,1.315,0,1,0,1.33,1.32A1.319,1.319,0,0,0,25.97,23.3Zm0,0a1.315,1.315,0,1,0,1.33,1.32A1.319,1.319,0,0,0,25.97,23.3Zm0,0a1.315,1.315,0,1,0,1.33,1.32A1.319,1.319,0,0,0,25.97,23.3Zm0,0a1.315,1.315,0,1,0,1.33,1.32A1.319,1.319,0,0,0,25.97,23.3Zm0,0a1.315,1.315,0,1,0,1.33,1.32A1.319,1.319,0,0,0,25.97,23.3Zm0,0a1.315,1.315,0,1,0,1.33,1.32A1.319,1.319,0,0,0,25.97,23.3Zm5.78-2.73v.4l.21-.1A2.73,2.73,0,0,0,31.75,20.57ZM25.97,23.3a1.315,1.315,0,1,0,1.33,1.32A1.319,1.319,0,0,0,25.97,23.3Zm0,0a1.315,1.315,0,1,0,1.33,1.32A1.319,1.319,0,0,0,25.97,23.3Zm0,0a1.315,1.315,0,1,0,1.33,1.32A1.319,1.319,0,0,0,25.97,23.3Zm0,0a1.315,1.315,0,1,0,1.33,1.32A1.319,1.319,0,0,0,25.97,23.3Zm0,0a1.315,1.315,0,1,0,1.33,1.32A1.319,1.319,0,0,0,25.97,23.3Zm0,0a1.315,1.315,0,1,0,1.33,1.32A1.319,1.319,0,0,0,25.97,23.3Zm0,0a1.315,1.315,0,1,0,1.33,1.32A1.319,1.319,0,0,0,25.97,23.3Zm5.78-2.73v.4l.21-.1A2.73,2.73,0,0,0,31.75,20.57Zm0,0v.4l.21-.1A2.73,2.73,0,0,0,31.75,20.57ZM25.97,23.3a1.315,1.315,0,1,0,1.33,1.32A1.319,1.319,0,0,0,25.97,23.3Zm0,0a1.315,1.315,0,1,0,1.33,1.32A1.319,1.319,0,0,0,25.97,23.3Zm0,0a1.315,1.315,0,1,0,1.33,1.32A1.319,1.319,0,0,0,25.97,23.3Zm0,0a1.315,1.315,0,1,0,1.33,1.32A1.319,1.319,0,0,0,25.97,23.3Zm0,0a1.315,1.315,0,1,0,1.33,1.32A1.319,1.319,0,0,0,25.97,23.3Zm0,0a1.315,1.315,0,1,0,1.33,1.32A1.319,1.319,0,0,0,25.97,23.3Zm0,0a1.315,1.315,0,1,0,1.33,1.32A1.319,1.319,0,0,0,25.97,23.3Z"/><path class="c" d="M27.3,24.62a1.325,1.325,0,1,1-1.33-1.32A1.325,1.325,0,0,1,27.3,24.62Z"/><path class="c" d="M29.22,22.02l-.11-.11c-.01-.02-.03-.04-.04-.06a.374.374,0,0,1,.07.06A.763.763,0,0,1,29.22,22.02Z"/><path class="c" d="M31.96,20.87l-.21.1v-.4A2.73,2.73,0,0,1,31.96,20.87Z"/><path class="a" d="M32.92,18.51a8.747,8.747,0,0,0-1.17-1.11,9.1,9.1,0,0,0-2.36-1.37,7.988,7.988,0,0,0-1.17-.38,9.249,9.249,0,1,0-2.25,18.22c.13,0,.26-.01.38-.02a2.825,2.825,0,0,0,.29-.02,9.254,9.254,0,0,0,8.23-6.66c.09-.32.16-.65.23-.98a.014.014,0,0,1,0-.02c.02-.17.05-.34.07-.51.01-.1.02-.21.03-.32a2.105,2.105,0,0,0,.02-.25c0-.16.01-.32.01-.47A9.2,9.2,0,0,0,32.92,18.51ZM25.97,32.57a7.925,7.925,0,0,1-6.42-3.27,7.476,7.476,0,0,1-.57-.89,7.96,7.96,0,0,1,6.99-11.75,7.608,7.608,0,0,1,2.25.33,6.558,6.558,0,0,1,1.17.44,5.837,5.837,0,0,1,.65.35,5.393,5.393,0,0,1,.5.33.607.607,0,0,1,.1.07,1.3,1.3,0,0,1,.23.18c.08.06.16.12.24.19a.265.265,0,0,1,.06.05c.06.05.12.1.18.16a4.888,4.888,0,0,1,.4.39,7.888,7.888,0,0,1,1.17,1.58,7.96,7.96,0,0,1-6.95,11.84Z"/><path class="b" d="M27.3,24.62a1.325,1.325,0,1,1-1.33-1.32A1.325,1.325,0,0,1,27.3,24.62Z"/><path class="b" d="M29.22,22.02l-.11-.11c-.01-.02-.03-.04-.04-.06a.374.374,0,0,1,.07.06A.763.763,0,0,1,29.22,22.02Z"/><path class="b" d="M31.96,20.87l-.21.1v-.4A2.73,2.73,0,0,1,31.96,20.87Z"/><path class="a" d="M31.75,20.57v.4l.21-.1A2.73,2.73,0,0,0,31.75,20.57ZM25.97,23.3a1.315,1.315,0,1,0,1.33,1.32A1.319,1.319,0,0,0,25.97,23.3Zm0,0a1.315,1.315,0,1,0,1.33,1.32A1.319,1.319,0,0,0,25.97,23.3Zm0,0a1.315,1.315,0,1,0,1.33,1.32A1.319,1.319,0,0,0,25.97,23.3Zm0,0a1.315,1.315,0,1,0,1.33,1.32A1.319,1.319,0,0,0,25.97,23.3Zm0,0a1.315,1.315,0,1,0,1.33,1.32A1.319,1.319,0,0,0,25.97,23.3Zm0,0a1.315,1.315,0,1,0,1.33,1.32A1.319,1.319,0,0,0,25.97,23.3Zm0,0a1.315,1.315,0,1,0,1.33,1.32A1.319,1.319,0,0,0,25.97,23.3Zm0,0a1.315,1.315,0,1,0,1.33,1.32A1.319,1.319,0,0,0,25.97,23.3Zm0,0a1.315,1.315,0,1,0,1.33,1.32A1.319,1.319,0,0,0,25.97,23.3Zm0,0a1.315,1.315,0,1,0,1.33,1.32A1.319,1.319,0,0,0,25.97,23.3Zm0,0a1.315,1.315,0,1,0,1.33,1.32A1.319,1.319,0,0,0,25.97,23.3Zm0,0a1.315,1.315,0,1,0,1.33,1.32A1.319,1.319,0,0,0,25.97,23.3Zm0,0a1.315,1.315,0,1,0,1.33,1.32A1.319,1.319,0,0,0,25.97,23.3Zm0,0a1.315,1.315,0,1,0,1.33,1.32A1.319,1.319,0,0,0,25.97,23.3Zm0,0a1.315,1.315,0,1,0,1.33,1.32A1.319,1.319,0,0,0,25.97,23.3Zm0,0a1.315,1.315,0,1,0,1.33,1.32A1.319,1.319,0,0,0,25.97,23.3Zm0,0a1.315,1.315,0,1,0,1.33,1.32A1.319,1.319,0,0,0,25.97,23.3Zm0,0a1.315,1.315,0,1,0,1.33,1.32A1.319,1.319,0,0,0,25.97,23.3Zm0,0a1.315,1.315,0,1,0,1.33,1.32A1.319,1.319,0,0,0,25.97,23.3Zm0,0a1.315,1.315,0,1,0,1.33,1.32A1.319,1.319,0,0,0,25.97,23.3Zm0,0a1.315,1.315,0,1,0,1.33,1.32A1.319,1.319,0,0,0,25.97,23.3Zm0,0a1.315,1.315,0,1,0,1.33,1.32A1.319,1.319,0,0,0,25.97,23.3Zm0,0a1.315,1.315,0,1,0,1.33,1.32A1.319,1.319,0,0,0,25.97,23.3Zm0,0a1.315,1.315,0,1,0,1.33,1.32A1.319,1.319,0,0,0,25.97,23.3Zm0,0a1.315,1.315,0,1,0,1.33,1.32A1.319,1.319,0,0,0,25.97,23.3Z"/><path class="a" d="M31.75,20.57v.4l-2.36,1.18-.05.02c0-.01-.01-.01-.02-.02s-.01-.01-.01-.02c-.03-.04-.06-.07-.09-.11a.763.763,0,0,0-.08-.11.374.374,0,0,0-.07-.06.317.317,0,0,0-.05-.06,1.141,1.141,0,0,0-.11-.11,3.354,3.354,0,0,0-.49-.43l.97-1.95.33-.67c.2.13.39.26.58.41a3.788,3.788,0,0,1,.38.32c.06.05.13.11.19.17.04.04.09.08.13.12.08.09.16.17.23.26a1.738,1.738,0,0,1,.13.15l.01.01a4.827,4.827,0,0,1,.34.45.01.01,0,0,1,.01.01C31.73,20.54,31.74,20.56,31.75,20.57Z"/><path class="a" d="M29.2,23.89c-.01-.05-.03-.1-.04-.15a.9.9,0,0,0-.08-.23,1.359,1.359,0,0,0-.11-.28,2.1,2.1,0,0,0-.13-.26,4.047,4.047,0,0,0-.23-.34.2.2,0,0,0-.06-.07,1.632,1.632,0,0,0-.17-.2.6.6,0,0,0-.08-.08c0-.01-.01-.01-.02-.02a1.788,1.788,0,0,0-.14-.13,2.782,2.782,0,0,0-.27-.21,2.9,2.9,0,0,0-.29-.19,3.516,3.516,0,0,0-.63-.27c-.02-.01-.04-.01-.06-.02a3.245,3.245,0,0,0-.89-.13h-.03a2.728,2.728,0,0,0-.41.03,1.572,1.572,0,0,0-.23.04.127.127,0,0,0-.06.01,2.291,2.291,0,0,0-.28.07,3.032,3.032,0,0,0-.64.28,1.644,1.644,0,0,0-.22.14,2.55,2.55,0,0,0-.48.4.382.382,0,0,0-.09.09.435.435,0,0,0-.06.07.27.27,0,0,0-.07.08,2.348,2.348,0,0,0-.19.25,3.354,3.354,0,0,0-.21.36l-.01.01a3.454,3.454,0,0,0-.14.34c0,.01-.01.03-.01.04a1.293,1.293,0,0,0-.07.21,1.209,1.209,0,0,0-.05.18.06.06,0,0,0-.01.04c-.02.11-.04.22-.05.33s-.02.23-.02.34v.08a.41.41,0,0,0,.01.11v.07a.249.249,0,0,0,.01.08,3.062,3.062,0,0,0,.05.32,2.46,2.46,0,0,0,.07.29c.01.02.01.03.02.05v.01c0,.01,0,.01.01.02a3.383,3.383,0,0,0,.18.44,2.774,2.774,0,0,0,.22.37.6.6,0,0,0,.09.13c.03.04.07.08.1.12a.53.53,0,0,0,.1.12.524.524,0,0,0,.1.11,1.274,1.274,0,0,0,.25.22,1.545,1.545,0,0,0,.24.19h.01a2.392,2.392,0,0,0,.21.13,2.6,2.6,0,0,0,.66.29.845.845,0,0,0,.17.05c.05.01.1.02.14.03a3.062,3.062,0,0,0,.32.05,1.275,1.275,0,0,0,.19.01.757.757,0,0,0,.15.01,3.305,3.305,0,0,0,3.31-3.3A3.549,3.549,0,0,0,29.2,23.89Zm-3.23,3.1a2.377,2.377,0,0,1-2.38-2.37,2.34,2.34,0,0,1,.03-.38,2.378,2.378,0,0,1,2.35-2,2.265,2.265,0,0,1,.69.11,2.37,2.37,0,0,1-.69,4.64Z"/><text class="d" transform="translate(9.969 42.339)">Music <tspan x="-0.844" y="7">on CD</tspan></text></svg>