<svg xmlns="http://www.w3.org/2000/svg" viewBox="0 0 40 55"><defs><style>.a{font-size:7px;font-family:GothamRounded-Bold, Gotham Rounded;font-weight:700;}.a,.d{fill:#4d4d4d;}.b{letter-spacing:-0.01em;}.c{letter-spacing:-0.015em;}</style></defs><title>k</title><text class="a" transform="translate(4.415 43.318)">Music on <tspan x="0.893" y="7">ca</tspan><tspan class="b" x="9.034" y="7">s</tspan><tspan x="12.478" y="7">set</tspan><tspan class="c" x="23.188" y="7">t</tspan><tspan x="25.989" y="7">e</tspan></text><path class="d" d="M33.7,21.445H18.691a1.711,1.711,0,0,0-1.711,1.711v8.1a1.711,1.711,0,0,0,1.711,1.71h.5a2.01,2.01,0,0,1,.04-.374l.507-2.546a1.815,1.815,0,0,1,1.785-1.468h9.353a1.8,1.8,0,0,1,1.779,1.457l.507,2.534a1.846,1.846,0,0,1,.046.4H33.7a1.711,1.711,0,0,0,1.711-1.71v-8.1A1.711,1.711,0,0,0,33.7,21.445ZM22.163,26.628a1.152,1.152,0,1,1,1.152-1.152A1.155,1.155,0,0,1,22.163,26.628Zm8.063,0a1.152,1.152,0,1,1,1.152-1.152A1.155,1.155,0,0,1,30.226,26.628Z"/><path class="d" d="M32.046,32.963a.662.662,0,0,1-.663.645H21.006a.66.66,0,0,1-.662-.645.448.448,0,0,1,.011-.15l.513-2.557a.661.661,0,0,1,.65-.53h9.353a.661.661,0,0,1,.65.53l.513,2.557A.449.449,0,0,1,32.046,32.963Z"/><path class="d" d="M32.716,4.011V20.8h-2.45v-9.26L14.236,14.7l-.1,8.02-.07,5.35v.06a3.318,3.318,0,0,1-.12.82,5.5,5.5,0,0,1-3.26,3.28c-2.49,1.04-5.14.4-5.89-1.41-.76-1.83.66-4.14,3.17-5.18a5.766,5.766,0,0,1,3.68-.33l.22-17.13Z"/></svg>