<svg xmlns="http://www.w3.org/2000/svg" viewBox="0 0 40 55"><defs><style>.a,.b{fill:#4d4d4d;}.b{font-size:7px;font-family:GothamRounded-Bold, Gotham Rounded;font-weight:700;}.c{letter-spacing:-0.015em;}.d{letter-spacing:-0.01em;}</style></defs><title>l</title><path class="a" d="M33.64,22.14a14.1,14.1,0,1,1-14.1-14.1,12.5,12.5,0,0,1,1.38.07l-.08,6.38a6.821,6.821,0,0,0-.84.27,4.941,4.941,0,0,0-3.07,3.53,4.656,4.656,0,1,0,7.27,3.85,4.213,4.213,0,0,0-.04-.62,4.68,4.68,0,0,0,1.85-2.5A3.874,3.874,0,0,0,26.16,18l.08-5.83,2.7-.54a13,13,0,0,1,1.61,1.71c-.06.02-.11.04-.16.06-2.44,1.02-3.69,3.43-2.85,5.49a3.955,3.955,0,0,0,3.79,2.31,5.615,5.615,0,0,0,2.12-.43.672.672,0,0,0,.12-.06A13.558,13.558,0,0,1,33.64,22.14Z"/><path class="a" d="M34.56,4.56V16.61a1.594,1.594,0,0,1-.07.48,2.869,2.869,0,0,1-1.28,1.56,3.755,3.755,0,0,1-.53.27,3.513,3.513,0,0,1-1.35.28,2.007,2.007,0,0,1-1.94-1.07c-.41-1.02.37-2.3,1.77-2.88a3.224,3.224,0,0,1,.58-.18,2.869,2.869,0,0,1,.75-.1,2.632,2.632,0,0,1,.7.09V8.76l-6.43,1.27-2.5.49-.1,7.45V18a1.832,1.832,0,0,1-.07.46,2.434,2.434,0,0,1-.68,1.08,3.383,3.383,0,0,1-1.13.75,3.476,3.476,0,0,1-1.35.28,2.225,2.225,0,0,1-1.63-.62,1.2,1.2,0,0,1-.17-.21A1.357,1.357,0,0,1,19,19.5a1.91,1.91,0,0,1,.52-2.02,3.456,3.456,0,0,1,1.24-.87,3.68,3.68,0,0,1,1.34-.27,2.708,2.708,0,0,1,.71.09l.11-7.98.02-1.56Z"/><text class="b" transform="translate(9.969 43.248)">Music <tspan class="c" x="-1.585" y="7">r</tspan><tspan x="1.235" y="7">e</tspan><tspan class="c" x="5.526" y="7">c</tspan><tspan x="9.418" y="7">o</tspan><tspan class="d" x="14.066" y="7">r</tspan><tspan x="16.921" y="7">d</tspan></text><path class="a" d="M20.2,22.14a.749.749,0,0,1-.1.36.664.664,0,0,1-1.22-.36V22.1a.661.661,0,0,1,1.32.04Z"/></svg>