<svg xmlns="http://www.w3.org/2000/svg" viewBox="0 0 40 55"><defs><style>.a{font-size:7px;font-family:GothamRounded-Bold, Gotham Rounded;font-weight:700;}.a,.d{fill:#4d4d4d;}.b{letter-spacing:-0.005em;}.c{letter-spacing:-0.015em;}.e{fill:#fff;}</style></defs><title>m</title><text class="a" transform="translate(4.065 48.644)">Soft<tspan class="b" x="14.707" y="0">w</tspan><tspan x="20.614" y="0">a</tspan><tspan class="c" x="24.758" y="0">r</tspan><tspan x="27.579" y="0">e</tspan></text><path class="d" d="M21.343,6.655H5.064V39.09H20.428a10.961,10.961,0,0,1,8.318-18.108,10.681,10.681,0,0,1,2.331.257v-4.85A9.736,9.736,0,0,0,21.343,6.655ZM22.6,20.9l-2.42,2.509-2.609,2.7-1.2,1.249-1.2-1.249L10.148,20.9,7.416,18.072h5.062V10.189h7.794v7.883h5.062Z"/><polygon class="d" points="18.6 19.745 21.398 19.745 16.37 24.952 11.352 19.745 14.151 19.745 14.151 11.862 18.6 11.862 18.6 19.745"/><polygon class="d" points="21.398 19.745 16.37 24.952 11.352 19.745 14.151 19.745 14.151 11.862 18.6 11.862 18.6 19.745 21.398 19.745"/><path class="e" d="M29.07,40.91c.1,0,.21,0,.32-.01v-.01C29.28,40.9,29.17,40.91,29.07,40.91Z"/><path class="e" d="M29.07,40.908c.1,0,.212,0,.323-.011v-.012A3.124,3.124,0,0,1,29.07,40.908Z"/><path class="d" d="M29.07,40.908c.1,0,.212,0,.323-.011v-.012A3.124,3.124,0,0,1,29.07,40.908Z"/><path class="d" d="M36.34,27.18a9.112,9.112,0,0,0-2.62-2.7,8.925,8.925,0,0,0-2.64-1.2,9.416,9.416,0,0,0-2.33-.3,8.962,8.962,0,0,0-8.98,8.96,8.893,8.893,0,0,0,3.54,7.15,8.89,8.89,0,0,0,5.44,1.83c.11,0,.22,0,.32-.01s.21-.01.32-.02a8.888,8.888,0,0,0,7.45-5.09v-.01a4.4,4.4,0,0,0,.31-.75.65.65,0,0,0,.09-.23c.05-.12.09-.25.13-.38.04-.16.07-.32.12-.48.03-.13.05-.27.08-.41a4.665,4.665,0,0,0,.1-.75,7.935,7.935,0,0,0,.04-.85A8.888,8.888,0,0,0,36.34,27.18ZM24.55,38.4a7.849,7.849,0,0,1-2.26-2.26l2.91-1.45a4.437,4.437,0,0,0,.81.81Zm6.53-4.16a3.261,3.261,0,1,1-.48-4.98,3.51,3.51,0,0,1,.48.4,3.284,3.284,0,0,1,0,4.58Zm1.22-5.03a5.171,5.171,0,0,0-.81-.81l1.44-2.9a7.849,7.849,0,0,1,2.26,2.26Z"/><path class="d" d="M31.08,31.06a2.468,2.468,0,0,0-2.33-1.61,2.5,2.5,0,1,0,2.33,3.39,2.437,2.437,0,0,0,.16-.9A2.332,2.332,0,0,0,31.08,31.06ZM28.75,33.3a1.345,1.345,0,1,1,1.35-1.36A1.353,1.353,0,0,1,28.75,33.3Z"/></svg>