<svg xmlns="http://www.w3.org/2000/svg" viewBox="0 0 40 55"><defs><style>.a{font-size:7px;font-family:GothamRounded-Bold, Gotham Rounded;font-weight:700;}.a,.d{fill:#4d4d4d;}.b{letter-spacing:-0.01em;}.c{letter-spacing:-0.018em;}.e{fill:#fff;}</style></defs><title>media_player</title><text class="a" transform="translate(9.325 42.483)">Media <tspan x="-0.378" y="7">pl</tspan><tspan class="b" x="6.461" y="7">a</tspan><tspan class="c" x="10.535" y="7">y</tspan><tspan x="14.511" y="7">er</tspan></text><path class="d" d="M32.48,7.44H7.52A2.522,2.522,0,0,0,5,9.96V28.28A2.522,2.522,0,0,0,7.52,30.8H32.48A2.522,2.522,0,0,0,35,28.28V9.96A2.522,2.522,0,0,0,32.48,7.44ZM20,9.55a6.415,6.415,0,1,1-6.41,6.42A6.412,6.412,0,0,1,20,9.55Zm11.64,18.4H14.15a2.29,2.29,0,0,1-4.11,0H8.36a1,1,0,1,1,0-2h1.68a2.282,2.282,0,0,1,4.11,0H31.64a1,1,0,0,1,0,2Z"/><path class="d" d="M22.99,15.69a.319.319,0,0,1,0,.55l-4.34,2.51a.316.316,0,0,1-.48-.27V13.46a.32.32,0,0,1,.48-.28Z"/><path class="e" d="M22.99,16.24l-4.34,2.51a.316.316,0,0,1-.48-.27V13.46a.32.32,0,0,1,.48-.28l4.34,2.51A.319.319,0,0,1,22.99,16.24Z"/><path class="d" d="M22.99,16.24l-4.34,2.51a.316.316,0,0,1-.48-.27V13.46a.32.32,0,0,1,.48-.28l4.34,2.51A.319.319,0,0,1,22.99,16.24Z"/></svg>