<svg xmlns="http://www.w3.org/2000/svg" viewBox="0 0 40 55"><defs><style>.a{font-size:6px;font-family:GothamRounded-Bold, Gotham Rounded;font-weight:700;}.a,.d{fill:#4d4d4d;}.b{letter-spacing:-0.015em;}.c{fill:none;}</style></defs><title>media_electronicgames</title><text class="a" transform="translate(4.598 42.512)">Elect<tspan class="b" x="15.425" y="0">r</tspan><tspan x="17.843" y="0">onic</tspan><tspan x="5.406" y="7">games</tspan></text><path class="c" d="M15.35,20.19H13.89V18.66a.384.384,0,0,0-.39-.39h-.78a.39.39,0,0,0-.39.39v1.53H10.87a.472.472,0,0,0-.47.48v.61a.478.478,0,0,0,.47.48h1.46v1.53a.39.39,0,0,0,.39.39h.78a.384.384,0,0,0,.39-.39V21.76h1.46a.478.478,0,0,0,.47-.48v-.61A.472.472,0,0,0,15.35,20.19Z"/><path class="d" d="M24.64,12.7l-.02.01a7.675,7.675,0,0,0-1.95,1.59,1.829,1.829,0,0,1-1.4.62H18.73a1.829,1.829,0,0,1-1.4-.62,7.252,7.252,0,0,0-1.97-1.6C4.9,9.01,1.03,38.15,9.68,32.49a27.662,27.662,0,0,0,5.74-5.5h9.15a27.913,27.913,0,0,0,5.74,5.5C38.97,38.15,35.1,9.02,24.64,12.7Zm-8.82,8.58a.478.478,0,0,1-.47.48H13.89v1.53a.384.384,0,0,1-.39.39h-.78a.39.39,0,0,1-.39-.39V21.76H10.87a.478.478,0,0,1-.47-.48v-.61a.472.472,0,0,1,.47-.48h1.46V18.66a.39.39,0,0,1,.39-.39h.78a.384.384,0,0,1,.39.39v1.53h1.46a.472.472,0,0,1,.47.48Zm8.53,2.26a.95.95,0,1,1,.96-.95A.95.95,0,0,1,24.35,23.54Zm0-3.17a1.01,1.01,0,1,1,1.02-1.01A1.007,1.007,0,0,1,24.35,20.37Zm3.74,3.23a1.01,1.01,0,1,1,1.01-1.01A1.007,1.007,0,0,1,28.09,23.6Zm0-3.23a1.01,1.01,0,1,1,1.01-1.01A1.007,1.007,0,0,1,28.09,20.37Z"/><path class="d" d="M15.528,12.758l-.251-.111a.666.666,0,0,1,.085.052C15.417,12.717,15.473,12.736,15.528,12.758Z"/></svg>