<svg xmlns="http://www.w3.org/2000/svg" viewBox="0 0 40 55"><defs><style>.a{font-size:7px;font-family:GothamRounded-Bold, Gotham Rounded;font-weight:700;}.a,.d,.e{fill:#4d4d4d;}.b{letter-spacing:-0.005em;}.c{letter-spacing:-0.015em;}.d{fill-rule:evenodd;}</style></defs><title>media_streamingvideo</title><text class="a" transform="translate(1.691 43.372)"><tspan class="b">S</tspan><tspan x="4.445" y="0">t</tspan><tspan class="c" x="7.35" y="0">r</tspan><tspan x="10.17" y="0">eaming </tspan><tspan x="8.281" y="7">video</tspan></text><path class="d" d="M12.644,27.608v-14H27.193v14ZM16.028,20.2h7.781V14.418H16.028V20.2Zm0,.81V26.8h7.781V21.013Zm-2.5-1.792H15.2v-.982H13.525v.982Zm11.116,0h1.672v-.982H24.641v.982Zm-11.116-4.8V15.4H15.2v-.982Zm0,1.911v.981H15.2v-.981Zm11.116-1.911V15.4h1.672v-.982Zm0,1.911v.981h1.672v-.981ZM13.525,20.084v.982H15.2v-.982Zm0,1.911v.982H15.2V22Zm0,1.91v.982H15.2v-.982Zm0,1.911V26.8H15.2v-.982Zm11.116-5.732v.982h1.672v-.982Zm0,1.911v.982h1.672V22Zm0,1.91v.982h1.672v-.982Zm0,1.911V26.8h1.672v-.982Z"/><path class="e" d="M32.418,20.919a5.411,5.411,0,0,1-2.7,4.686L29.359,25a4.7,4.7,0,0,0,.293-7.968l.357-.615A5.411,5.411,0,0,1,32.418,20.919Z"/><path class="e" d="M31.238,28.252l-.384-.664a7.7,7.7,0,0,0,.3-13.157l.384-.657a8.464,8.464,0,0,1-.3,14.478Z"/><path class="e" d="M38.061,20.919A11.063,11.063,0,0,1,32.537,30.5l-.35-.615a10.352,10.352,0,0,0,.294-17.753l.356-.607A11.041,11.041,0,0,1,38.061,20.919Z"/><path class="e" d="M32.837,11.526l-.356.607a10.352,10.352,0,0,1-.294,17.753l.35.615a11.065,11.065,0,0,0,.3-18.975Z"/><path class="e" d="M32.418,20.919a5.411,5.411,0,0,1-2.7,4.686L29.359,25a4.7,4.7,0,0,0,.293-7.968l.357-.615A5.411,5.411,0,0,1,32.418,20.919Z"/><path class="e" d="M35.47,20.919a8.467,8.467,0,0,1-4.232,7.333l-.384-.664a7.7,7.7,0,0,0,.3-13.157l.384-.657A8.464,8.464,0,0,1,35.47,20.919Z"/><path class="e" d="M31.538,13.774l-.384.657a7.7,7.7,0,0,1-.3,13.157l.384.664a8.464,8.464,0,0,0,.3-14.478Z"/><path class="e" d="M32.418,20.919a5.411,5.411,0,0,1-2.7,4.686L29.359,25a4.7,4.7,0,0,0,.293-7.968l.357-.615A5.411,5.411,0,0,1,32.418,20.919Z"/><path class="e" d="M30.009,16.414l-.357.615A4.7,4.7,0,0,1,29.359,25l.356.608a5.415,5.415,0,0,0,.294-9.191Z"/><path class="e" d="M7.723,21.107a5.413,5.413,0,0,1,2.7-4.686l.356.608A4.7,4.7,0,0,0,10.489,25l-.357.615A5.411,5.411,0,0,1,7.723,21.107Z"/><path class="e" d="M8.9,13.774l.384.664a7.7,7.7,0,0,0-.3,13.157l-.384.657a8.464,8.464,0,0,1,.3-14.478Z"/><path class="e" d="M2.08,21.107A11.06,11.06,0,0,1,7.6,11.526l.35.614A10.352,10.352,0,0,0,7.66,29.893L7.3,30.5A11.044,11.044,0,0,1,2.08,21.107Z"/><path class="e" d="M7.3,30.5l.356-.608A10.352,10.352,0,0,1,7.954,12.14l-.35-.614A11.065,11.065,0,0,0,7.3,30.5Z"/><path class="e" d="M7.723,21.107a5.413,5.413,0,0,1,2.7-4.686l.356.608A4.7,4.7,0,0,0,10.489,25l-.357.615A5.411,5.411,0,0,1,7.723,21.107Z"/><path class="e" d="M4.671,21.107A8.469,8.469,0,0,1,8.9,13.774l.384.664a7.7,7.7,0,0,0-.3,13.157l-.384.657A8.464,8.464,0,0,1,4.671,21.107Z"/><path class="e" d="M8.6,28.252l.384-.657a7.7,7.7,0,0,1,.3-13.157L8.9,13.774a8.464,8.464,0,0,0-.3,14.478Z"/><path class="e" d="M7.723,21.107a5.413,5.413,0,0,1,2.7-4.686l.356.608A4.7,4.7,0,0,0,10.489,25l-.357.615A5.411,5.411,0,0,1,7.723,21.107Z"/><path class="e" d="M10.132,25.612,10.489,25a4.7,4.7,0,0,1,.293-7.968l-.356-.608a5.415,5.415,0,0,0-.294,9.191Z"/></svg>