<svg xmlns="http://www.w3.org/2000/svg" viewBox="0 0 40 55"><defs><style>.a{font-size:7px;font-family:GothamRounded-Bold, Gotham Rounded;font-weight:700;}.a,.c{fill:#4d4d4d;}.b{fill:none;}.d{fill:#fff;}</style></defs><title>media_online journal</title><text class="a" transform="translate(9.284 44.309)">Online <tspan x="-0.739" y="7">journal</tspan></text><path class="b" d="M12.12,20.97a7.872,7.872,0,0,1,7.39-7.85V11.8c-2.23-4.13-5.34-3.93-8.93-3.7a31.323,31.323,0,0,1-3.37.09V29.43c.39,0,.78-.01,1.16-.01.53-.01,1.06-.02,1.58-.02,3.47,0,6.74.34,9.56,3.23v-3.8A7.875,7.875,0,0,1,12.12,20.97Z"/><path class="b" d="M8.38,30.4c-.54.01-1.1.02-1.67.02a.493.493,0,0,1-.49-.5V12.7H4.55V33.95H19.37C16.31,30.29,12.63,30.34,8.38,30.4Z"/><path class="b" d="M33.78,29.92a.493.493,0,0,1-.49.5c-.57,0-1.13-.01-1.67-.02-4.24-.06-7.92-.11-10.99,3.55H35.45V12.7H33.78Z"/><path class="b" d="M31.63,29.42c.38,0,.77.01,1.17.01V8.19a31.439,31.439,0,0,1-3.38-.09c-3.59-.23-6.7-.43-8.93,3.7v1.32a7.87,7.87,0,0,1,0,15.71v3.8C23.74,29.3,27.58,29.36,31.63,29.42Z"/><path class="c" d="M20.49,19.63a.969.969,0,0,0-.51-.13,1.1,1.1,0,0,0-.47.1,1.568,1.568,0,0,0-.88,1.48.989.989,0,0,0,.88,1.08.468.468,0,0,0,.17.02,1.161,1.161,0,0,0,.81-.34,1.71,1.71,0,0,0,.54-1.28A.973.973,0,0,0,20.49,19.63Zm0,0a.969.969,0,0,0-.51-.13,1.1,1.1,0,0,0-.47.1,1.568,1.568,0,0,0-.88,1.48.989.989,0,0,0,.88,1.08.468.468,0,0,0,.17.02,1.161,1.161,0,0,0,.81-.34,1.71,1.71,0,0,0,.54-1.28A.973.973,0,0,0,20.49,19.63Zm15.45-7.91H33.78V7.66a.519.519,0,0,0-.16-.36.511.511,0,0,0-.37-.13,26.341,26.341,0,0,1-3.77-.05,15.025,15.025,0,0,0-5.38.27,6.429,6.429,0,0,0-2.46,1.34A8.244,8.244,0,0,0,20,10.69a8.244,8.244,0,0,0-1.64-1.96A6.429,6.429,0,0,0,15.9,7.39a15.012,15.012,0,0,0-5.38-.27,26.322,26.322,0,0,1-3.77.05.511.511,0,0,0-.37.13.519.519,0,0,0-.16.36v4.06H4.06a.491.491,0,0,0-.49.49V34.44a.493.493,0,0,0,.49.5H35.94a.493.493,0,0,0,.49-.5V12.21A.491.491,0,0,0,35.94,11.72ZM4.55,33.95V12.7H6.22V29.92a.493.493,0,0,0,.49.5c.57,0,1.13-.01,1.67-.02,4.25-.06,7.93-.11,10.99,3.55Zm14.96-1.32c-2.82-2.89-6.09-3.23-9.56-3.23-.52,0-1.05.01-1.58.02-.38,0-.77.01-1.16.01V8.19a31.323,31.323,0,0,0,3.37-.09c3.59-.23,6.7-.43,8.93,3.7v1.32a7.87,7.87,0,0,0,0,15.71Zm-.05-6.42a5.2,5.2,0,0,1-4.74-5.23,5.326,5.326,0,0,1,5.8-5.27,5.119,5.119,0,0,1,4.76,4.8c0,2.37-1.4,3.21-2.6,3.21a2.707,2.707,0,0,1-1.75-.56,2.326,2.326,0,0,1-.26.17,2.563,2.563,0,0,1-1.12.37,1.966,1.966,0,0,1-.26.02,2.413,2.413,0,0,1-2.43-2.55,3.153,3.153,0,0,1,2.6-3.19,2.377,2.377,0,0,1,1.17.14,1.948,1.948,0,0,1,.45.24l.05-.28,2.05.33-.58,3.4a1.587,1.587,0,0,0-.03.29c0,.31.34.33.45.33.63,0,1.05-.77,1.05-1.92a3.863,3.863,0,0,0-3.62-3.61c-.29-.01-.62-.01-.92,0a4.031,4.031,0,0,0-3.59,4.08,3.966,3.966,0,0,0,3.61,4.05,2.858,2.858,0,0,0,.58.03h.33a4.846,4.846,0,0,0,2.21-.69l.31-.19.62.98-.32.2a5.87,5.87,0,0,1-2.77.88,2.748,2.748,0,0,1-.41.02A4.482,4.482,0,0,1,19.46,26.21Zm1.03,2.62a7.87,7.87,0,0,0,0-15.71V11.8c2.23-4.13,5.34-3.93,8.93-3.7a31.439,31.439,0,0,0,3.38.09V29.43c-.4,0-.79-.01-1.17-.01-4.05-.06-7.89-.12-11.14,3.21Zm14.96,5.12H20.63c3.07-3.66,6.75-3.61,10.99-3.55.54.01,1.1.02,1.67.02a.493.493,0,0,0,.49-.5V12.7h1.67Z"/><path class="d" d="M21.03,20.56a1.71,1.71,0,0,1-.54,1.28,1.161,1.161,0,0,1-.81.34.468.468,0,0,1-.17-.02.989.989,0,0,1-.88-1.08,1.568,1.568,0,0,1,.88-1.48,1.1,1.1,0,0,1,.47-.1,1.045,1.045,0,0,1,1.05,1.06Z"/><path class="c" d="M21.03,20.56a1.71,1.71,0,0,1-.54,1.28,1.161,1.161,0,0,1-.81.34.468.468,0,0,1-.17-.02.989.989,0,0,1-.88-1.08,1.568,1.568,0,0,1,.88-1.48,1.1,1.1,0,0,1,.47-.1,1.045,1.045,0,0,1,1.05,1.06Z"/></svg>