<svg xmlns="http://www.w3.org/2000/svg" viewBox="0 0 40 55"><defs><style>.a{font-size:7px;font-family:GothamRounded-Bold, Gotham Rounded;font-weight:700;}.a,.d{fill:#4d4d4d;}.b{letter-spacing:-0.005em;}.c{letter-spacing:-0.015em;}</style></defs><title>media_streamingaudio</title><text class="a" transform="translate(1.772 43.372)"><tspan class="b">S</tspan><tspan x="4.445" y="0">t</tspan><tspan class="c" x="7.35" y="0">r</tspan><tspan x="10.17" y="0">eaming </tspan><tspan x="8.232" y="7">audio</tspan></text><path class="d" d="M25.47,21.35A2.139,2.139,0,0,1,24,23.38v5.23l-5.09-4.56H15.24V18.48h3.67L24,14.09v5.23A2.139,2.139,0,0,1,25.47,21.35Z"/><path class="d" d="M30.243,21.285a6.675,6.675,0,0,1-3.334,5.781l-.439-.75a5.8,5.8,0,0,0,.361-9.83l.44-.758A6.672,6.672,0,0,1,30.243,21.285Z"/><path class="d" d="M28.787,30.331l-.474-.818a9.5,9.5,0,0,0,.371-16.232l.474-.81a10.441,10.441,0,0,1-.371,17.86Z"/><path class="d" d="M37.2,21.285A13.643,13.643,0,0,1,30.39,33.1l-.431-.758a12.77,12.77,0,0,0,.362-21.9l.439-.75A13.623,13.623,0,0,1,37.2,21.285Z"/><path class="d" d="M30.76,9.7l-.439.75a12.77,12.77,0,0,1-.362,21.9l.431.758A13.65,13.65,0,0,0,30.76,9.7Z"/><path class="d" d="M30.243,21.285a6.675,6.675,0,0,1-3.334,5.781l-.439-.75a5.8,5.8,0,0,0,.361-9.83l.44-.758A6.672,6.672,0,0,1,30.243,21.285Z"/><path class="d" d="M34.008,21.285a10.445,10.445,0,0,1-5.221,9.046l-.474-.818a9.5,9.5,0,0,0,.371-16.232l.474-.81A10.439,10.439,0,0,1,34.008,21.285Z"/><path class="d" d="M29.158,12.471l-.474.81a9.5,9.5,0,0,1-.371,16.232l.474.818a10.441,10.441,0,0,0,.371-17.86Z"/><path class="d" d="M30.243,21.285a6.675,6.675,0,0,1-3.334,5.781l-.439-.75a5.8,5.8,0,0,0,.361-9.83l.44-.758A6.672,6.672,0,0,1,30.243,21.285Z"/><path class="d" d="M27.271,15.728l-.44.758a5.8,5.8,0,0,1-.361,9.83l.439.75a6.68,6.68,0,0,0,.362-11.338Z"/><path class="d" d="M9.757,21.285a6.675,6.675,0,0,0,3.334,5.781l.439-.75a5.8,5.8,0,0,1-.361-9.83l-.44-.758A6.672,6.672,0,0,0,9.757,21.285Z"/><path class="d" d="M11.213,30.331l.474-.818a9.5,9.5,0,0,1-.371-16.232l-.474-.81a10.441,10.441,0,0,0,.371,17.86Z"/><path class="d" d="M2.8,21.285A13.643,13.643,0,0,0,9.61,33.1l.431-.758a12.77,12.77,0,0,1-.362-21.9L9.24,9.7A13.623,13.623,0,0,0,2.8,21.285Z"/><path class="d" d="M2.8,21.285A13.643,13.643,0,0,0,9.61,33.1l.431-.758a12.77,12.77,0,0,1-.362-21.9L9.24,9.7A13.623,13.623,0,0,0,2.8,21.285Z"/><path class="d" d="M9.757,21.285a6.675,6.675,0,0,0,3.334,5.781l.439-.75a5.8,5.8,0,0,1-.361-9.83l-.44-.758A6.672,6.672,0,0,0,9.757,21.285Z"/><path class="d" d="M5.992,21.285a10.445,10.445,0,0,0,5.221,9.046l.474-.818a9.5,9.5,0,0,1-.371-16.232l-.474-.81A10.439,10.439,0,0,0,5.992,21.285Z"/><path class="d" d="M5.992,21.285a10.445,10.445,0,0,0,5.221,9.046l.474-.818a9.5,9.5,0,0,1-.371-16.232l-.474-.81A10.439,10.439,0,0,0,5.992,21.285Z"/><path class="d" d="M9.757,21.285a6.675,6.675,0,0,0,3.334,5.781l.439-.75a5.8,5.8,0,0,1-.361-9.83l-.44-.758A6.672,6.672,0,0,0,9.757,21.285Z"/><path class="d" d="M9.757,21.285a6.675,6.675,0,0,0,3.334,5.781l.439-.75a5.8,5.8,0,0,1-.361-9.83l-.44-.758A6.672,6.672,0,0,0,9.757,21.285Z"/></svg>