<svg xmlns="http://www.w3.org/2000/svg" viewBox="0 0 40 55"><defs><style>.a,.b{fill:#4d4d4d;}.b{font-size:7px;font-family:GothamRounded-Bold, Gotham Rounded;font-weight:700;}.c{letter-spacing:-0.013em;}</style></defs><title>media_downloadable book</title><path class="a" d="M14.79,6.1,8.78,12.11V35.72h8.88l-.91-.95H9.73V12.8h5.82V7.05H30.27V34.77H23.25l-.92.95h8.89V6.1Zm-.24,5.7H10.43l4.12-4.12Z"/><polygon class="a" points="26.74 29.39 22.37 33.92 21.55 34.77 20.64 35.72 20 36.38 19.36 35.72 18.45 34.77 17.63 33.92 13.26 29.39 17.01 29.39 17.01 18.81 22.99 18.81 22.99 29.39 26.74 29.39"/><text class="b" transform="translate(8.405 43.248)">D<tspan class="c" x="5.474" y="0">o</tspan><tspan x="10.031" y="0">wn</tspan><tspan x="20.335" y="0">-</tspan><tspan x="-3.857" y="7">loadable</tspan></text></svg>