<svg xmlns="http://www.w3.org/2000/svg" viewBox="0 0 40 55"><defs><style>.a,.b{fill:#4d4d4d;}.b{font-size:7px;font-family:GothamRounded-Bold, Gotham Rounded;font-weight:700;}.c{letter-spacing:-0.005em;}.d{letter-spacing:-0.01em;}</style></defs><title>media_podcasts</title><path class="a" d="M20,4.14a14.69,14.69,0,0,0-4.45,28.69l-.16-1.31a13.5,13.5,0,1,1,9.2.01l-.16,1.31A14.692,14.692,0,0,0,20,4.14Z"/><path class="a" d="M20,8.42a10.4,10.4,0,0,0-5.04,19.51l-.18-1.47a9.243,9.243,0,1,1,10.42.01l-.18,1.47A10.4,10.4,0,0,0,20,8.42Z"/><path class="a" d="M24.34,23.1a2.673,2.673,0,0,1,0,.49l-.33,2.74-.11.88-.16,1.33-.41,3.37-.09.79-.06.47-.4,3.32a1.324,1.324,0,0,1-.18.55,1.875,1.875,0,0,1-.36.45c-.05.05-.1.09-.16.14l-.18.12a3.554,3.554,0,0,1-.39.2H21.5a3.255,3.255,0,0,1-.44.15h-.01a3.856,3.856,0,0,1-.49.09h-.01a4.578,4.578,0,0,1-.53.03h-.03c-1.38-.01-2.67-.82-2.78-1.73l-.4-3.32-.06-.48-.09-.78-.41-3.37-.09-.75-.07-.58-.44-3.62c0-2.02,1.94-2.18,4.34-2.19h.3c1.58,0,2.81.07,3.49.61a.912.912,0,0,1,.17.17.21.21,0,0,1,.06.08,1.407,1.407,0,0,1,.28.56A2.325,2.325,0,0,1,24.34,23.1Z"/><path class="a" d="M24.04,16.57a4.037,4.037,0,0,1-2.34,3.66,4,4,0,0,1-3.34.03,4.035,4.035,0,1,1,5.68-3.69Z"/><text class="b" transform="translate(3.991 48.222)"><tspan class="c">P</tspan><tspan x="4.641" y="0">odca</tspan><tspan class="d" x="22.154" y="0">s</tspan><tspan x="25.599" y="0">ts</tspan></text></svg>