<svg xmlns="http://www.w3.org/2000/svg" viewBox="0 0 40 55"><defs><style>.a{font-size:7px;font-family:GothamRounded-Bold, Gotham Rounded;font-weight:700;}.a,.b{fill:#4d4d4d;}.c{fill:#ccc;}.d{fill:#666;}</style></defs><title>media_vhs</title><text class="a" transform="translate(12.559 43.372)">VHS</text><path class="b" d="M4.791,16.059v1.03h30.86v-1.03Z"/><path class="b" d="M4.791,17.089v15.24h30.86V17.089Zm7.51,8.98a1.995,1.995,0,0,1,0-3.86Zm15.34,1.71H12.8v-7.47h14.84Zm.5-5.62a2,2,0,0,1,0,3.96Z"/><path class="c" d="M11.631,27.879H9a1.9,1.9,0,0,1-1.889-1.89v-3.71A1.9,1.9,0,0,1,9,20.389h2.631a3.921,3.921,0,0,0,0,7.49Z"/><path class="c" d="M12.3,22.209v3.86a1.995,1.995,0,0,1,0-3.86Z"/><path class="c" d="M29.881,24.139a1.99,1.99,0,0,1-1.74,1.98v-3.96A1.983,1.983,0,0,1,29.881,24.139Z"/><path class="c" d="M33.331,22.279v3.71a1.9,1.9,0,0,1-1.89,1.89h-2.49a3.921,3.921,0,0,0,0-7.49h2.49A1.9,1.9,0,0,1,33.331,22.279Z"/><rect class="d" x="4.791" y="14.069" width="30.86" height="3.02"/></svg>