<svg xmlns="http://www.w3.org/2000/svg" viewBox="0 0 40 55"><defs><style>.a{font-size:7px;font-family:GothamRounded-Bold, Gotham Rounded;font-weight:700;}.a,.c,.d{fill:#4d4d4d;}.b{letter-spacing:-0.02em;}.c{fill-rule:evenodd;}</style></defs><title>media_evideo</title><text class="a" transform="translate(7.495 47.036)">e<tspan class="b" x="4.291" y="0">V</tspan><tspan x="9.233" y="0">ideo</tspan></text><path class="c" d="M4.5,7.08V36.91h31V7.08ZM9.94,35.19H6.37v-2.1H9.94Zm0-4.08H6.37V29.02H9.94Zm0-4.07H6.37V24.95H9.94Zm0-4.07H6.37V20.88H9.94Zm0-3.93H6.37V16.95H9.94Zm0-4.07H6.37V12.88H9.94Zm0-4.07H6.37V8.8H9.94ZM28.29,21.13H23.34v1.73h4.95V35.19H11.71V22.86h4.95V21.13H11.71V8.8H28.29Zm5.34,14.06H30.06v-2.1h3.57Zm0-4.08H30.06V29.02h3.57Zm0-4.07H30.06V24.95h3.57Zm0-4.07H30.06V20.88h3.57Zm0-3.93H30.06V16.95h3.57Zm0-4.07H30.06V12.88h3.57Zm0-4.07H30.06V8.8h3.57Z"/><polygon class="d" points="25.35 25.04 20 30.59 14.65 25.04 17.63 25.04 17.63 16.64 22.37 16.64 22.37 25.04 25.35 25.04"/></svg>