<svg xmlns="http://www.w3.org/2000/svg" viewBox="0 0 40 55"><defs><style>.a{font-size:7px;font-family:GothamRounded-Bold, Gotham Rounded;font-weight:700;}.a,.d{fill:#4d4d4d;}.b{fill:none;}.c{fill:#fff;}.e{fill:#999;}</style></defs><title>n</title><text class="a" transform="translate(5.965 44.041)">Book on <tspan x="9.467" y="7">CD</tspan></text><path class="b" d="M23.63,16.83a4.285,4.285,0,1,0-1.23,5.92A4.3,4.3,0,0,0,23.63,16.83Zm-2.31,4.28a2.325,2.325,0,0,1-3.21-.65,2.315,2.315,0,1,1,3.21.65Zm2.31-4.28a4.285,4.285,0,1,0-1.23,5.92A4.3,4.3,0,0,0,23.63,16.83Zm-2.31,4.28a2.325,2.325,0,0,1-3.21-.65,2.315,2.315,0,1,1,3.21.65Zm2.31-4.28a4.285,4.285,0,1,0-1.23,5.92A4.3,4.3,0,0,0,23.63,16.83Zm-2.31,4.28a2.325,2.325,0,0,1-3.21-.65,2.315,2.315,0,1,1,3.21.65Zm2.31-4.28a4.285,4.285,0,1,0-1.23,5.92A4.3,4.3,0,0,0,23.63,16.83Zm-2.31,4.28a2.325,2.325,0,0,1-3.21-.65,2.315,2.315,0,1,1,3.21.65Zm2.31-4.28a4.285,4.285,0,1,0-1.23,5.92A4.3,4.3,0,0,0,23.63,16.83Zm-2.31,4.28a2.325,2.325,0,0,1-3.21-.65,2.315,2.315,0,1,1,3.21.65Zm2.31-4.28a4.285,4.285,0,1,0-1.23,5.92A4.3,4.3,0,0,0,23.63,16.83Zm-2.31,4.28a2.325,2.325,0,0,1-3.21-.65,2.315,2.315,0,1,1,3.21.65Zm2.31-4.28a4.285,4.285,0,1,0-1.23,5.92A4.3,4.3,0,0,0,23.63,16.83Zm-2.31,4.28a2.325,2.325,0,0,1-3.21-.65,2.315,2.315,0,1,1,3.21.65Zm2.31-4.28a4.285,4.285,0,1,0-1.23,5.92A4.3,4.3,0,0,0,23.63,16.83Zm-2.31,4.28a2.325,2.325,0,0,1-3.21-.65,2.315,2.315,0,1,1,3.21.65Zm2.31-4.28a4.285,4.285,0,1,0-1.23,5.92A4.3,4.3,0,0,0,23.63,16.83Zm-2.31,4.28a2.325,2.325,0,0,1-3.21-.65,2.315,2.315,0,1,1,3.21.65Zm2.31-4.28a4.285,4.285,0,1,0-1.23,5.92A4.3,4.3,0,0,0,23.63,16.83Zm-2.31,4.28a2.325,2.325,0,0,1-3.21-.65,2.315,2.315,0,1,1,3.21.65Zm2.31-4.28a4.285,4.285,0,1,0-1.23,5.92A4.3,4.3,0,0,0,23.63,16.83Zm-2.31,4.28a2.325,2.325,0,0,1-3.21-.65,2.315,2.315,0,1,1,3.21.65Zm2.31-4.28a4.285,4.285,0,1,0-1.23,5.92A4.3,4.3,0,0,0,23.63,16.83Zm-2.31,4.28a2.325,2.325,0,0,1-3.21-.65,2.315,2.315,0,1,1,3.21.65Zm2.31-4.28a4.285,4.285,0,1,0-1.23,5.92A4.3,4.3,0,0,0,23.63,16.83Zm-2.31,4.28a2.325,2.325,0,0,1-3.21-.65,2.315,2.315,0,1,1,3.21.65Zm2.31-4.28a4.285,4.285,0,1,0-1.23,5.92A4.3,4.3,0,0,0,23.63,16.83Zm-2.31,4.28a2.325,2.325,0,0,1-3.21-.65,2.315,2.315,0,1,1,3.21.65ZM32.89,10.74v-.01c-.19-.28-.38-.55-.58-.81V9.91c-.2-.26-.41-.51-.62-.76s-.43-.49-.66-.72a14.983,14.983,0,0,0-2.98-2.38A15.38,15.38,0,0,0,6.92,11.17a15.66,15.66,0,0,0-.88,1.67c-.22.5-.42,1.01-.59,1.52a14.113,14.113,0,0,0-.58,2.39q-.075.48-.12.96c-.03.33-.05.65-.06.97-.01.22-.02.43-.01.65a17.34,17.34,0,0,0,.12,1.76,14.124,14.124,0,0,0,.47,2.31,2.172,2.172,0,0,0,.07.24,14.243,14.243,0,0,0,.75,1.97,14.9,14.9,0,0,0,1.12,2.02c.07.1.14.19.2.29a1.526,1.526,0,0,0,.11.16l.09.12a.218.218,0,0,0,.04.05.265.265,0,0,0,.05.06,1.463,1.463,0,0,0,.09.13.5.5,0,0,1,.07.08,15.849,15.849,0,0,0,1.82,2c.1.09.19.18.29.26.17.15.35.29.52.43a4.22,4.22,0,0,0,.36.27v-5.2a.8.8,0,0,1,.8-.8v-.79a6.531,6.531,0,0,1,4.17-1.59,1.7,1.7,0,0,1,.23.01,5.6,5.6,0,1,1,8.67-7,5.57,5.57,0,0,1-.7,7,.86.86,0,0,1,.16-.01,6.574,6.574,0,0,1,4.18,1.59v.79a.8.8,0,0,1,.79.8v5.26A15.331,15.331,0,0,0,32.89,10.74ZM12.4,18.6l-5.53.66a13.214,13.214,0,0,1,1.11-5.37l4.82,2.79A6.989,6.989,0,0,0,12.4,18.6Zm14.92,3.08a8.964,8.964,0,0,0,.39-1.92l5.5-.66a13.084,13.084,0,0,1-1.11,5.37Zm-3.69-4.85a4.285,4.285,0,1,0-1.23,5.92A4.3,4.3,0,0,0,23.63,16.83Zm-2.31,4.28a2.325,2.325,0,0,1-3.21-.65,2.315,2.315,0,1,1,3.21.65Zm2.31-4.28a4.285,4.285,0,1,0-1.23,5.92A4.3,4.3,0,0,0,23.63,16.83Zm-2.31,4.28a2.325,2.325,0,0,1-3.21-.65,2.315,2.315,0,1,1,3.21.65Zm2.31-4.28a4.285,4.285,0,1,0-1.23,5.92A4.3,4.3,0,0,0,23.63,16.83Zm-2.31,4.28a2.325,2.325,0,0,1-3.21-.65,2.315,2.315,0,1,1,3.21.65Zm2.31-4.28a4.285,4.285,0,1,0-1.23,5.92A4.3,4.3,0,0,0,23.63,16.83Zm-2.31,4.28a2.325,2.325,0,0,1-3.21-.65,2.315,2.315,0,1,1,3.21.65Zm2.31-4.28a4.285,4.285,0,1,0-1.23,5.92A4.3,4.3,0,0,0,23.63,16.83Zm-2.31,4.28a2.325,2.325,0,0,1-3.21-.65,2.315,2.315,0,1,1,3.21.65Zm2.31-4.28a4.285,4.285,0,1,0-1.23,5.92A4.3,4.3,0,0,0,23.63,16.83Zm-2.31,4.28a2.325,2.325,0,0,1-3.21-.65,2.315,2.315,0,1,1,3.21.65Zm2.31-4.28a4.285,4.285,0,1,0-1.23,5.92A4.3,4.3,0,0,0,23.63,16.83Zm-2.31,4.28a2.325,2.325,0,0,1-3.21-.65,2.315,2.315,0,1,1,3.21.65Zm.86,13.27-.02.01a.09.09,0,0,0,.05-.01Zm1.45-17.55a4.285,4.285,0,1,0-1.23,5.92A4.3,4.3,0,0,0,23.63,16.83Zm-2.31,4.28a2.325,2.325,0,0,1-3.21-.65,2.315,2.315,0,1,1,3.21.65Zm2.31-4.28a4.285,4.285,0,1,0-1.23,5.92A4.3,4.3,0,0,0,23.63,16.83Zm-2.31,4.28a2.325,2.325,0,0,1-3.21-.65,2.315,2.315,0,1,1,3.21.65Zm2.31-4.28a4.285,4.285,0,1,0-1.23,5.92A4.3,4.3,0,0,0,23.63,16.83Zm-2.31,4.28a2.325,2.325,0,0,1-3.21-.65,2.315,2.315,0,1,1,3.21.65Zm2.31-4.28a4.285,4.285,0,1,0-1.23,5.92A4.3,4.3,0,0,0,23.63,16.83Zm-2.31,4.28a2.325,2.325,0,0,1-3.21-.65,2.315,2.315,0,1,1,3.21.65Zm2.31-4.28a4.285,4.285,0,1,0-1.23,5.92A4.3,4.3,0,0,0,23.63,16.83Zm-2.31,4.28a2.325,2.325,0,0,1-3.21-.65,2.315,2.315,0,1,1,3.21.65Zm2.31-4.28a4.285,4.285,0,1,0-1.23,5.92A4.3,4.3,0,0,0,23.63,16.83Zm-2.31,4.28a2.325,2.325,0,0,1-3.21-.65,2.315,2.315,0,1,1,3.21.65Z"/><path class="c" d="M23.63,16.83a4.285,4.285,0,1,0-1.23,5.92A4.3,4.3,0,0,0,23.63,16.83Zm-2.31,4.28a2.325,2.325,0,0,1-3.21-.65,2.315,2.315,0,1,1,3.21.65Z"/><path class="c" d="M7.79,28.44a.47.47,0,0,0,.06.09l.01-.01A.5.5,0,0,0,7.79,28.44Zm14.39,5.94-.02.01a.09.09,0,0,0,.05-.01Zm0,0-.02.01a.09.09,0,0,0,.05-.01Zm0,0-.02.01a.09.09,0,0,0,.05-.01Zm0,0-.02.01a.09.09,0,0,0,.05-.01Z"/><path class="d" d="M23.63,16.83a4.285,4.285,0,1,0-1.23,5.92A4.3,4.3,0,0,0,23.63,16.83Zm-2.31,4.28a2.325,2.325,0,0,1-3.21-.65,2.315,2.315,0,1,1,3.21.65Z"/><path class="d" d="M23.63,16.83a4.285,4.285,0,1,0-1.23,5.92A4.3,4.3,0,0,0,23.63,16.83Zm-2.31,4.28a2.325,2.325,0,0,1-3.21-.65,2.315,2.315,0,1,1,3.21.65Zm2.31-4.28a4.285,4.285,0,1,0-1.23,5.92A4.3,4.3,0,0,0,23.63,16.83Zm-2.31,4.28a2.325,2.325,0,0,1-3.21-.65,2.315,2.315,0,1,1,3.21.65Z"/><path class="d" d="M7.79,28.44a.47.47,0,0,0,.06.09l.01-.01A.5.5,0,0,0,7.79,28.44Z"/><path class="d" d="M32.89,10.74v-.01c-.19-.28-.38-.55-.58-.81V9.91c-.2-.26-.41-.51-.62-.76s-.43-.49-.66-.72a14.983,14.983,0,0,0-2.98-2.38A15.38,15.38,0,0,0,6.92,11.17a15.66,15.66,0,0,0-.88,1.67c-.22.5-.42,1.01-.59,1.52a14.113,14.113,0,0,0-.58,2.39q-.075.48-.12.96c-.03.33-.05.65-.06.97-.01.22-.02.43-.01.65a13.012,13.012,0,0,0,.12,1.76,14.124,14.124,0,0,0,.47,2.31,2.172,2.172,0,0,0,.07.24,14.243,14.243,0,0,0,.75,1.97,14.9,14.9,0,0,0,1.12,2.02c.07.1.14.19.2.29a1.526,1.526,0,0,0,.11.16l.09.12a.218.218,0,0,0,.04.05.265.265,0,0,0,.05.06,1.463,1.463,0,0,0,.09.13.5.5,0,0,1,.07.08,15.849,15.849,0,0,0,1.82,2c.1.09.19.18.29.26.17.15.35.29.52.43a4.22,4.22,0,0,0,.36.27v-5.2a.8.8,0,0,1,.8-.8v-.79a6.531,6.531,0,0,1,4.17-1.59,1.7,1.7,0,0,1,.23.01,5.6,5.6,0,1,1,8.67-7,5.57,5.57,0,0,1-.7,7,.86.86,0,0,1,.16-.01,6.574,6.574,0,0,1,4.18,1.59v.79a.8.8,0,0,1,.79.8v5.26A15.331,15.331,0,0,0,32.89,10.74ZM12.4,18.6l-5.53.66a13.214,13.214,0,0,1,1.11-5.37l4.82,2.79A6.989,6.989,0,0,0,12.4,18.6Zm14.92,3.08a8.964,8.964,0,0,0,.39-1.92l5.5-.66a13.084,13.084,0,0,1-1.11,5.37Z"/><path class="c" d="M12.45,34.91v.19a1.108,1.108,0,0,1,.19-.09A1.14,1.14,0,0,1,12.45,34.91Zm9.73-.53-.02.01a.09.09,0,0,0,.05-.01Zm5.24.65c.05.02.1.05.14.07v-.14C27.51,34.99,27.46,35.01,27.42,35.03Zm-5.24-.65-.02.01a.09.09,0,0,0,.05-.01Zm0,0-.02.01a.09.09,0,0,0,.05-.01Zm0,0-.02.01a.09.09,0,0,0,.05-.01Z"/><path class="e" d="M28.36,25.48v-.79a6.574,6.574,0,0,0-4.18-1.59.86.86,0,0,0-.16.01h-.05c-.13.01-.27.01-.39.03A6.618,6.618,0,0,0,20.1,24.6l-.02.02c-.05.04-.08.07-.08.07a6.273,6.273,0,0,0-1.35-.9c-.1-.05-.2-.1-.3-.14a2.443,2.443,0,0,0-.24-.1,6.24,6.24,0,0,0-1.75-.42,2.825,2.825,0,0,0-.29-.02h-.02a1.7,1.7,0,0,0-.23-.01,6.531,6.531,0,0,0-4.17,1.59v.79a.8.8,0,0,0-.8.8V36.62a.8.8,0,0,0,.8.8H28.36a.8.8,0,0,0,.79-.8V26.28A.8.8,0,0,0,28.36,25.48Zm-8.75,9.86a7.248,7.248,0,0,0-3.79-1.12,6.982,6.982,0,0,0-3.18.79,1.108,1.108,0,0,0-.19.09V24.97a5.631,5.631,0,0,1,3.37-1.18,5.392,5.392,0,0,1,1.31.17,5.966,5.966,0,0,1,1.51.63,5.415,5.415,0,0,1,.81.59l.16.14Zm7.95-.24c-.04-.02-.09-.05-.14-.07a7.046,7.046,0,0,0-3.24-.81,7.179,7.179,0,0,0-3.78,1.12V25.32l.15-.14a4.523,4.523,0,0,1,.77-.56l.01-.01a5.436,5.436,0,0,1,1.65-.67,4.987,4.987,0,0,1,1.2-.15,5.792,5.792,0,0,1,3.38,1.18Z"/></svg>