<svg xmlns="http://www.w3.org/2000/svg" viewBox="0 0 40 55"><defs><style>.a{font-size:7px;font-family:GothamRounded-Bold, Gotham Rounded;font-weight:700;}.a,.b{fill:#4d4d4d;}.c{fill:#666;}</style></defs><title>o</title><text class="a" transform="translate(14.998 45.253)">Kit</text><polygon class="b" points="29.918 18.577 19.926 21.689 10.486 17.485 19.905 15.372 29.918 18.577"/><path class="c" d="M31.094,23.937,30.927,30.1,20.436,34.74V23.167l5.173,2.519a.489.489,0,0,0,.239.062.577.577,0,0,0,.187-.031Z"/><path class="c" d="M19.322,22.938V34.564l-9.21-5.943-.406-5.974,2.519,1.311a.558.558,0,0,0,.26.063.246.246,0,0,0,.083-.011Z"/><path class="b" d="M38.067,20.43l-5.35-2.071,3.841-4.226a.552.552,0,0,0,.125-.53.589.589,0,0,0-.4-.386L24.412,10.053a.594.594,0,0,0-.531.146l-3.944,3.809-3.206-3.257a.535.535,0,0,0-.5-.156L5.616,12.614a.513.513,0,0,0-.406.333.539.539,0,0,0,.062.531L7.728,16.87l-5.661.667a.551.551,0,0,0-.2,1.04L8.54,22.043l.479,6.932a.56.56,0,0,0,.25.437l10.314,6.65a.513.513,0,0,0,.3.094A.522.522,0,0,0,20.1,36.1L31.7,30.973a.559.559,0,0,0,.333-.489l.188-6.942,5.838-2.071a.551.551,0,0,0,.011-1.041ZM24.433,11.209,35.121,14.06l-3.528,3.893-10.616-3.4ZM6.688,13.54l9.45-1.8,2.685,2.727L8.967,16.683Zm-2.7,4.892,4.652-.552,9.305,4.153-.677.1h-.031l-4.663.749-2.164-1.124Zm15.33,16.132-9.21-5.943-.406-5.974,2.519,1.311a.558.558,0,0,0,.26.063.246.246,0,0,0,.083-.011l6.754-1.072Zm.6-12.875-9.44-4.2,9.419-2.113,10.013,3.205Zm11,8.41L20.436,34.74V23.167l5.173,2.519a.489.489,0,0,0,.239.062.577.577,0,0,0,.187-.031l5.059-1.78Zm.614-7.5c-.021.01-.042.01-.062.021l-1.2.416-4.4,1.551L21.4,22.4l10.335-3.216h.01l4.517,1.748Z"/></svg>