<svg xmlns="http://www.w3.org/2000/svg" viewBox="0 0 40 55"><defs><style>.a,.b{fill:#4d4d4d;}.b{font-size:6px;font-family:GothamRounded-Bold, Gotham Rounded;font-weight:700;}.c{letter-spacing:-0.015em;}.d{letter-spacing:-0.005em;}</style></defs><title>p</title><path class="a" d="M31.283,22.845V12.178H4.039V31.934a2.846,2.846,0,0,0,2.842,2.843H33.117a2.847,2.847,0,0,0,2.844-2.843V22.845ZM6.881,33.768a1.836,1.836,0,0,1-1.834-1.834V13.187H30.275V31.934a2.831,2.831,0,0,0,.672,1.834ZM17.224,16.841H27.37V17.85H17.224Zm0,3.386H27.37v.588H17.224Zm0,3.176H27.37v.589H17.224Zm0,3.176H27.37v.588H17.224Zm-9.21.588v-.588h7.307v.588Zm-.062,2.587H27.37v.588H7.952Zm7.475-5.762H7.91V17.051h7.517Z"/><text class="b" transform="translate(2.879 44.517)">N<tspan class="c" x="4.74" y="0">e</tspan><tspan class="d" x="8.328" y="0">w</tspan><tspan x="13.391" y="0">spaper</tspan></text></svg>