<svg xmlns="http://www.w3.org/2000/svg" viewBox="0 0 40 55"><defs><style>.a{font-size:7px;font-family:GothamRounded-Bold, Gotham Rounded;font-weight:700;}.a,.c{fill:#4d4d4d;}.b{letter-spacing:-0.01em;}</style></defs><title>q</title><text class="a" transform="translate(10.148 44.433)">La<tspan class="b" x="8.477" y="0">r</tspan><tspan x="11.333" y="0">ge </tspan><tspan x="1.659" y="7">print</tspan></text><path class="c" d="M34.29,11.5V10.1a11.5,11.5,0,0,0-7.33-2.79,11.515,11.515,0,0,0-7.34,2.79,11.472,11.472,0,0,0-7.33-2.79A11.472,11.472,0,0,0,4.96,10.1v1.4a1.4,1.4,0,0,0-1.4,1.39V31.05a1.4,1.4,0,0,0,1.4,1.39h11.4l1.81-4.08a12.457,12.457,0,0,0-5.88-1.52,12.478,12.478,0,0,0-5.93,1.55V10.59a10.017,10.017,0,0,1,5.93-2.06,10.114,10.114,0,0,1,6.37,2.43l.27.25V26.63l1.39-3.14V11.21l.27-.25a9.922,9.922,0,0,1,6.37-2.43,10.125,10.125,0,0,1,5.93,2.07V24.17l2.79,6.3V12.89A1.387,1.387,0,0,0,34.29,11.5Z"/><path class="c" d="M35.44,34.86l-1.08-2.43-.51-1.15-1.37-3.1-3.53-7.96a2.481,2.481,0,0,0-2.36-1.62h-.24a2.52,2.52,0,0,0-2.39,1.62L22.15,24.3l-1.83,4.14-1.77,4-1.07,2.42a2.039,2.039,0,0,0-.24.88,1.878,1.878,0,0,0,1.88,1.91,2.019,2.019,0,0,0,1.89-1.28l1.3-3.05H30.5l1.24,2.92a2.094,2.094,0,0,0,1.97,1.41,1.942,1.942,0,0,0,1.94-1.97A2.032,2.032,0,0,0,35.44,34.86ZM26.4,23.57l1.39,3.3,1.19,2.83H23.83l1.13-2.69Z"/></svg>