<svg xmlns="http://www.w3.org/2000/svg" viewBox="0 0 40 55"><defs><style>.a{font-size:7px;font-family:GothamRounded-Bold, Gotham Rounded;font-weight:700;}.a,.c{fill:#4d4d4d;}.b{isolation:isolate;}.d{fill:#fff;}</style></defs><title>r</title><text class="a" transform="translate(2.049 47.172)">3D Object</text><g class="b"><polygon class="c" points="33.19 13.6 32.15 14.13 20 20.31 7.89 14.13 6.84 13.59 19.76 7.5 33.19 13.6"/><polygon class="c" points="19 22.05 19 38.34 5.65 30.18 5.69 15.25 19 22.05"/><polygon class="c" points="20.02 21.43 20 21.44 19.98 21.43 20.02 21.43"/><polygon class="c" points="34.35 15.26 34.31 30.18 21 37.92 21 22.05 34.35 15.26"/></g><polygon class="c" points="20.02 21.43 20 21.44 19.98 21.43 20.02 21.43"/><polygon class="d" points="20.02 21.43 20 21.44 19.98 21.43 20.02 21.43"/></svg>