<svg xmlns="http://www.w3.org/2000/svg" viewBox="0 0 40 55"><defs><style>.a{font-size:7px;font-family:GothamRounded-Bold, Gotham Rounded;font-weight:700;}.a,.b{fill:#4d4d4d;}</style></defs><title>s</title><text class="a" transform="translate(4.843 44.433)">Slide set</text><path class="b" d="M30.149,33.507H10.07V13.3H30.149ZM11.916,31.661H28.3V15.146H11.916Z"/><polygon class="b" points="33.686 31.676 30.935 31.676 30.935 30.137 32.148 30.137 32.148 16.67 30.935 16.67 30.935 15.131 33.686 15.131 33.686 31.676"/><polygon class="b" points="37.009 30.279 34.258 30.279 34.258 28.74 35.471 28.74 35.471 18.067 34.258 18.067 34.258 16.528 37.009 16.528 37.009 30.279"/><polygon class="b" points="9.434 31.676 6.683 31.676 6.683 15.131 9.434 15.131 9.434 16.67 8.222 16.67 8.222 30.137 9.434 30.137 9.434 31.676"/><polygon class="b" points="5.742 30.279 2.991 30.279 2.991 16.528 5.742 16.528 5.742 18.067 4.529 18.067 4.529 28.74 5.742 28.74 5.742 30.279"/></svg>