<svg xmlns="http://www.w3.org/2000/svg" viewBox="0 0 40 55"><defs><style>.a,.b{fill:#4d4d4d;}.b{font-size:7px;font-family:GothamRounded-Bold, Gotham Rounded;font-weight:700;}</style></defs><title>t</title><path class="a" d="M20,9.19A13.215,13.215,0,1,0,33.21,22.4,13.211,13.211,0,0,0,20,9.19Zm4.49,17.18a3.641,3.641,0,0,1-2.89-1.14,4.056,4.056,0,0,1-2.79,1.14,3.4,3.4,0,0,1-3.45-3.64,4.565,4.565,0,0,1,4.23-4.74,3.024,3.024,0,0,1,2.6,1.28l.21-1,2.22.36-.88,5.07a3.276,3.276,0,0,0-.06.59,1.22,1.22,0,0,0,1.38,1.19c1.33,0,2.39-1.34,2.39-3.85,0-3.49-3.19-6.71-7.43-6.71a7.486,7.486,0,1,0,.15,14.97,8.456,8.456,0,0,0,4.62-1.26l.38.6a9.216,9.216,0,0,1-5,1.41,8.241,8.241,0,1,1-.15-16.48c4.62,0,8.22,3.6,8.22,7.47C28.24,24.78,26.56,26.37,24.49,26.37Z"/><path class="a" d="M21.72,21.71a2.521,2.521,0,0,1-2.25,2.71,1.681,1.681,0,0,1-1.77-1.83,2.478,2.478,0,0,1,2.26-2.66A1.685,1.685,0,0,1,21.72,21.71Z"/><text class="b" transform="translate(8.405 44.433)">Online</text></svg>