<svg xmlns="http://www.w3.org/2000/svg" viewBox="0 0 40 55"><defs><style>.a{font-size:7px;font-family:GothamRounded-Bold, Gotham Rounded;font-weight:700;}.a,.c{fill:#4d4d4d;}.b{letter-spacing:-0.015em;}</style></defs><title>v</title><text class="a" transform="translate(8.621 44.206)">eBook <tspan class="b" x="4.424" y="7">te</tspan><tspan x="11.41" y="7">xt</tspan></text><path class="c" d="M29.593,4.642H10.406A3.282,3.282,0,0,0,7.206,8V33.04a3.282,3.282,0,0,0,3.2,3.357H29.593a3.282,3.282,0,0,0,3.2-3.357V8A3.282,3.282,0,0,0,29.593,4.642ZM20,35.381A1.086,1.086,0,1,1,21.085,34.3,1.085,1.085,0,0,1,20,35.381Zm10.345-3.192H9.655V11.151h0V7.09H30.344v25.1Z"/><rect class="c" x="11.841" y="11.886" width="16.316" height="1.313"/><rect class="c" x="11.841" y="14.511" width="16.316" height="1.313"/><rect class="c" x="11.841" y="17.136" width="16.316" height="1.313"/><rect class="c" x="11.841" y="19.761" width="10.122" height="1.313"/><rect class="c" x="11.841" y="23.434" width="16.316" height="1.313"/><rect class="c" x="11.841" y="26.06" width="16.316" height="1.313"/><rect class="c" x="11.841" y="28.685" width="16.316" height="1.313"/><rect class="c" x="11.841" y="9.258" width="16.316" height="1.313"/></svg>