<svg xmlns="http://www.w3.org/2000/svg" viewBox="0 0 40 55"><defs><style>.a{font-size:7px;font-family:GothamRounded-Bold, Gotham Rounded;font-weight:700;}.a,.b{fill:#4d4d4d;}</style></defs><title>w</title><text class="a" transform="translate(8.621 44.206)">eBook <tspan x="1.383" y="7">audio</tspan></text><path class="b" d="M29.593,4.642H10.406A3.282,3.282,0,0,0,7.206,8V33.04a3.282,3.282,0,0,0,3.2,3.357H29.593a3.282,3.282,0,0,0,3.2-3.357V8A3.282,3.282,0,0,0,29.593,4.642ZM20,35.381A1.086,1.086,0,1,1,21.085,34.3,1.085,1.085,0,0,1,20,35.381Zm10.345-3.192H9.655V11.151h0V7.09H30.344v25.1Z"/><path class="b" d="M25.11,20.22a2.143,2.143,0,0,1-1.46,2.04v3.96a.562.562,0,0,1-.94.42l-3.99-3.57a.605.605,0,0,0-.38-.15H15.45a.559.559,0,0,1-.56-.56V17.92a.559.559,0,0,1,.56-.56h2.89a.549.549,0,0,0,.37-.14l4.01-3.45a.561.561,0,0,1,.93.43v3.99A2.139,2.139,0,0,1,25.11,20.22Z"/></svg>