<svg xmlns="http://www.w3.org/2000/svg" viewBox="0 0 40 55"><defs><style>.a{font-size:7px;font-family:GothamRounded-Bold, Gotham Rounded;font-weight:700;}.a,.c{fill:#4d4d4d;}.b{letter-spacing:-0.013em;}</style></defs><title>x</title><text class="a" transform="translate(8.405 43.04)">D<tspan class="b" x="5.474" y="0">o</tspan><tspan x="10.031" y="0">wn</tspan><tspan x="20.336" y="0">-</tspan><tspan x="-3.857" y="7">loadable</tspan></text><path class="c" d="M31.444,4.5V23.137a2.485,2.485,0,0,1-.106.73A4.649,4.649,0,0,1,28.546,26.7c-2.157.9-4.431.349-5.087-1.216s.571-3.564,2.729-4.463a5.07,5.07,0,0,1,3.141-.3V10.985L15.516,13.714l-.148,11.517v.053a2.718,2.718,0,0,1-.106.709,4.707,4.707,0,0,1-2.8,2.824c-2.147.9-4.432.349-5.077-1.217s.571-3.564,2.729-4.463a5.023,5.023,0,0,1,3.173-.285L13.475,8.1Z"/><polygon class="c" points="20 35.375 26.152 29.544 13.848 29.544 20 35.375"/></svg>