<svg xmlns="http://www.w3.org/2000/svg" viewBox="0 0 40 55"><defs><style>.a{font-size:7px;font-family:GothamRounded-Bold, Gotham Rounded;font-weight:700;}.a,.c,.d{fill:#4d4d4d;}.b{letter-spacing:-0.013em;}.d{fill-rule:evenodd;}</style></defs><title>y</title><text class="a" transform="translate(8.405 43.04)">D<tspan class="b" x="5.474" y="0">o</tspan><tspan x="10.031" y="0">wn</tspan><tspan x="20.336" y="0">-</tspan><tspan x="-3.857" y="7">loadable</tspan></text><polygon class="c" points="20 35.375 26.152 29.544 13.848 29.544 20 35.375"/><path class="d" d="M8.189,27.138V4.408H31.811v22.73Zm5.494-12.022H26.317V5.722H13.683v9.394Zm0,1.314v9.393H26.317V16.43ZM9.618,13.521h2.714V11.927H9.618v1.594Zm18.05,0h2.714V11.927H27.668v1.594Zm-18.05-7.8V7.317h2.714V5.722Zm0,3.1v1.594h2.714V8.825Zm18.05-3.1V7.317h2.714V5.722Zm0,3.1v1.594h2.714V8.825Zm-18.05,6.1v1.594h2.714V14.923Zm0,3.1v1.595h2.714V18.024Zm0,3.1v1.595h2.714V21.126Zm0,3.1v1.594h2.714V24.229Zm18.05-9.306v1.594h2.714V14.923Zm0,3.1v1.595h2.714V18.024Zm0,3.1v1.595h2.714V21.126Zm0,3.1v1.594h2.714V24.229Z"/></svg>