<svg xmlns="http://www.w3.org/2000/svg" viewBox="0 0 40 55"><defs><style>.a{font-size:7px;font-family:GothamRounded-Bold, Gotham Rounded;font-weight:700;}.a,.b{fill:#4d4d4d;}</style></defs><title>z</title><text class="a" transform="translate(11.475 44.206)">Maps</text><path class="b" d="M3.42,20.694,8.358,36.97,15.453,32.8l8.207.418,5.461-5.008,8.868-.626L31.312,13.807,23.7,13.494l-5.112,4.278h0l-1.433-.209c-.179.266-.39.59-.617.947l1.831.267,1.567,4.771-.4.551-.283.393.524.52q.177-.242.351-.485l.09-.123,2.536,7.72-7.557-.385L8.972,35.4,6.987,28.856c.209.071.43.142.661.212l.236-.693c-.43-.128-.823-.26-1.161-.388L4.649,21.151l4.227-2.67c-.207-.326-.4-.624-.569-.874Zm17.55,2.674c.166-.223.332-.444.5-.66l-.478-.577c-.1.129-.2.26-.3.391l-1.314-4,4.69-3.921,6.537.155,3.265,6.7c-.149-.105-.3-.208-.444-.307l-.367.635q.726.494,1.5,1.077l1.832,3.761-7.667.557L23.73,31.765Z"/><path class="b" d="M7.776,13.494A5.38,5.38,0,0,0,8.9,16.628c1.055,1.473,3.815,6.16,3.815,6.16s2.76-4.687,3.815-6.16a5.386,5.386,0,0,0,1.122-3.134,4.938,4.938,0,1,0-9.875,0Zm2.244-.382a2.694,2.694,0,1,1,2.694,2.661A2.677,2.677,0,0,1,10.02,13.112Z"/><path class="b" d="M15.382,29.54l-.189-.728a6.024,6.024,0,0,0,.928-.652l.52.516A6.691,6.691,0,0,1,15.382,29.54Z"/><path class="b" d="M10.545,29.76c-.41-.073-.823-.158-1.229-.251l.239-.7c.387.088.779.169,1.168.238Z"/><path class="b" d="M26.047,18.434l-.062.749a3.624,3.624,0,0,0-1.055.31l-.044.022-.392-.62.123-.062A4.473,4.473,0,0,1,26.047,18.434Z"/><path class="b" d="M17.86,27.461l-.519-.516c.293-.334.582-.69.868-1.059l.522.519C18.446,26.771,18.156,27.126,17.86,27.461Z"/><path class="b" d="M23.073,19.869l.394.625a11.739,11.739,0,0,0-.876.869l-.47-.568A11.969,11.969,0,0,1,23.073,19.869Z"/><path class="b" d="M29.205,18.9l-.349.661a8.731,8.731,0,0,0-1.15-.31l.062-.74A9.106,9.106,0,0,1,29.205,18.9Z"/><path class="b" d="M13.54,29.3l.187.718c-.168.013-.346.019-.533.019-.293,0-.606-.015-.932-.043l.179-.717A8.649,8.649,0,0,0,13.54,29.3Z"/><path class="b" d="M31.973,20.229l-.367.636q-.6-.351-1.159-.63l.344-.652Q31.365,19.871,31.973,20.229Z"/></svg>