<svg xmlns="http://www.w3.org/2000/svg" viewBox="0 0 36.8 36.8"><defs><style>.a,.b{fill:#4d4d4d;}.b{stroke:#4d4d4d;stroke-miterlimit:10;stroke-width:0.2px;}</style></defs><title>blu-ray</title><path class="a" d="M20.813,18.3a3.984,3.984,0,1,0-3.984,3.984A3.984,3.984,0,0,0,20.813,18.3Zm-6.128,0a2.145,2.145,0,1,1,2.144,2.144A2.144,2.144,0,0,1,14.685,18.3Zm3.166,7.149a1.021,1.021,0,0,1,1.021-1.021H29.734a14.29,14.29,0,1,0-12.9,8.171c.345,0,.683-.028,1.022-.052ZM23.5,8.025A12.3,12.3,0,0,1,27.1,11.63l-4.617,2.308a7.163,7.163,0,0,0-1.3-1.295ZM10.161,28.573a12.293,12.293,0,0,1-3.606-3.605l4.617-2.308a7.2,7.2,0,0,0,1.3,1.295ZM11.621,18.3a5.209,5.209,0,1,1,5.208,5.208A5.208,5.208,0,0,1,11.621,18.3Z"/><path class="b" d="M20.14,27.059a.562.562,0,0,1,.567-.566h1.824a1.854,1.854,0,0,1,1.346.456,1.177,1.177,0,0,1,.353.875v.015a1.2,1.2,0,0,1-.676,1.111,1.257,1.257,0,0,1,.963,1.265v.015c0,.941-.765,1.412-1.927,1.412H20.707a.562.562,0,0,1-.567-.567Zm2.148,1.516c.5,0,.817-.162.817-.545v-.015c0-.338-.265-.529-.743-.529H21.244v1.089Zm.3,2.074c.5,0,.8-.177.8-.559v-.015c0-.345-.258-.559-.839-.559H21.244v1.133Z"/><path class="b" d="M25.455,27.015a.566.566,0,1,1,1.132,0v3.6h2.1a.515.515,0,0,1,0,1.03H26.021a.562.562,0,0,1-.566-.567Z"/><path class="b" d="M29.782,29.435v-2.42a.567.567,0,1,1,1.133,0v2.391c0,.839.419,1.272,1.111,1.272s1.111-.419,1.111-1.235V27.015a.567.567,0,1,1,1.133,0V29.4a2.073,2.073,0,0,1-2.259,2.325A2.044,2.044,0,0,1,29.782,29.435Z"/></svg>