<svg xmlns="http://www.w3.org/2000/svg" viewBox="0 0 36.8 36.8"><defs><style>.a{fill:#4d4d4d;}</style></defs><title>book</title><path class="a" d="M33.063,10.177v-1.4a11.477,11.477,0,0,0-7.331-2.793A11.478,11.478,0,0,0,18.4,8.781a11.478,11.478,0,0,0-7.332-2.793A11.47,11.47,0,0,0,3.737,8.781v1.4a1.4,1.4,0,0,0-1.4,1.4V29.728a1.4,1.4,0,0,0,1.4,1.4H33.063a1.4,1.4,0,0,0,1.4-1.4V11.574A1.4,1.4,0,0,0,33.063,10.177Zm-27.93,16.9V9.277A10,10,0,0,1,11.068,7.21a10.136,10.136,0,0,1,6.369,2.429l.265.253V27.484a12.584,12.584,0,0,0-6.634-1.965A12.45,12.45,0,0,0,5.133,27.073Zm26.534,0a12.45,12.45,0,0,0-5.935-1.554A12.581,12.581,0,0,0,19.1,27.484V9.892l.265-.253A9.979,9.979,0,0,1,25.732,7.21a10.114,10.114,0,0,1,5.935,2.073Z"/></svg>