<svg xmlns="http://www.w3.org/2000/svg" viewBox="0 0 36.8 36.8"><defs><style>.a{fill:#4d4d4d;}</style></defs><title>braille</title><path class="a" d="M33.263,10.177v-1.4a11.477,11.477,0,0,0-7.331-2.793A11.478,11.478,0,0,0,18.6,8.781a11.478,11.478,0,0,0-7.332-2.793A11.47,11.47,0,0,0,3.937,8.781v1.4a1.4,1.4,0,0,0-1.4,1.4V29.728a1.4,1.4,0,0,0,1.4,1.4H33.263a1.4,1.4,0,0,0,1.4-1.4V11.574A1.4,1.4,0,0,0,33.263,10.177Zm-27.93,16.9V9.277A10,10,0,0,1,11.268,7.21a10.136,10.136,0,0,1,6.369,2.429l.265.253V27.484a12.584,12.584,0,0,0-6.634-1.965A12.45,12.45,0,0,0,5.333,27.073Zm26.534,0a12.45,12.45,0,0,0-5.935-1.554A12.581,12.581,0,0,0,19.3,27.484V9.892l.265-.253A9.979,9.979,0,0,1,25.932,7.21a10.114,10.114,0,0,1,5.935,2.073Z"/><circle class="a" cx="8.062" cy="12.1" r="0.797"/><path class="a" d="M13.426,12.1a.8.8,0,1,1-.8-.8A.8.8,0,0,1,13.426,12.1Z"/><path class="a" d="M13.426,14.193a.8.8,0,1,1-.8-.8A.8.8,0,0,1,13.426,14.193Z"/><path class="a" d="M8.86,18.567a.8.8,0,1,1-.8-.8A.8.8,0,0,1,8.86,18.567Z"/><circle class="a" cx="10.155" cy="18.567" r="0.797"/><path class="a" d="M13.4,18.558a.8.8,0,1,1-.8-.8A.8.8,0,0,1,13.4,18.558Z"/><path class="a" d="M15.492,18.558a.8.8,0,1,1-.8-.8A.8.8,0,0,1,15.492,18.558Z"/><circle class="a" cx="14.695" cy="20.651" r="0.797"/><path class="a" d="M22.762,12.1a.795.795,0,1,1-.794-.795A.794.794,0,0,1,22.762,12.1Z"/><circle class="a" cx="24.054" cy="14.184" r="0.795"/><path class="a" d="M22.762,12.1a.795.795,0,1,1-.794-.795A.794.794,0,0,1,22.762,12.1Z"/><circle class="a" cx="24.054" cy="14.184" r="0.795"/><circle class="a" cx="26.519" cy="14.184" r="0.795"/><path class="a" d="M27.314,12.106a.8.8,0,1,1-.8-.795A.8.8,0,0,1,27.314,12.106Z"/><path class="a" d="M29.4,12.106a.8.8,0,1,1-.795-.795A.8.8,0,0,1,29.4,12.106Z"/><circle class="a" cx="21.968" cy="20.633" r="0.795"/><path class="a" d="M27.314,20.633a.8.8,0,1,1-.8-.794A.8.8,0,0,1,27.314,20.633Z"/><path class="a" d="M29.4,20.633a.8.8,0,1,1-.795-.794A.8.8,0,0,1,29.4,20.633Z"/><circle class="a" cx="21.968" cy="18.556" r="0.795"/><circle class="a" cx="26.519" cy="18.556" r="0.795"/><path class="a" d="M24.849,18.556a.795.795,0,1,1-.8-.8A.8.8,0,0,1,24.849,18.556Z"/><path class="a" d="M24.849,20.633a.8.8,0,1,1-.8-.794A.8.8,0,0,1,24.849,20.633Z"/></svg>