<svg xmlns="http://www.w3.org/2000/svg" viewBox="0 0 36.8 36.8"><defs><style>.a{fill:#4d4d4d;}</style></defs><title>casaudiobook</title><path class="a" d="M33.046,21.334H18.039a1.711,1.711,0,0,0-1.711,1.71v8.1a1.711,1.711,0,0,0,1.711,1.711h.495a2.021,2.021,0,0,1,.04-.375l.507-2.545a1.816,1.816,0,0,1,1.785-1.469h9.353A1.806,1.806,0,0,1,32,29.92l.507,2.534a1.863,1.863,0,0,1,.046.4h.495a1.711,1.711,0,0,0,1.711-1.711v-8.1A1.711,1.711,0,0,0,33.046,21.334ZM21.511,26.517a1.152,1.152,0,1,1,1.152-1.152A1.156,1.156,0,0,1,21.511,26.517Zm8.063,0a1.152,1.152,0,1,1,1.151-1.152A1.155,1.155,0,0,1,29.574,26.517Z"/><path class="a" d="M31.393,32.852a.66.66,0,0,1-.662.645H20.354a.662.662,0,0,1-.663-.645.449.449,0,0,1,.012-.15l.512-2.557a.662.662,0,0,1,.651-.53h9.353a.661.661,0,0,1,.65.53l.513,2.557A.448.448,0,0,1,31.393,32.852Z"/><path class="a" d="M32.69,10.18V8.78a11.472,11.472,0,0,0-7.33-2.79,11.472,11.472,0,0,0-7.33,2.79A11.472,11.472,0,0,0,10.7,5.99,11.472,11.472,0,0,0,3.37,8.78v1.4a1.4,1.4,0,0,0-1.4,1.39V29.73a1.4,1.4,0,0,0,1.4,1.39H15.44a1.526,1.526,0,0,1-.03-.3V26.49a12.114,12.114,0,0,0-4.71-.97,12.554,12.554,0,0,0-5.94,1.55V9.28A9.979,9.979,0,0,1,10.7,7.21a10.147,10.147,0,0,1,6.37,2.43l.26.25v10.5a.249.249,0,0,1,.08-.01h1.32V9.89l.26-.25a9.987,9.987,0,0,1,6.37-2.43A10.162,10.162,0,0,1,31.3,9.28v11.1h1.75a1.91,1.91,0,0,1,1.04.3V11.57A1.4,1.4,0,0,0,32.69,10.18Z"/></svg>