<svg xmlns="http://www.w3.org/2000/svg" viewBox="0 0 36.8 36.8"><defs><style>.a{fill:#4d4d4d;}</style></defs><title>casmusic</title><path class="a" d="M31.122,21.334H16.115a1.711,1.711,0,0,0-1.711,1.71v8.1a1.711,1.711,0,0,0,1.711,1.711h.5a2.021,2.021,0,0,1,.04-.375l.507-2.545a1.816,1.816,0,0,1,1.785-1.469H28.3a1.806,1.806,0,0,1,1.779,1.457l.507,2.534a1.863,1.863,0,0,1,.046.4h.5a1.71,1.71,0,0,0,1.71-1.711v-8.1A1.71,1.71,0,0,0,31.122,21.334ZM19.587,26.517a1.152,1.152,0,1,1,1.152-1.152A1.156,1.156,0,0,1,19.587,26.517Zm8.063,0A1.152,1.152,0,1,1,28.8,25.365,1.155,1.155,0,0,1,27.65,26.517Z"/><path class="a" d="M29.469,32.852a.66.66,0,0,1-.662.645H18.43a.662.662,0,0,1-.663-.645.449.449,0,0,1,.012-.15l.512-2.557a.662.662,0,0,1,.651-.53H28.3a.661.661,0,0,1,.65.53l.513,2.557A.448.448,0,0,1,29.469,32.852Z"/><path class="a" d="M30.14,3.9V20.69H27.69V11.43L11.66,14.59l-.1,8.02-.07,5.35v.06a3.318,3.318,0,0,1-.12.82,5.5,5.5,0,0,1-3.26,3.28c-2.49,1.04-5.14.4-5.89-1.41-.76-1.83.66-4.14,3.17-5.18a5.766,5.766,0,0,1,3.68-.33L9.29,8.07Z"/></svg>