<svg xmlns="http://www.w3.org/2000/svg" viewBox="0 0 36.8 36.8"><defs><style>.a{fill:#4d4d4d;}</style></defs><title>cassette</title><path class="a" d="M31.43,9H5.37A2.97,2.97,0,0,0,2.4,11.97V26.03A2.97,2.97,0,0,0,5.37,29h.86a3.5,3.5,0,0,1,.07-.65l.88-4.42a3.152,3.152,0,0,1,3.1-2.55H26.52a3.135,3.135,0,0,1,3.09,2.53l.88,4.4a3.247,3.247,0,0,1,.08.69h.86a2.97,2.97,0,0,0,2.97-2.97V11.97A2.97,2.97,0,0,0,31.43,9ZM11.4,18a2,2,0,1,1,2-2A2.006,2.006,0,0,1,11.4,18Zm14,0a2,2,0,1,1,2-2A2.006,2.006,0,0,1,25.4,18Z"/><path class="a" d="M28.56,29a1.148,1.148,0,0,1-1.15,1.12H9.39A1.148,1.148,0,0,1,8.24,29a.763.763,0,0,1,.02-.26l.89-4.44a1.148,1.148,0,0,1,1.13-.92H26.52a1.148,1.148,0,0,1,1.13.92l.89,4.44A.763.763,0,0,1,28.56,29Z"/></svg>