<svg xmlns="http://www.w3.org/2000/svg" viewBox="0 0 36.8 36.8"><defs><style>.a{fill:#4d4d4d;}</style></defs><title>cd</title><path class="a" d="M29.371,25.281h-1.5a.5.5,0,0,0-.5.5v5.985a.5.5,0,0,0,.5.5h1.5c2.755,0,3.99-1.563,3.99-3.49S32.126,25.281,29.371,25.281Zm0,5.236V27.026c1.594,0,2,.815,2,1.746S30.965,30.517,29.371,30.517Zm-5.059-1.041a.368.368,0,0,1,.33-.206h1.232a.369.369,0,0,1,.354.47,3.491,3.491,0,1,1,0-1.937.369.369,0,0,1-.354.47H24.642a.369.369,0,0,1-.33-.2,1.6,1.6,0,1,0,0,1.408ZM15.408,18.3a1.995,1.995,0,1,1,1.995,2A1.994,1.994,0,0,1,15.408,18.3ZM18.4,32.212c-.331.023-.66.05-1,.05A14,14,0,1,1,30,24.283H27.868A12.059,12.059,0,1,0,17.4,30.367c.337,0,.668-.023,1-.051Zm-1-8.926A4.987,4.987,0,1,0,12.416,18.3,4.987,4.987,0,0,0,17.4,23.286Zm0-8.578A3.591,3.591,0,1,1,13.812,18.3,3.59,3.59,0,0,1,17.4,14.708Zm9.03-2.071L22.48,14.613a6.307,6.307,0,0,0-1.391-1.391l1.976-3.953A10.733,10.733,0,0,1,26.433,12.637ZM12.325,21.985a6.324,6.324,0,0,0,1.391,1.39l-1.975,3.954a10.723,10.723,0,0,1-3.368-3.368Z"/></svg>