<svg xmlns="http://www.w3.org/2000/svg" viewBox="0 0 36.8 36.8"><defs><style>.a{fill:#4d4d4d;}.b{fill:#fff;}</style></defs><title>cdaudiobook</title><path class="a" d="M33.06,10.18V8.78a11.472,11.472,0,0,0-7.33-2.79A11.472,11.472,0,0,0,18.4,8.78a11.472,11.472,0,0,0-7.33-2.79A11.472,11.472,0,0,0,3.74,8.78v1.4a1.4,1.4,0,0,0-1.4,1.39V29.73a1.4,1.4,0,0,0,1.4,1.39H17.77a9.587,9.587,0,0,1-1.51-3.6,4.048,4.048,0,0,1-.09-.48,2.9,2.9,0,0,1-.06-.41,12.145,12.145,0,0,0-5.04-1.11,12.554,12.554,0,0,0-5.94,1.55V9.28a9.979,9.979,0,0,1,5.94-2.07,10.147,10.147,0,0,1,6.37,2.43l.26.25V20.06a10.6,10.6,0,0,1,1.4-1.67V9.89l.26-.25a9.987,9.987,0,0,1,6.37-2.43,10.162,10.162,0,0,1,5.94,2.07v8.18a9.834,9.834,0,0,1,2.79,2.99V11.57A1.4,1.4,0,0,0,33.06,10.18Z"/><path class="b" d="M31.66,18.97l.01.01v-.01Zm-5.71-2.14a8.666,8.666,0,0,0-4.15,1.05,8.814,8.814,0,0,1,4.16-1.04,9.149,9.149,0,0,1,1.97.22A8.65,8.65,0,0,0,25.95,16.83Z"/><path class="b" d="M25.95,16.83a8.666,8.666,0,0,0-4.15,1.05,8.814,8.814,0,0,1,4.16-1.04,9.149,9.149,0,0,1,1.97.22A8.65,8.65,0,0,0,25.95,16.83Zm.52,17.41h.11v-.01C26.54,34.23,26.51,34.24,26.47,34.24Zm5.19-15.27.01.01v-.01Z"/><path class="a" d="M26.47,34.24h.11v-.01C26.54,34.23,26.51,34.24,26.47,34.24Z"/><path class="a" d="M32.64,31.12c-.08.1-.16.19-.24.29a3.467,3.467,0,0,0,.25-.29Z"/><path class="a" d="M34.65,25.09q-.03-.45-.09-.87c-.03-.18-.06-.35-.1-.51.01-.01.01-.01,0-.01-.05-.26-.12-.5-.19-.75-.04-.13-.09-.27-.14-.4q-.15-.4-.33-.78a8.478,8.478,0,0,0-.63-1.1,8.2,8.2,0,0,0-.77-.99c-.1-.1-.19-.2-.29-.29l-.01-.01c-.09-.09-.19-.18-.28-.28l-.15-.12-.01-.01c-.08-.07-.16-.14-.25-.21s-.16-.13-.24-.19c-.11-.09-.23-.17-.35-.25-.22-.15-.46-.29-.7-.43-.01,0-.01,0-.02-.01q-.36-.195-.75-.36a.01.01,0,0,1-.01-.01c-.26-.1-.52-.2-.79-.28-.21-.06-.41-.12-.62-.17a9.149,9.149,0,0,0-1.97-.22,8.814,8.814,0,0,0-4.16,1.04c0,.01-.02.01-.02.01-.24.14-.48.28-.7.43-.24.16-.46.33-.68.51-.11.09-.22.18-.32.27s-.2.19-.29.29a6.413,6.413,0,0,0-.69.78c-.1.12-.19.25-.28.38a7.111,7.111,0,0,0-.72,1.22q-.18.375-.33.78a1.587,1.587,0,0,0-.07.2c-.03.07-.05.14-.07.2-.08.28-.15.55-.21.84-.03.14-.06.28-.08.43q-.06.42-.09.87c-.01.15-.01.3-.01.45s0,.3.01.45c.02.3.05.59.09.88.02.15.05.3.08.44.06.28.13.55.21.82.04.14.09.28.14.42.1.26.21.52.33.77.06.12.12.25.19.38s.13.25.21.37c.15.24.31.47.47.69a2.538,2.538,0,0,0,.29.36c.11.13.22.26.34.39a8.552,8.552,0,0,0,1.14,1.02l.33.24c.12.08.24.15.36.23a7.579,7.579,0,0,0,.74.4q.39.18.78.33c.14.05.27.1.41.14a6.494,6.494,0,0,0,.76.19,4.865,4.865,0,0,0,.55.11c.26.03.53.06.8.08.16.01.33.01.49.01h.02c.17,0,.33-.01.49-.02.04,0,.07-.01.11-.01a5.61,5.61,0,0,0,.59-.06l.54-.09a4.607,4.607,0,0,0,.64-.16c.13-.03.25-.07.37-.11a2.094,2.094,0,0,0,.23-.08c.23-.09.46-.18.69-.29a7.189,7.189,0,0,0,1.18-.67c.12-.08.23-.16.34-.24.17-.13.34-.26.5-.39s.3-.28.45-.43c.1-.1.19-.2.29-.3.08-.1.16-.19.24-.29h.01c.01-.01.02-.02.02-.03.18-.22.34-.44.5-.67a3.611,3.611,0,0,0,.23-.36l.21-.36c.07-.13.14-.27.21-.41v-.02a6.287,6.287,0,0,0,.3-.71,1.349,1.349,0,0,0,.08-.24,2.172,2.172,0,0,0,.12-.36l.06-.24a1.948,1.948,0,0,0,.06-.23.235.235,0,0,0,.02-.08c0-.01.01-.02,0-.03a2.475,2.475,0,0,0,.06-.29,5.933,5.933,0,0,0,.1-.72,7.446,7.446,0,0,0,.04-.83C34.66,25.39,34.66,25.24,34.65,25.09ZM22.23,31.12l-.35.7a7.4,7.4,0,0,1-.89-.7,6.993,6.993,0,0,1-1.31-1.5l2.83-1.42a3.7,3.7,0,0,0,.79.79ZM29.08,26a3.161,3.161,0,0,1-5.64,1.48,3.073,3.073,0,0,1-.64-1.59c-.01-.12-.02-.23-.02-.35a3.17,3.17,0,0,1,6.34,0A2.316,2.316,0,0,1,29.08,26Zm2.59-4.25L29.4,22.88a4.8,4.8,0,0,0-.78-.78l1.4-2.82a7.466,7.466,0,0,1,1.65,1.47,6.636,6.636,0,0,1,.55.73Z"/><path class="a" d="M25.96,23.12a2.426,2.426,0,0,0-2.44,2.42,1.21,1.21,0,0,0,.01.19,2.431,2.431,0,0,0,4.84.09c0-.09.01-.19.01-.28A2.416,2.416,0,0,0,25.96,23.12Zm1.29,2.5a1.3,1.3,0,0,1-2.6-.05v-.03a1.305,1.305,0,0,1,2.61,0A.22.22,0,0,1,27.25,25.62Z"/></svg>