<svg xmlns="http://www.w3.org/2000/svg" viewBox="0 0 36.8 36.8"><defs><style>.a,.c{fill:#4d4d4d;}.b{fill:#fff;}.c{opacity:0.64;}</style></defs><title>cdmusic</title><path class="a" d="M30.64,17.77V4.02L9.79,8.19,9.57,25.31a5.9,5.9,0,0,0-3.68.33C3.38,26.69,1.96,29,2.72,30.82s3.4,2.46,5.89,1.42a5.478,5.478,0,0,0,3.25-3.28,2.922,2.922,0,0,0,.13-.82v-.06l.17-13.37,16.03-3.17v4.8a9.458,9.458,0,0,0-3.57-.69,9.645,9.645,0,0,0,0,19.29c.13,0,.26-.01.39-.02a2.661,2.661,0,0,0,.3-.02,9.632,9.632,0,0,0,8.58-6.94,2.5,2.5,0,0,0,.07-.26c.07-.25.12-.51.17-.76v-.03c.03-.17.06-.35.08-.52.01-.12.02-.23.03-.34a2.462,2.462,0,0,0,.02-.26c0-.16.01-.33.01-.5A9.587,9.587,0,0,0,30.64,17.77ZM24.62,33.59a8.3,8.3,0,1,1,0-16.59,8.236,8.236,0,0,1,3.57.81,7.84,7.84,0,0,1,.9.49,7.942,7.942,0,0,1,1.55,1.28,6.3,6.3,0,0,1,.48.55,7.344,7.344,0,0,1,.6.86,8.3,8.3,0,0,1-7.1,12.6Z"/><path class="a" d="M26,25.29a1.375,1.375,0,1,1-2.75,0,1.375,1.375,0,0,1,2.75,0Z"/><path class="b" d="M24.62,23.92a1.375,1.375,0,0,0,0,2.75,1.375,1.375,0,1,0,0-2.75Zm0,0a1.375,1.375,0,0,0,0,2.75,1.375,1.375,0,1,0,0-2.75Zm0,0a1.375,1.375,0,0,0,0,2.75,1.375,1.375,0,1,0,0-2.75Zm0,0a1.375,1.375,0,0,0,0,2.75,1.375,1.375,0,1,0,0-2.75Zm0,0a1.375,1.375,0,0,0,0,2.75,1.375,1.375,0,1,0,0-2.75Zm0,0a1.375,1.375,0,0,0,0,2.75,1.375,1.375,0,1,0,0-2.75Zm0,0a1.375,1.375,0,0,0,0,2.75,1.375,1.375,0,1,0,0-2.75Zm0,0a1.375,1.375,0,0,0,0,2.75,1.375,1.375,0,1,0,0-2.75Zm0,0a1.375,1.375,0,0,0,0,2.75,1.375,1.375,0,1,0,0-2.75Zm0,0a1.375,1.375,0,0,0,0,2.75,1.375,1.375,0,1,0,0-2.75Zm0,0a1.375,1.375,0,0,0,0,2.75,1.375,1.375,0,1,0,0-2.75Zm0,0a1.375,1.375,0,0,0,0,2.75,1.375,1.375,0,1,0,0-2.75Zm0,0a1.375,1.375,0,0,0,0,2.75,1.375,1.375,0,1,0,0-2.75Zm0,0a1.375,1.375,0,0,0,0,2.75,1.375,1.375,0,1,0,0-2.75Zm0,0a1.375,1.375,0,0,0,0,2.75,1.375,1.375,0,1,0,0-2.75Zm0,0a1.375,1.375,0,0,0,0,2.75,1.375,1.375,0,1,0,0-2.75Zm0,0a1.375,1.375,0,0,0,0,2.75,1.375,1.375,0,1,0,0-2.75Zm0,0a1.375,1.375,0,0,0,0,2.75,1.375,1.375,0,1,0,0-2.75Zm0,0a1.375,1.375,0,0,0,0,2.75,1.375,1.375,0,1,0,0-2.75Zm0,0a1.375,1.375,0,0,0,0,2.75,1.375,1.375,0,1,0,0-2.75Zm0,0a1.375,1.375,0,0,0,0,2.75,1.375,1.375,0,1,0,0-2.75Zm0,0a1.375,1.375,0,0,0,0,2.75,1.375,1.375,0,1,0,0-2.75Zm0,0a1.375,1.375,0,0,0,0,2.75,1.375,1.375,0,1,0,0-2.75Zm0,0a1.375,1.375,0,0,0,0,2.75,1.375,1.375,0,1,0,0-2.75Zm0,0a1.375,1.375,0,0,0,0,2.75,1.375,1.375,0,1,0,0-2.75Zm0,0a1.375,1.375,0,0,0,0,2.75,1.375,1.375,0,1,0,0-2.75Zm0,0a1.375,1.375,0,0,0,0,2.75,1.375,1.375,0,1,0,0-2.75Zm0,0a1.375,1.375,0,0,0,0,2.75,1.375,1.375,0,1,0,0-2.75Zm0,0a1.375,1.375,0,0,0,0,2.75,1.375,1.375,0,1,0,0-2.75Zm0,0a1.375,1.375,0,0,0,0,2.75,1.375,1.375,0,1,0,0-2.75Zm0,0a1.375,1.375,0,0,0,0,2.75,1.375,1.375,0,1,0,0-2.75Zm0,0a1.375,1.375,0,0,0,0,2.75,1.375,1.375,0,1,0,0-2.75Zm0,0a1.375,1.375,0,0,0,0,2.75,1.375,1.375,0,1,0,0-2.75Zm0,0a1.375,1.375,0,0,0,0,2.75,1.375,1.375,0,1,0,0-2.75Zm0,0a1.375,1.375,0,0,0,0,2.75,1.375,1.375,0,1,0,0-2.75Zm0,0a1.375,1.375,0,0,0,0,2.75,1.375,1.375,0,1,0,0-2.75Zm0,0a1.375,1.375,0,0,0,0,2.75,1.375,1.375,0,1,0,0-2.75Zm0,0a1.375,1.375,0,0,0,0,2.75,1.375,1.375,0,1,0,0-2.75Zm0,0a1.375,1.375,0,0,0,0,2.75,1.375,1.375,0,1,0,0-2.75Zm0,0a1.375,1.375,0,0,0,0,2.75,1.375,1.375,0,1,0,0-2.75Zm0,0a1.375,1.375,0,0,0,0,2.75,1.375,1.375,0,1,0,0-2.75Zm0,0a1.375,1.375,0,0,0,0,2.75,1.375,1.375,0,1,0,0-2.75Zm0,0a1.375,1.375,0,0,0,0,2.75,1.375,1.375,0,1,0,0-2.75Zm0,0a1.375,1.375,0,0,0,0,2.75,1.375,1.375,0,1,0,0-2.75Zm0,0a1.375,1.375,0,0,0,0,2.75,1.375,1.375,0,1,0,0-2.75Zm0,0a1.375,1.375,0,0,0,0,2.75,1.375,1.375,0,1,0,0-2.75Zm0,0a1.375,1.375,0,0,0,0,2.75,1.375,1.375,0,1,0,0-2.75Zm0,0a1.375,1.375,0,0,0,0,2.75,1.375,1.375,0,1,0,0-2.75Zm0,0a1.375,1.375,0,0,0,0,2.75,1.375,1.375,0,1,0,0-2.75Zm0,0a1.375,1.375,0,0,0,0,2.75,1.375,1.375,0,1,0,0-2.75Zm0,0a1.375,1.375,0,0,0,0,2.75,1.375,1.375,0,1,0,0-2.75Zm0,0a1.375,1.375,0,0,0,0,2.75,1.375,1.375,0,1,0,0-2.75Zm0,0a1.375,1.375,0,0,0,0,2.75,1.375,1.375,0,1,0,0-2.75Zm0,0a1.375,1.375,0,0,0,0,2.75,1.375,1.375,0,1,0,0-2.75Zm0,0a1.375,1.375,0,0,0,0,2.75,1.375,1.375,0,1,0,0-2.75Zm0,0a1.375,1.375,0,0,0,0,2.75,1.375,1.375,0,1,0,0-2.75Zm0,0a1.375,1.375,0,0,0,0,2.75,1.375,1.375,0,1,0,0-2.75Zm0,0a1.375,1.375,0,0,0,0,2.75,1.375,1.375,0,1,0,0-2.75Zm0,0a1.375,1.375,0,0,0,0,2.75,1.375,1.375,0,1,0,0-2.75Zm0,0a1.375,1.375,0,0,0,0,2.75,1.375,1.375,0,1,0,0-2.75Zm0,0a1.375,1.375,0,0,0,0,2.75,1.375,1.375,0,1,0,0-2.75Zm0,0a1.375,1.375,0,0,0,0,2.75,1.375,1.375,0,1,0,0-2.75Zm0,0a1.375,1.375,0,0,0,0,2.75,1.375,1.375,0,1,0,0-2.75Zm0,0a1.375,1.375,0,0,0,0,2.75,1.375,1.375,0,1,0,0-2.75Zm0,0a1.375,1.375,0,0,0,0,2.75,1.375,1.375,0,1,0,0-2.75Zm0,0a1.375,1.375,0,0,0,0,2.75,1.375,1.375,0,1,0,0-2.75Zm0,0a1.375,1.375,0,0,0,0,2.75,1.375,1.375,0,1,0,0-2.75Zm0,0a1.375,1.375,0,0,0,0,2.75,1.375,1.375,0,1,0,0-2.75Zm0,0a1.375,1.375,0,0,0,0,2.75,1.375,1.375,0,1,0,0-2.75Zm0,0a1.375,1.375,0,0,0,0,2.75,1.375,1.375,0,1,0,0-2.75Zm0,0a1.375,1.375,0,0,0,0,2.75,1.375,1.375,0,1,0,0-2.75Z"/><path class="c" d="M26,25.29a1.375,1.375,0,1,1-2.75,0,1.375,1.375,0,0,1,2.75,0Z"/><path class="a" d="M24.62,23.92a1.375,1.375,0,0,0,0,2.75,1.375,1.375,0,1,0,0-2.75Zm0,0a1.375,1.375,0,0,0,0,2.75,1.375,1.375,0,1,0,0-2.75Zm0,0a1.375,1.375,0,0,0,0,2.75,1.375,1.375,0,1,0,0-2.75Zm0,0a1.375,1.375,0,0,0,0,2.75,1.375,1.375,0,1,0,0-2.75Zm0,0a1.375,1.375,0,0,0,0,2.75,1.375,1.375,0,1,0,0-2.75Zm0,0a1.375,1.375,0,0,0,0,2.75,1.375,1.375,0,1,0,0-2.75Zm0,0a1.375,1.375,0,0,0,0,2.75,1.375,1.375,0,1,0,0-2.75Zm0,0a1.375,1.375,0,0,0,0,2.75,1.375,1.375,0,1,0,0-2.75Zm0,0a1.375,1.375,0,0,0,0,2.75,1.375,1.375,0,1,0,0-2.75Zm0,0a1.375,1.375,0,0,0,0,2.75,1.375,1.375,0,1,0,0-2.75Zm0,0a1.375,1.375,0,0,0,0,2.75,1.375,1.375,0,1,0,0-2.75Zm0,0a1.375,1.375,0,0,0,0,2.75,1.375,1.375,0,1,0,0-2.75Zm0,0a1.375,1.375,0,0,0,0,2.75,1.375,1.375,0,1,0,0-2.75Zm0,0a1.375,1.375,0,0,0,0,2.75,1.375,1.375,0,1,0,0-2.75Zm0,0a1.375,1.375,0,0,0,0,2.75,1.375,1.375,0,1,0,0-2.75Zm0,0a1.375,1.375,0,0,0,0,2.75,1.375,1.375,0,1,0,0-2.75Zm0,0a1.375,1.375,0,0,0,0,2.75,1.375,1.375,0,1,0,0-2.75Zm0,0a1.375,1.375,0,0,0,0,2.75,1.375,1.375,0,1,0,0-2.75Zm0,0a1.375,1.375,0,0,0,0,2.75,1.375,1.375,0,1,0,0-2.75Zm0,0a1.375,1.375,0,0,0,0,2.75,1.375,1.375,0,1,0,0-2.75Zm0,0a1.375,1.375,0,0,0,0,2.75,1.375,1.375,0,1,0,0-2.75Zm0,0a1.375,1.375,0,0,0,0,2.75,1.375,1.375,0,1,0,0-2.75Zm0,0a1.375,1.375,0,0,0,0,2.75,1.375,1.375,0,1,0,0-2.75Zm0,0a1.375,1.375,0,0,0,0,2.75,1.375,1.375,0,1,0,0-2.75Zm0,0a1.375,1.375,0,0,0,0,2.75,1.375,1.375,0,1,0,0-2.75Zm0,0a1.375,1.375,0,0,0,0,2.75,1.375,1.375,0,1,0,0-2.75Zm0,0a1.375,1.375,0,0,0,0,2.75,1.375,1.375,0,1,0,0-2.75Zm0,0a1.375,1.375,0,0,0,0,2.75,1.375,1.375,0,1,0,0-2.75Zm0,0a1.375,1.375,0,0,0,0,2.75,1.375,1.375,0,1,0,0-2.75Zm0,0a1.375,1.375,0,0,0,0,2.75,1.375,1.375,0,1,0,0-2.75Zm0,0a1.375,1.375,0,0,0,0,2.75,1.375,1.375,0,1,0,0-2.75Zm0,0a1.375,1.375,0,0,0,0,2.75,1.375,1.375,0,1,0,0-2.75Zm0,0a1.375,1.375,0,0,0,0,2.75,1.375,1.375,0,1,0,0-2.75Zm0,0a1.375,1.375,0,0,0,0,2.75,1.375,1.375,0,1,0,0-2.75Zm0,0a1.375,1.375,0,0,0,0,2.75,1.375,1.375,0,1,0,0-2.75Zm0,0a1.375,1.375,0,0,0,0,2.75,1.375,1.375,0,1,0,0-2.75Zm0,0a1.375,1.375,0,0,0,0,2.75,1.375,1.375,0,1,0,0-2.75Zm0,0a1.375,1.375,0,0,0,0,2.75,1.375,1.375,0,1,0,0-2.75Zm0,0a1.375,1.375,0,0,0,0,2.75,1.375,1.375,0,1,0,0-2.75Zm0,0a1.375,1.375,0,0,0,0,2.75,1.375,1.375,0,1,0,0-2.75Zm0,0a1.375,1.375,0,0,0,0,2.75,1.375,1.375,0,1,0,0-2.75Zm0,0a1.375,1.375,0,0,0,0,2.75,1.375,1.375,0,1,0,0-2.75Zm0,0a1.375,1.375,0,0,0,0,2.75,1.375,1.375,0,1,0,0-2.75Zm0,0a1.375,1.375,0,0,0,0,2.75,1.375,1.375,0,1,0,0-2.75Zm0,0a1.375,1.375,0,0,0,0,2.75,1.375,1.375,0,1,0,0-2.75Zm0,0a1.375,1.375,0,0,0,0,2.75,1.375,1.375,0,1,0,0-2.75Zm0,0a1.375,1.375,0,0,0,0,2.75,1.375,1.375,0,1,0,0-2.75Zm0,0a1.375,1.375,0,0,0,0,2.75,1.375,1.375,0,1,0,0-2.75Zm0,0a1.375,1.375,0,0,0,0,2.75,1.375,1.375,0,1,0,0-2.75Zm0,0a1.375,1.375,0,0,0,0,2.75,1.375,1.375,0,1,0,0-2.75Zm0,0a1.375,1.375,0,0,0,0,2.75,1.375,1.375,0,1,0,0-2.75Zm0,0a1.375,1.375,0,0,0,0,2.75,1.375,1.375,0,1,0,0-2.75Zm0,0a1.375,1.375,0,0,0,0,2.75,1.375,1.375,0,1,0,0-2.75Zm0,0a1.375,1.375,0,0,0,0,2.75,1.375,1.375,0,1,0,0-2.75Zm0,0a1.375,1.375,0,0,0,0,2.75,1.375,1.375,0,1,0,0-2.75Zm0,0a1.375,1.375,0,0,0,0,2.75,1.375,1.375,0,1,0,0-2.75Zm0,0a1.375,1.375,0,0,0,0,2.75,1.375,1.375,0,1,0,0-2.75Zm0,0a1.375,1.375,0,0,0,0,2.75,1.375,1.375,0,1,0,0-2.75Zm0,0a1.375,1.375,0,0,0,0,2.75,1.375,1.375,0,1,0,0-2.75Zm0,0a1.375,1.375,0,0,0,0,2.75,1.375,1.375,0,1,0,0-2.75Zm0,0a1.375,1.375,0,0,0,0,2.75,1.375,1.375,0,1,0,0-2.75Zm0,0a1.375,1.375,0,0,0,0,2.75,1.375,1.375,0,1,0,0-2.75Zm0,0a1.375,1.375,0,0,0,0,2.75,1.375,1.375,0,1,0,0-2.75Zm0,0a1.375,1.375,0,0,0,0,2.75,1.375,1.375,0,1,0,0-2.75Zm0,0a1.375,1.375,0,0,0,0,2.75,1.375,1.375,0,1,0,0-2.75Zm0,0a1.375,1.375,0,0,0,0,2.75,1.375,1.375,0,1,0,0-2.75Zm0,0a1.375,1.375,0,0,0,0,2.75,1.375,1.375,0,1,0,0-2.75Zm0,0a1.375,1.375,0,0,0,0,2.75,1.375,1.375,0,1,0,0-2.75Zm0,0a1.375,1.375,0,0,0,0,2.75,1.375,1.375,0,1,0,0-2.75Zm0,0a1.375,1.375,0,0,0,0,2.75,1.375,1.375,0,1,0,0-2.75Zm0,0a1.375,1.375,0,0,0,0,2.75,1.375,1.375,0,1,0,0-2.75Zm0,0a1.375,1.375,0,0,0,0,2.75,1.375,1.375,0,1,0,0-2.75Zm0,0a1.375,1.375,0,0,0,0,2.75,1.375,1.375,0,1,0,0-2.75Zm0,0a1.375,1.375,0,0,0,0,2.75,1.375,1.375,0,1,0,0-2.75Zm0,0a1.375,1.375,0,0,0,0,2.75,1.375,1.375,0,1,0,0-2.75Zm0,0a1.375,1.375,0,0,0,0,2.75,1.375,1.375,0,1,0,0-2.75Z"/><path class="b" d="M26,25.29a1.375,1.375,0,1,1-2.75,0,1.375,1.375,0,0,1,2.75,0Z"/><path class="a" d="M24.62,23.92a1.375,1.375,0,0,0,0,2.75,1.375,1.375,0,1,0,0-2.75Zm0,0a1.375,1.375,0,0,0,0,2.75,1.375,1.375,0,1,0,0-2.75Zm0,0a1.375,1.375,0,0,0,0,2.75,1.375,1.375,0,1,0,0-2.75Zm0,0a1.375,1.375,0,0,0,0,2.75,1.375,1.375,0,1,0,0-2.75Zm0,0a1.375,1.375,0,0,0,0,2.75,1.375,1.375,0,1,0,0-2.75Zm0,0a1.375,1.375,0,0,0,0,2.75,1.375,1.375,0,1,0,0-2.75Zm0,0a1.375,1.375,0,0,0,0,2.75,1.375,1.375,0,1,0,0-2.75Zm0,0a1.375,1.375,0,0,0,0,2.75,1.375,1.375,0,1,0,0-2.75Zm0,0a1.375,1.375,0,0,0,0,2.75,1.375,1.375,0,1,0,0-2.75Zm0,0a1.375,1.375,0,0,0,0,2.75,1.375,1.375,0,1,0,0-2.75Zm0,0a1.375,1.375,0,0,0,0,2.75,1.375,1.375,0,1,0,0-2.75Zm0,0a1.375,1.375,0,0,0,0,2.75,1.375,1.375,0,1,0,0-2.75Zm0,0a1.375,1.375,0,0,0,0,2.75,1.375,1.375,0,1,0,0-2.75Zm0,0a1.375,1.375,0,0,0,0,2.75,1.375,1.375,0,1,0,0-2.75Zm0,0a1.375,1.375,0,0,0,0,2.75,1.375,1.375,0,1,0,0-2.75Zm0,0a1.375,1.375,0,0,0,0,2.75,1.375,1.375,0,1,0,0-2.75Zm0,0a1.375,1.375,0,0,0,0,2.75,1.375,1.375,0,1,0,0-2.75Zm0,0a1.375,1.375,0,0,0,0,2.75,1.375,1.375,0,1,0,0-2.75Zm0,0a1.375,1.375,0,0,0,0,2.75,1.375,1.375,0,1,0,0-2.75Zm0,0a1.375,1.375,0,0,0,0,2.75,1.375,1.375,0,1,0,0-2.75Zm0,0a1.375,1.375,0,0,0,0,2.75,1.375,1.375,0,1,0,0-2.75Zm0,0a1.375,1.375,0,0,0,0,2.75,1.375,1.375,0,1,0,0-2.75Zm0,0a1.375,1.375,0,0,0,0,2.75,1.375,1.375,0,1,0,0-2.75Zm0,0a1.375,1.375,0,0,0,0,2.75,1.375,1.375,0,1,0,0-2.75Zm0,0a1.375,1.375,0,0,0,0,2.75,1.375,1.375,0,1,0,0-2.75Z"/><path class="a" d="M22.08,28.8l-.19.37-1.18,2.36a7.509,7.509,0,0,1-2.33-2.33l2.74-1.36a1.092,1.092,0,0,0,.13.17A4.154,4.154,0,0,0,22.08,28.8Z"/><path class="a" d="M27.06,22.86c-.05-.05-.11-.11-.17-.16a2.11,2.11,0,0,0-.23-.19,3.4,3.4,0,0,0-.52-.31l-.27-.12-.09-.03a2.759,2.759,0,0,0-.27-.08c-.12-.03-.25-.06-.37-.08l-.23-.03a2.81,2.81,0,0,0-.29-.01,3.44,3.44,0,0,0-3.44,3.44,3.285,3.285,0,0,0,.17,1.04,3.162,3.162,0,0,0,.42.89,3.444,3.444,0,1,0,5.29-4.36Zm-2.44,4.91a2.48,2.48,0,0,1-2.48-2.48,2.6,2.6,0,0,1,.03-.4,2.482,2.482,0,0,1,3.18-1.97h.01a2.482,2.482,0,0,1-.74,4.85Z"/><path class="a" d="M30.86,21.38l-.22.11-2.45,1.22-.06.03c-.07-.09-.14-.18-.21-.26a4.153,4.153,0,0,0-.75-.7l1.02-2.04.34-.68a7.441,7.441,0,0,1,1.85,1.64c.09.12.18.23.26.35S30.79,21.27,30.86,21.38Z"/></svg>