<svg xmlns="http://www.w3.org/2000/svg" viewBox="0 0 36.8 36.8"><defs><style>.a{fill:#4d4d4d;}</style></defs><title>eaudio</title><path class="a" d="M10.861,15.9v9.166a.988.988,0,0,0,1.976,0V15.9a.988.988,0,0,0-1.976,0Zm0,0"/><path class="a" d="M7.761,26.061H9.936V15.18a1.407,1.407,0,0,0,.015-.158,8.447,8.447,0,1,1,16.893,0,1.45,1.45,0,0,0,.021.21V26.061H29.04a2.791,2.791,0,0,0,2.742-2.837V17.549a2.826,2.826,0,0,0-1.98-2.724,11.405,11.405,0,0,0-22.809,0A2.823,2.823,0,0,0,5.018,17.55v5.674a2.792,2.792,0,0,0,2.743,2.837Zm0,0"/><path class="a" d="M23.965,15.9v9.166a.988.988,0,0,0,1.976,0V15.9a.988.988,0,0,0-1.976,0Zm0,0"/><polygon class="a" points="18.845 34.186 24.997 28.355 12.693 28.355 18.845 34.186"/></svg>