<svg xmlns="http://www.w3.org/2000/svg" viewBox="0 0 36.8 36.8"><defs><style>.a{fill:#4d4d4d;}</style></defs><title>ebook</title><path class="a" d="M27.993,3.278H8.806a3.282,3.282,0,0,0-3.2,3.357V31.677a3.282,3.282,0,0,0,3.2,3.357H27.993a3.282,3.282,0,0,0,3.2-3.357V6.635A3.282,3.282,0,0,0,27.993,3.278ZM18.4,34.017a1.085,1.085,0,1,1,1.085-1.085A1.085,1.085,0,0,1,18.4,34.017Zm10.345-3.192H8.055V9.787h0V5.726H28.744v25.1Z"/><rect class="a" x="10.241" y="10.522" width="16.316" height="1.313"/><rect class="a" x="10.241" y="13.147" width="16.316" height="1.313"/><rect class="a" x="10.241" y="15.772" width="16.316" height="1.313"/><rect class="a" x="10.241" y="18.398" width="10.122" height="1.313"/><rect class="a" x="10.241" y="22.071" width="16.316" height="1.313"/><rect class="a" x="10.241" y="24.696" width="16.316" height="1.313"/><rect class="a" x="10.241" y="27.321" width="16.316" height="1.313"/><rect class="a" x="10.241" y="7.895" width="16.316" height="1.313"/></svg>