<svg xmlns="http://www.w3.org/2000/svg" viewBox="0 0 36.8 36.8"><defs><style>.a{fill:#4d4d4d;}.b{fill:#666;}</style></defs><title>kit</title><polygon class="a" points="27.93 14.17 18.33 17.16 9.26 13.12 18.31 11.09 27.93 14.17"/><path class="b" d="M29.06,19.32l-.16,5.92L18.82,29.7V18.58L23.79,21a.465.465,0,0,0,.23.06.566.566,0,0,0,.18-.03Z"/><path class="b" d="M17.75,18.36V29.53L8.9,23.82l-.39-5.74,2.42,1.26a.542.542,0,0,0,.25.06.249.249,0,0,0,.08-.01Z"/><path class="a" d="M35.76,15.95l-5.14-1.99L34.31,9.9a.531.531,0,0,0,.12-.51.563.563,0,0,0-.38-.37L22.64,5.98a.567.567,0,0,0-.51.14L18.34,9.78,15.26,6.65a.516.516,0,0,0-.48-.15L4.58,8.44a.5.5,0,0,0-.39.32.516.516,0,0,0,.06.51l2.36,3.26-5.44.64a.53.53,0,0,0-.19,1L7.39,17.5l.46,6.66a.54.54,0,0,0,.24.42L18,30.97a.492.492,0,0,0,.5.04l11.14-4.93a.539.539,0,0,0,.32-.47l.18-6.67,5.61-1.99a.53.53,0,0,0,.01-1ZM22.66,7.09,32.93,9.83l-3.39,3.74L19.34,10.3ZM5.61,9.33,14.69,7.6l2.58,2.62L7.8,12.35Zm-2.59,4.7,4.47-.53,8.94,3.99-.65.1h-.03l-4.48.72L9.19,17.23Zm14.73,15.5L8.9,23.82l-.39-5.74,2.42,1.26a.542.542,0,0,0,.25.06.249.249,0,0,0,.08-.01l6.49-1.03Zm.58-12.37L9.26,13.12l9.05-2.03,9.62,3.08ZM28.9,25.24,18.82,29.7V18.58L23.79,21a.465.465,0,0,0,.23.06.566.566,0,0,0,.18-.03l4.86-1.71Zm.59-7.21c-.02.01-.04.01-.06.02l-1.15.4-4.23,1.49-4.3-2.1,9.93-3.09h.01l4.34,1.68Z"/><path class="a" d="M25.075,30.456a.509.509,0,0,1,1.017,0v1.551l1.874-1.861a.572.572,0,0,1,.429-.2.458.458,0,0,1,.469.469.51.51,0,0,1-.185.382l-1.3,1.215L28.8,33.8a.543.543,0,0,1,.138.357.491.491,0,0,1-.514.5.513.513,0,0,1-.429-.244l-1.32-1.73-.581.541v.924a.509.509,0,1,1-1.017,0Z"/><path class="a" d="M29.824,30.456a.508.508,0,1,1,1.016,0v3.683a.508.508,0,1,1-1.016,0Z"/><path class="a" d="M33.072,30.924H32.1a.469.469,0,1,1,0-.937h2.97a.469.469,0,1,1,0,.937h-.977v3.215a.509.509,0,1,1-1.017,0Z"/></svg>