<svg xmlns="http://www.w3.org/2000/svg" viewBox="0 0 36.8 36.8"><defs><style>.a{fill:#4d4d4d;}.b{fill:#fff;}</style></defs><title>lpbook</title><path class="a" d="M32.75,25.12a8.66,8.66,0,0,1-5.19,1.71,8.831,8.831,0,0,1-2.29-.3l-1.14,2.16.5.27-.1.18h8.53a1.4,1.4,0,0,0,1.4-1.39v-4.3A8.745,8.745,0,0,1,32.75,25.12ZM31.67,11.61v.01a.052.052,0,0,1,.04.02C31.69,11.62,31.68,11.61,31.67,11.61Zm0,0v.01a.052.052,0,0,1,.04.02C31.69,11.62,31.68,11.61,31.67,11.61Zm0,.01a.052.052,0,0,1,.04.02c-.02-.02-.03-.03-.04-.03Zm1.39-3.43V6.8A11.452,11.452,0,0,0,25.73,4,11.452,11.452,0,0,0,18.4,6.8,11.452,11.452,0,0,0,11.07,4,11.452,11.452,0,0,0,3.74,6.8V8.19a1.4,1.4,0,0,0-1.4,1.4V27.75a1.4,1.4,0,0,0,1.4,1.39H18.9l.82-1.55.5-.95.5.26,1.15-2.16c-.15-.13-.3-.26-.44-.4A12.941,12.941,0,0,0,19.1,25.5V20.38a2.437,2.437,0,0,1-.06-.26,7.443,7.443,0,0,1-.23-1.55,8.293,8.293,0,0,1,.08-1.79,8.618,8.618,0,0,1,.21-1.01V7.91l.26-.25a9.987,9.987,0,0,1,6.37-2.43A10.162,10.162,0,0,1,31.67,7.3v3.06a8.7,8.7,0,0,1,1.86,1.34,7.509,7.509,0,0,1,.93,1.02V9.59A1.4,1.4,0,0,0,33.06,8.19ZM17.7,25.5a12.591,12.591,0,0,0-6.63-1.96,12.439,12.439,0,0,0-5.94,1.55V7.29a10.054,10.054,0,0,1,5.94-2.06,10.147,10.147,0,0,1,6.37,2.43l.26.25ZM31.67,11.61v.01a.052.052,0,0,1,.04.02C31.69,11.62,31.68,11.61,31.67,11.61Zm0,0v.01a.052.052,0,0,1,.04.02C31.69,11.62,31.68,11.61,31.67,11.61Z"/><path class="a" d="M31.67,11.61v.01a.052.052,0,0,1,.04.02C31.69,11.62,31.68,11.61,31.67,11.61Z"/><path class="a" d="M34.46,14.77a6.756,6.756,0,0,0-.75-1.26c-.09-.13-.19-.25-.29-.37s-.2-.23-.31-.34-.21-.22-.33-.33c-.16-.15-.34-.3-.52-.44s-.36-.27-.55-.39a.052.052,0,0,0-.04-.02v-.01a7.731,7.731,0,0,0-4.14-1.2,7.5,7.5,0,0,0-3.48.84,7.9,7.9,0,0,0-1.07.66,7.687,7.687,0,0,0-3.1,6.62,8.541,8.541,0,0,0,.2,1.33,7.575,7.575,0,0,0,1.29,2.78,7.84,7.84,0,0,0,1.25,1.32,7.465,7.465,0,0,0,.63.48l-2.07,3.92-.51-.26-.55,1.04-2.16,4.09,2.49,1.32,2.72-5.14-.5-.26.01-.01,2.06-3.92a7.8,7.8,0,0,0,2.82.53,7.616,7.616,0,0,0,3.61-.91,4.994,4.994,0,0,0,.5-.29,4.27,4.27,0,0,0,.44-.3,7.585,7.585,0,0,0,2.35-2.86A7.679,7.679,0,0,0,34.46,14.77Zm-2.79,5.86a4.8,4.8,0,0,1-1.24,1.35,4.855,4.855,0,1,1,1.02-6.79c.08.11.15.22.22.33A4.85,4.85,0,0,1,31.67,20.63Z"/><path class="b" d="M31.67,11.61v.01a.052.052,0,0,1,.04.02C31.69,11.62,31.68,11.61,31.67,11.61Z"/></svg>