<svg xmlns="http://www.w3.org/2000/svg" viewBox="0 0 36.8 36.8"><defs><style>.a{fill:#4d4d4d;}</style></defs><title>map</title><path class="a" d="M1.821,15.434,6.759,31.71l7.095-4.173,8.207.417,5.461-5.008,8.868-.626L29.713,8.548,22.1,8.235l-5.112,4.277h0L15.552,12.3c-.18.266-.391.59-.617.947l1.83.267,1.568,4.771c-.134.184-.268.368-.4.552-.095.13-.189.261-.284.392l.524.52c.118-.161.235-.323.351-.484l.09-.124,2.537,7.72-7.558-.384-6.22,3.659L5.388,23.6c.209.071.43.142.661.211l.236-.693c-.429-.128-.823-.26-1.161-.388L3.05,15.891l4.227-2.669c-.207-.327-.4-.625-.569-.875Zm17.551,2.674c.165-.223.331-.444.5-.66l-.477-.576c-.1.128-.2.259-.3.39l-1.313-4L22.47,9.344l6.537.155,3.265,6.7q-.224-.158-.444-.307l-.367.635q.726.494,1.5,1.078l1.833,3.76-7.668.558-4.991,4.581Z"/><path class="a" d="M6.178,8.234A5.377,5.377,0,0,0,7.3,11.368c1.055,1.473,3.815,6.161,3.815,6.161s2.76-4.688,3.815-6.161a5.378,5.378,0,0,0,1.123-3.134,4.938,4.938,0,1,0-9.875,0Zm2.243-.382a2.694,2.694,0,1,1,2.694,2.661A2.678,2.678,0,0,1,8.421,7.852Z"/><path class="a" d="M13.783,24.28l-.189-.728a6.143,6.143,0,0,0,.929-.651l.519.516A6.638,6.638,0,0,1,13.783,24.28Z"/><path class="a" d="M8.946,24.5c-.41-.074-.823-.158-1.229-.252l.239-.7c.387.087.78.168,1.168.237Z"/><path class="a" d="M24.448,13.175l-.062.748a3.625,3.625,0,0,0-1.055.311l-.044.022-.392-.621c.041-.021.082-.042.123-.061A4.447,4.447,0,0,1,24.448,13.175Z"/><path class="a" d="M16.261,22.2l-.519-.515c.294-.334.583-.691.868-1.059l.523.518C16.847,21.511,16.557,21.866,16.261,22.2Z"/><path class="a" d="M21.474,14.609l.394.625a11.935,11.935,0,0,0-.876.869l-.47-.568A12.146,12.146,0,0,1,21.474,14.609Z"/><path class="a" d="M27.606,13.64l-.348.662a8.482,8.482,0,0,0-1.151-.31l.062-.741A9.216,9.216,0,0,1,27.606,13.64Z"/><path class="a" d="M11.941,24.037l.187.718c-.168.013-.346.02-.533.02-.293,0-.606-.016-.932-.043l.179-.717A8.637,8.637,0,0,0,11.941,24.037Z"/><path class="a" d="M30.374,14.969l-.367.636c-.4-.233-.784-.444-1.158-.63l.343-.651Q29.767,14.611,30.374,14.969Z"/></svg>