<svg xmlns="http://www.w3.org/2000/svg" viewBox="0 0 36.8 36.8"><defs><style>.a{fill:#4d4d4d;}</style></defs><title>map2</title><path class="a" d="M31.567,10.256q-.393-.633-.844-1.225a15.471,15.471,0,0,0-24.647,0q-.45.591-.844,1.225A15.46,15.46,0,0,0,5.142,26.4q.384.636.828,1.23a15.471,15.471,0,0,0,24.86,0q.443-.594.827-1.23a15.454,15.454,0,0,0-.09-16.141ZM17.862,32.415h0a4.274,4.274,0,0,1-1.394-.46,8.251,8.251,0,0,1-3.207-3.495,15.962,15.962,0,0,1-1.011-2.292,43.049,43.049,0,0,1,5.612-.427h0v6.674Zm0-14.912H11.019a23.953,23.953,0,0,1,.846-5.658,44.2,44.2,0,0,0,6,.47h0Zm0,1.793h0v5.011h0a44.366,44.366,0,0,0-6.044.477,24.043,24.043,0,0,1-.8-5.488Zm1.076,0h6.843a24.043,24.043,0,0,1-.8,5.488,44.364,44.364,0,0,0-6.043-.477Zm0-1.793V12.316a44.344,44.344,0,0,0,6-.471,23.9,23.9,0,0,1,.847,5.658Zm4.6-9.163a15.66,15.66,0,0,1,.951,2.123,43.038,43.038,0,0,1-5.551.418v-6.5a4.279,4.279,0,0,1,1.394.459A8.246,8.246,0,0,1,23.538,8.34ZM17.862,4.719v6.162h0a43.04,43.04,0,0,1-5.552-.418,15.66,15.66,0,0,1,.951-2.123,8.248,8.248,0,0,1,3.207-3.5,4.271,4.271,0,0,1,1.394-.459h0ZM18.938,32.08V25.741a43.047,43.047,0,0,1,5.611.427,15.962,15.962,0,0,1-1.011,2.292,8.243,8.243,0,0,1-3.206,3.495,4.3,4.3,0,0,1-1.394.46ZM24.483,7.826A11.782,11.782,0,0,0,22.8,5.435,13.74,13.74,0,0,1,28.864,9.58q-1.595.425-3.294.714A17.126,17.126,0,0,0,24.483,7.826ZM14,5.435a11.824,11.824,0,0,0-1.682,2.391,16.954,16.954,0,0,0-1.086,2.468C10.1,10.1,9,9.863,7.935,9.58A13.741,13.741,0,0,1,14,5.435Zm-3.2,6.238a25.145,25.145,0,0,0-.857,5.83h-5.2a13.609,13.609,0,0,1,2.269-6.691A37.965,37.965,0,0,0,10.8,11.673ZM9.942,19.3a25.248,25.248,0,0,0,.81,5.661,38.01,38.01,0,0,0-3.842.88A13.6,13.6,0,0,1,4.738,19.3Zm1.23,7.042a17.252,17.252,0,0,0,1.144,2.636A11.788,11.788,0,0,0,14,31.364a13.737,13.737,0,0,1-6.186-4.289Q9.438,26.637,11.172,26.338ZM22.8,31.364a11.774,11.774,0,0,0,1.681-2.39,17.154,17.154,0,0,0,1.144-2.636q1.733.3,3.36.737A13.739,13.739,0,0,1,22.8,31.364Zm3.246-6.407a25.191,25.191,0,0,0,.809-5.661h5.2a13.594,13.594,0,0,1-2.171,6.54A38.346,38.346,0,0,0,26.048,24.957Zm.809-7.454A25.092,25.092,0,0,0,26,11.673a38.092,38.092,0,0,0,3.792-.861A13.608,13.608,0,0,1,32.061,17.5Z"/></svg>