<svg xmlns="http://www.w3.org/2000/svg" viewBox="0 0 36.8 36.8"><defs><style>.a{fill:#4d4d4d;fill-rule:evenodd;}</style></defs><title>microform</title><path class="a" d="M16.9,5.231A13.243,13.243,0,1,1,3.655,18.474,13.242,13.242,0,0,1,16.9,5.231ZM16.51,17.056a1.476,1.476,0,1,1-1.044,1.808,1.476,1.476,0,0,1,1.044-1.808ZM6.839,13.6a3.121,3.121,0,1,1,1.448,4.169A3.121,3.121,0,0,1,6.839,13.6ZM18.377,7.4a3.121,3.121,0,1,1-3.506,2.68A3.121,3.121,0,0,1,18.377,7.4Zm9.472,8.841A3.121,3.121,0,1,1,24.166,13.8a3.12,3.12,0,0,1,3.683,2.433Zm-5.2,11.821a3.121,3.121,0,1,1,1.07-4.282,3.121,3.121,0,0,1-1.07,4.282ZM9.112,26.494a3.121,3.121,0,1,1,4.414-.066,3.121,3.121,0,0,1-4.414.066ZM14.75,15.875a.785.785,0,1,1,.554.963.785.785,0,0,1-.554-.963Zm4.1-.143a.786.786,0,1,1-.784.787.786.786,0,0,1,.784-.787Zm1.27,3.743a.786.786,0,1,1-.994-.5.787.787,0,0,1,.994.5Zm-3.043,2.376a.785.785,0,1,1,.124-1.1.786.786,0,0,1-.124,1.1Zm-3.384-2.3a.786.786,0,1,1,1.1-.173.787.787,0,0,1-1.1.173Zm7.594,12.168c5.484-.338,10.743-1.667,14.093-8.266l-3.812-2.111A17.231,17.231,0,0,1,21.284,31.716Z"/></svg>