<svg xmlns="http://www.w3.org/2000/svg" viewBox="0 0 36.8 36.8"><defs><style>.a{fill:#4d4d4d;}</style></defs><title>music</title><path class="a" d="M30.779,4.554V26.18a2.889,2.889,0,0,1-.123.847,5.4,5.4,0,0,1-3.24,3.289c-2.5,1.043-5.143.405-5.9-1.412s.663-4.136,3.167-5.179a5.886,5.886,0,0,1,3.645-.344v-11.3L12.3,15.244,12.123,28.61v.061a3.167,3.167,0,0,1-.123.823,5.467,5.467,0,0,1-3.252,3.277c-2.491,1.043-5.143.405-5.891-1.412s.662-4.136,3.166-5.179a5.828,5.828,0,0,1,3.682-.332L9.926,8.727Z"/></svg>