<svg xmlns="http://www.w3.org/2000/svg" viewBox="0 0 36.8 36.8"><defs><style>.a{fill:#4d4d4d;}.b{fill:#fff;}</style></defs><title>phono</title><path class="a" d="M19.12,18.4a.72.72,0,1,1-.72-.72A.717.717,0,0,1,19.12,18.4Z"/><path class="a" d="M18.4,2.9A15.5,15.5,0,1,0,33.9,18.4,15.5,15.5,0,0,0,18.4,2.9Zm0,20.63a5.13,5.13,0,1,1,5.13-5.13A5.134,5.134,0,0,1,18.4,23.53Z"/><path class="b" d="M19.12,18.4a.72.72,0,1,1-.72-.72A.717.717,0,0,1,19.12,18.4Z"/><path class="a" d="M19.12,18.4a.72.72,0,1,1-.72-.72A.717.717,0,0,1,19.12,18.4Z"/></svg>