<svg xmlns="http://www.w3.org/2000/svg" viewBox="0 0 36.8 36.8"><defs><style>.a{fill:#4d4d4d;}.b{fill:#fff;}</style></defs><title>phonospoken</title><path class="a" d="M33.06,10.18V8.78a11.472,11.472,0,0,0-7.33-2.79A11.472,11.472,0,0,0,18.4,8.78a11.472,11.472,0,0,0-7.33-2.79A11.472,11.472,0,0,0,3.74,8.78v1.4a1.4,1.4,0,0,0-1.4,1.39V29.73a1.4,1.4,0,0,0,1.4,1.39H18.36a9.317,9.317,0,0,1-1.43-3.57v-.03c-.03-.17-.06-.35-.08-.53a12.449,12.449,0,0,0-5.78-1.47,12.554,12.554,0,0,0-5.94,1.55V9.28a9.979,9.979,0,0,1,5.94-2.07,10.147,10.147,0,0,1,6.37,2.43l.26.25V21.86a9.515,9.515,0,0,1,.91-1.5c.15-.21.32-.41.49-.61V9.89l.26-.25a9.987,9.987,0,0,1,6.37-2.43,10.162,10.162,0,0,1,5.94,2.07v9.11a3.468,3.468,0,0,1,.37.3,8.81,8.81,0,0,1,1.36,1.37,8.643,8.643,0,0,1,.57.78,8.925,8.925,0,0,1,.49.85V11.57A1.4,1.4,0,0,0,33.06,10.18ZM26.34,25.54a2.773,2.773,0,0,0-.41-.01h-.01a.415.415,0,0,0-.23.38.435.435,0,0,0,.43.44.444.444,0,0,0,.44-.44A.421.421,0,0,0,26.34,25.54Z"/><path class="a" d="M34.46,23.28a8.446,8.446,0,0,0-1.05-2.18,5.959,5.959,0,0,0-.47-.65,8.606,8.606,0,0,0-1.27-1.29,3.269,3.269,0,0,0-.37-.28,8.719,8.719,0,0,0-12.2,1.83,8.813,8.813,0,0,0-1.4,2.87,8.514,8.514,0,0,0-.32,2.33,8.686,8.686,0,0,0,.12,1.45c0,.03.01.05.01.08a8.74,8.74,0,0,0,15.63,3.67,8.94,8.94,0,0,0,1.32-2.57,8.846,8.846,0,0,0,0-5.26ZM29.2,26.04a3.086,3.086,0,0,1-6.17-.13.22.22,0,0,1,.01-.08,3.085,3.085,0,0,1,6.17.08A.57.57,0,0,1,29.2,26.04Z"/><path class="a" d="M26.56,25.91a.444.444,0,0,1-.44.44.435.435,0,0,1-.43-.44.415.415,0,0,1,.23-.38h.01a.414.414,0,0,1,.19-.05.4.4,0,0,1,.22.06A.421.421,0,0,1,26.56,25.91Z"/><path class="b" d="M26.56,25.91a.444.444,0,0,1-.44.44.435.435,0,0,1-.43-.44.415.415,0,0,1,.23-.38h.01a.414.414,0,0,1,.19-.05.4.4,0,0,1,.22.06A.421.421,0,0,1,26.56,25.91Z"/><path class="a" d="M26.56,25.91a.444.444,0,0,1-.44.44.435.435,0,0,1-.43-.44.415.415,0,0,1,.23-.38h.01a.414.414,0,0,1,.19-.05.4.4,0,0,1,.22.06A.421.421,0,0,1,26.56,25.91Z"/></svg>