<svg xmlns="http://www.w3.org/2000/svg" viewBox="0 0 36.8 36.8"><defs><style>.a{fill:#4d4d4d;}.b{fill:#fff;}</style></defs><title>phonomusic</title><path class="a" d="M29.01,24.76V28.2a3.435,3.435,0,0,0-.44.09,4.548,4.548,0,0,0-.84.27,4.857,4.857,0,0,0-2.63,2.48,3.233,3.233,0,0,0-.31,1.48,14.06,14.06,0,0,1-2.58.9,2.175,2.175,0,0,0,.05-.5l.09-6.84Z"/><path class="a" d="M19.12,18.4a.72.72,0,1,1-.72-.72A.717.717,0,0,1,19.12,18.4Z"/><path class="a" d="M33.49,21.95V16.58l-1.79.36h-.01l-8.17,1.64a1.087,1.087,0,0,0,.01-.18,5.13,5.13,0,1,0-5.62,5.1l-.08,6.17a6.228,6.228,0,0,0-1.31.36,4.638,4.638,0,0,0-2.85,3.13A15.493,15.493,0,1,1,33.49,21.95Z"/><path class="b" d="M19.12,18.4a.72.72,0,1,1-.72-.72A.717.717,0,0,1,19.12,18.4Z"/><path class="a" d="M19.12,18.4a.72.72,0,1,1-.72-.72A.717.717,0,0,1,19.12,18.4Z"/><path class="a" d="M31.99,18.41V31.42a1.807,1.807,0,0,1-.08.51,3.267,3.267,0,0,1-1.95,1.98,3.882,3.882,0,0,1-1.45.3,2.167,2.167,0,0,1-2.1-1.15,1.75,1.75,0,0,1,.07-1.43,3.385,3.385,0,0,1,1.84-1.69,3.826,3.826,0,0,1,.63-.2,3.265,3.265,0,0,1,.81-.1,3.582,3.582,0,0,1,.75.09v-6.8l-9.64,1.91-.11,8.04v.04a2.07,2.07,0,0,1-.07.49,1.989,1.989,0,0,1-.13.34,3.489,3.489,0,0,1-1.83,1.63,3.66,3.66,0,0,1-1.45.3,2.136,2.136,0,0,1-2.09-1.15,1.667,1.667,0,0,1-.08-.99,3.166,3.166,0,0,1,1.98-2.12,3.882,3.882,0,0,1,1.45-.3,2.755,2.755,0,0,1,.77.1l.1-7.79.03-2.51,3.78-.75Z"/></svg>