<svg xmlns="http://www.w3.org/2000/svg" viewBox="0 0 36.8 36.8"><defs><style>.a{fill:#4d4d4d;}</style></defs><title>picture</title><path class="a" d="M32.581,5.918H4.219A1.039,1.039,0,0,0,3.18,6.957V31.291A1.04,1.04,0,0,0,4.219,32.33H32.581a1.04,1.04,0,0,0,1.039-1.039V6.957A1.039,1.039,0,0,0,32.581,5.918ZM32,30.3H4.8V7.534H32Z"/><path class="a" d="M24.707,18.452a.96.96,0,0,0-1.1-.013l-4.1,2.817-5.012-5.95a.957.957,0,0,0-1.451-.014l-7.32,6.033V29.37H31.079V21.616Z"/><circle class="a" cx="25.169" cy="11.451" r="2.213"/></svg>