<svg xmlns="http://www.w3.org/2000/svg" viewBox="0 0 36.8 36.8"><defs><style>.a{fill:#333;}.b{fill:#4d4d4d;}</style></defs><title>score2</title><rect class="a" x="7.738" y="12.107" width="23.23" height="0.78"/><polygon class="a" points="18.338 16.107 18.328 16.577 18.328 16.887 7.588 16.887 7.588 16.107 18.338 16.107"/><polygon class="a" points="18.278 20.107 18.268 20.887 7.428 20.887 7.428 20.107 18.278 20.107"/><polygon class="a" points="18.228 24.097 18.218 24.877 7.278 24.877 7.278 24.097 18.228 24.097"/><path class="a" d="M14.308,28.1a2.629,2.629,0,0,0-.15.78H7.128V28.1Z"/><path class="b" d="M9.6,2.837l-6.28,6.28v24.85h30.17V2.837Zm-.27,1.61.05,4.39H4.938Zm23.2,28.56H4.268V9.787h6.07l-.06-6h22.25Z"/><path class="b" d="M30.968,14.2v12.39a1.594,1.594,0,0,1-.07.48,2.534,2.534,0,0,1-.6,1.03,3.327,3.327,0,0,1-1.07.78c-.06.03-.12.05-.18.08a3.765,3.765,0,0,1-1.39.29,2.49,2.49,0,0,1-1.36-.37,1.651,1.651,0,0,1-.63-.73c-.01-.02-.01-.03-.02-.05-.38-1.04.42-2.33,1.83-2.92a3.609,3.609,0,0,1,1.37-.28,2.73,2.73,0,0,1,.72.09v-6.48l-8.07,1.6-1.11.22-.01.56-.04,3.21-.01.78-.04,3.1v.04a.22.22,0,0,1-.01.08,1.756,1.756,0,0,1-.06.39,2.138,2.138,0,0,1-.16.39,3.35,3.35,0,0,1-1.7,1.48,3.538,3.538,0,0,1-1.39.29,2.036,2.036,0,0,1-1.99-1.09,1.456,1.456,0,0,1-.11-.68,1.9,1.9,0,0,1,.21-.78,3.283,3.283,0,0,1,1.72-1.51,3.609,3.609,0,0,1,1.37-.28,2.807,2.807,0,0,1,.73.09l.02-1.52.01-.78.04-3.21.01-.78.05-3.22v-.3l2.4-.48Z"/></svg>