<svg xmlns="http://www.w3.org/2000/svg" viewBox="0 0 36.8 36.8"><defs><style>.a{fill:#4d4d4d;}.b{fill:#fff;}</style></defs><title>score</title><polygon class="a" points="32.13 7.93 27.13 8.93 3.53 8.93 3.53 7.93 32.13 7.93"/><polygon class="a" points="3.53 13.12 15.98 13.12 15.96 14.12 3.53 14.12 3.53 13.12"/><polygon class="a" points="3.53 18.31 15.91 18.31 15.89 19.31 3.53 19.31 3.53 18.31"/><polygon class="a" points="26.34 18.31 29.47 18.31 29.47 19.31 21.7 19.31 21.7 19.23 26.34 18.31"/><path class="a" d="M3.53,23.5H15.06a6.523,6.523,0,0,0-.7.25,7.014,7.014,0,0,0-1.35.75H3.53Z"/><path class="a" d="M25.76,23.5a5.083,5.083,0,0,0-.76,1H21.63l.01-1Z"/><path class="a" d="M31.47,23.5v.05a1.7,1.7,0,0,0-.24-.05Z"/><path class="a" d="M10.64,28.69a4.244,4.244,0,0,0,.15,1H3.53v-1Z"/><path class="a" d="M25.54,29.69h-4.6a4.416,4.416,0,0,0,.44-1h3.4A4.132,4.132,0,0,0,25.54,29.69Z"/><path class="a" d="M33.27,9.74V25.6a2.268,2.268,0,0,1-.09.62,3.943,3.943,0,0,1-2.38,2.41,1.15,1.15,0,0,1-.17.06,4.37,4.37,0,0,1-1.6.31,3.219,3.219,0,0,1-1.45-.31h-.01a2.356,2.356,0,0,1-.38-.22.555.555,0,0,1-.08-.06.392.392,0,0,1-.1-.08.927.927,0,0,1-.14-.14,1.74,1.74,0,0,1-.22-.27,1.962,1.962,0,0,1-.17-.32,2.769,2.769,0,0,1,1.13-3.1,4.786,4.786,0,0,1,1.19-.7,4.292,4.292,0,0,1,1.07-.3h1.36a1.7,1.7,0,0,1,.24.05V15.26L19.72,17.58l-.01.73-.01,1-.06,4.19-.01,1-.04,2.88v.04a2.571,2.571,0,0,1-.09.61,2.713,2.713,0,0,1-.29.66,3.819,3.819,0,0,1-.86,1,4.856,4.856,0,0,1-3.01,1.11,3.435,3.435,0,0,1-1.22-.21,2.3,2.3,0,0,1-.93-.6,1.74,1.74,0,0,1-.22-.27c-.01-.01-.01-.02-.02-.03a1.593,1.593,0,0,1-.15-.29,1.951,1.951,0,0,1-.14-.71,3.564,3.564,0,0,1,2.46-3.09,4.561,4.561,0,0,1,1.76-.37,3.56,3.56,0,0,1,.94.12l.01-.85.01-1,.06-4.19.01-1,.05-4.19.02-1V12.8Z"/><path class="a" d="M31.19,23.5H29.91a3.657,3.657,0,0,1,.65-.06A3.207,3.207,0,0,1,31.19,23.5Z"/><path class="b" d="M31.23,23.5a1.7,1.7,0,0,1,.24.05V23.5Zm0,0a1.7,1.7,0,0,1,.24.05V23.5Z"/></svg>