<svg xmlns="http://www.w3.org/2000/svg" viewBox="0 0 36.8 36.8"><defs><style>.a{fill:#4d4d4d;}</style></defs><title>serial</title><path class="a" d="M19.421,5.433,8.9,10.974a1.994,1.994,0,0,1-1.718.112L5.817,10.54l10.265-5.4V4.1L5.388,9.738a1.285,1.285,0,0,0-.655,1.122V25.766a1.993,1.993,0,0,0,1.253,1.852l.75.3a3,3,0,0,0,2.588-.172l.785-.412a2.047,2.047,0,0,1-.035-.233V12.192a1.288,1.288,0,0,1,.655-1.121l8.692-4.582Zm2.834,10.882a1.994,1.994,0,0,1-1.718.112l-1.368-.547,10.266-5.4V9.438L18.74,15.078a1.287,1.287,0,0,0-.655,1.121V31.107a2,2,0,0,0,1.253,1.852l.75.3a3,3,0,0,0,2.589-.172l10.1-5.3V10.774Zm9.183.217L24.762,20.12V17.45l6.676-3.589ZM26.1,8.1,15.579,13.645a2,2,0,0,1-1.718.112l-1.368-.546,10.266-5.4V6.768L12.064,12.409a1.286,1.286,0,0,0-.655,1.121V28.437a1.992,1.992,0,0,0,1.253,1.851l.75.3A3,3,0,0,0,16,30.416L16.785,30a2.03,2.03,0,0,1-.035-.232V14.863a1.289,1.289,0,0,1,.655-1.122L26.1,9.159Z"/></svg>