<svg xmlns="http://www.w3.org/2000/svg" viewBox="0 0 36.8 36.8"><defs><style>.a{fill:#4d4d4d;}.b{fill:#fff;}</style></defs><title>software</title><path class="a" d="M25.88,23.96a2.245,2.245,0,1,0,0,4.49A2.228,2.228,0,0,0,27.97,27V25.41A2.218,2.218,0,0,0,25.88,23.96Zm0,3.46a1.21,1.21,0,1,1,1.21-1.22A1.2,1.2,0,0,1,25.88,27.42Z"/><path class="a" d="M19.24,3.52H4.64V32.61H18.42a9.83,9.83,0,0,1,7.46-16.24,9.562,9.562,0,0,1,2.09.23V12.25A8.732,8.732,0,0,0,19.24,3.52ZM20.37,16.3,18.2,18.55l-2.34,2.42-1.08,1.12L13.7,20.97,9.2,16.3,6.75,13.76h4.54V6.69h6.99v7.07h4.54Z"/><polygon class="a" points="16.78 15.26 19.29 15.26 14.78 19.93 10.28 15.26 12.79 15.26 12.79 8.19 16.78 8.19 16.78 15.26"/><polygon class="a" points="19.29 15.26 14.78 19.93 10.28 15.26 12.79 15.26 12.79 8.19 16.78 8.19 16.78 15.26 19.29 15.26"/><path class="b" d="M27.97,25.41a2.218,2.218,0,0,0-2.09-1.45,2.245,2.245,0,1,0,0,4.49A2.228,2.228,0,0,0,27.97,27a2.146,2.146,0,0,0,.15-.8A2.058,2.058,0,0,0,27.97,25.41Zm-2.09,2.01a1.21,1.21,0,1,1,1.21-1.22A1.2,1.2,0,0,1,25.88,27.42Zm2.09-2.01a2.218,2.218,0,0,0-2.09-1.45,2.245,2.245,0,1,0,0,4.49A2.228,2.228,0,0,0,27.97,27a2.146,2.146,0,0,0,.15-.8A2.058,2.058,0,0,0,27.97,25.41Zm-2.09,2.01a1.21,1.21,0,1,1,1.21-1.22A1.2,1.2,0,0,1,25.88,27.42Zm2.09-2.01a2.218,2.218,0,0,0-2.09-1.45,2.245,2.245,0,1,0,0,4.49A2.228,2.228,0,0,0,27.97,27a2.146,2.146,0,0,0,.15-.8A2.058,2.058,0,0,0,27.97,25.41Zm-2.09,2.01a1.21,1.21,0,1,1,1.21-1.22A1.2,1.2,0,0,1,25.88,27.42Zm.29,6.82c.09,0,.19,0,.29-.01v-.01C26.36,34.23,26.26,34.24,26.17,34.24Zm1.8-8.83a2.218,2.218,0,0,0-2.09-1.45,2.245,2.245,0,1,0,0,4.49A2.228,2.228,0,0,0,27.97,27a2.146,2.146,0,0,0,.15-.8A2.058,2.058,0,0,0,27.97,25.41Zm-2.09,2.01a1.21,1.21,0,1,1,1.21-1.22A1.2,1.2,0,0,1,25.88,27.42Zm2.09-2.01a2.218,2.218,0,0,0-2.09-1.45,2.245,2.245,0,1,0,0,4.49A2.228,2.228,0,0,0,27.97,27a2.146,2.146,0,0,0,.15-.8A2.058,2.058,0,0,0,27.97,25.41Zm-2.09,2.01a1.21,1.21,0,1,1,1.21-1.22A1.2,1.2,0,0,1,25.88,27.42Z"/><path class="b" d="M27.97,25.41a2.218,2.218,0,0,0-2.09-1.45,2.245,2.245,0,1,0,0,4.49A2.228,2.228,0,0,0,27.97,27a2.146,2.146,0,0,0,.15-.8A2.058,2.058,0,0,0,27.97,25.41Zm-2.09,2.01a1.21,1.21,0,1,1,1.21-1.22A1.2,1.2,0,0,1,25.88,27.42Z"/><path class="b" d="M26.17,34.24c.09,0,.19,0,.29-.01v-.01C26.36,34.23,26.26,34.24,26.17,34.24Z"/><path class="a" d="M27.97,25.41a2.218,2.218,0,0,0-2.09-1.45,2.245,2.245,0,1,0,0,4.49A2.228,2.228,0,0,0,27.97,27a2.146,2.146,0,0,0,.15-.8A2.058,2.058,0,0,0,27.97,25.41Zm-2.09,2.01a1.21,1.21,0,1,1,1.21-1.22A1.2,1.2,0,0,1,25.88,27.42Z"/><path class="a" d="M27.97,25.41a2.218,2.218,0,0,0-2.09-1.45,2.245,2.245,0,1,0,0,4.49A2.228,2.228,0,0,0,27.97,27a2.146,2.146,0,0,0,.15-.8A2.058,2.058,0,0,0,27.97,25.41Zm-2.09,2.01a1.21,1.21,0,1,1,1.21-1.22A1.2,1.2,0,0,1,25.88,27.42Zm2.09-2.01a2.218,2.218,0,0,0-2.09-1.45,2.245,2.245,0,1,0,0,4.49A2.228,2.228,0,0,0,27.97,27a2.146,2.146,0,0,0,.15-.8A2.058,2.058,0,0,0,27.97,25.41Zm-2.09,2.01a1.21,1.21,0,1,1,1.21-1.22A1.2,1.2,0,0,1,25.88,27.42Z"/><path class="a" d="M26.17,34.24c.09,0,.19,0,.29-.01v-.01C26.36,34.23,26.26,34.24,26.17,34.24Z"/><path class="a" d="M32.69,21.93a8.094,8.094,0,0,0-2.35-2.42,7.859,7.859,0,0,0-2.37-1.08,8.429,8.429,0,0,0-2.09-.27,8.045,8.045,0,1,0,0,16.09,2.715,2.715,0,0,0,.29-.01c.09,0,.19-.01.29-.02a7.958,7.958,0,0,0,6.68-4.56v-.01a4.319,4.319,0,0,0,.28-.67.9.9,0,0,0,.08-.21,3.382,3.382,0,0,0,.11-.34c.04-.14.07-.29.11-.43.03-.12.05-.24.07-.37a3.725,3.725,0,0,0,.09-.67,6.339,6.339,0,0,0,.04-.76A7.983,7.983,0,0,0,32.69,21.93ZM22.12,31.99a7.012,7.012,0,0,1-2.03-2.03l2.61-1.3a4.2,4.2,0,0,0,.73.73Zm5.85-3.73a2.929,2.929,0,1,1-2.09-4.98,2.961,2.961,0,0,1,1.66.51,2.932,2.932,0,0,1,.43,4.47Zm1.1-4.51a5.037,5.037,0,0,0-.73-.73l1.29-2.6a7.012,7.012,0,0,1,2.03,2.03Z"/></svg>