<svg xmlns="http://www.w3.org/2000/svg" viewBox="0 0 36.8 36.8"><defs><style>.a{fill:#4d4d4d;}.b{fill:#ccc;}.c{fill:#666;}</style></defs><title>vhs</title><path class="a" d="M2.97,11.26v1.03H33.83V11.26Z"/><path class="a" d="M2.97,12.29V27.53H33.83V12.29Zm7.51,8.98a1.995,1.995,0,0,1,0-3.86Zm15.34,1.71H10.98V15.51H25.82Zm.5-5.62a2,2,0,0,1,0,3.96Z"/><path class="b" d="M9.81,23.08H7.18a1.9,1.9,0,0,1-1.89-1.89V17.48a1.9,1.9,0,0,1,1.89-1.89H9.81a3.921,3.921,0,0,0,0,7.49Z"/><path class="b" d="M10.48,17.41v3.86a1.995,1.995,0,0,1,0-3.86Z"/><path class="b" d="M28.06,19.34a1.99,1.99,0,0,1-1.74,1.98V17.36A1.983,1.983,0,0,1,28.06,19.34Z"/><path class="b" d="M31.51,17.48v3.71a1.9,1.9,0,0,1-1.89,1.89H27.13a3.921,3.921,0,0,0,0-7.49h2.49A1.9,1.9,0,0,1,31.51,17.48Z"/><rect class="c" x="2.97" y="9.27" width="30.86" height="3.02"/></svg>