<svg xmlns="http://www.w3.org/2000/svg" viewBox="0 0 20 19"><defs><style>.a{fill:#4d4d4d;}</style></defs><title>a_1</title><path class="a" d="M17.807,5.039V4.3a6.113,6.113,0,0,0-3.9-1.487A6.108,6.108,0,0,0,10,4.3,6.109,6.109,0,0,0,6.1,2.809,6.108,6.108,0,0,0,2.193,4.3v.743a.744.744,0,0,0-.743.744v9.665a.743.743,0,0,0,.743.743H17.807a.743.743,0,0,0,.743-.743V5.783A.744.744,0,0,0,17.807,5.039Zm-14.87,9V4.56A5.325,5.325,0,0,1,6.1,3.459,5.393,5.393,0,0,1,9.487,4.752l.141.135v9.366A6.693,6.693,0,0,0,6.1,13.206,6.624,6.624,0,0,0,2.937,14.034Zm14.126,0a6.462,6.462,0,0,0-6.691.219V4.887l.141-.135A5.31,5.31,0,0,1,13.9,3.459a5.38,5.38,0,0,1,3.16,1.1Z"/></svg>