<svg xmlns="http://www.w3.org/2000/svg" viewBox="0 0 20 19"><defs><style>.a{fill:#4d4d4d;}</style></defs><title>e_1</title><path class="a" d="M1.028,8.761l2.605,8.585,3.742-2.2,4.329.22,2.88-2.642,4.677-.33L15.739,5.129l-4.017-.165L9.026,7.22h0L8.27,7.11c-.095.14-.206.311-.325.5l.965.14.827,2.517-.211.291-.15.206.277.275.185-.256.047-.065,1.338,4.072-3.986-.2-3.28,1.93L2.91,13.067c.11.037.227.074.348.111l.125-.365c-.227-.068-.434-.137-.613-.205L1.677,9,3.906,7.6c-.109-.173-.211-.33-.3-.462Zm9.257,1.411q.13-.177.263-.348l-.251-.3c-.054.067-.106.136-.159.205L9.446,7.618l2.473-2.069,3.448.082,1.722,3.534L16.855,9l-.194.335q.383.26.789.568l.967,1.983-4.044.294L11.74,14.6Z"/><path class="a" d="M3.326,4.964a2.836,2.836,0,0,0,.592,1.653c.556.777,2.012,3.249,2.012,3.249S7.386,7.394,7.942,6.617a2.836,2.836,0,0,0,.592-1.653,2.6,2.6,0,0,0-5.208,0Zm1.183-.2a1.421,1.421,0,1,1,1.421,1.4A1.412,1.412,0,0,1,4.509,4.763Z"/><path class="a" d="M7.338,13.427l-.1-.384a3.157,3.157,0,0,0,.489-.344L8,12.972A3.535,3.535,0,0,1,7.338,13.427Z"/><path class="a" d="M4.786,13.543c-.216-.038-.434-.083-.648-.132l.126-.369c.2.047.411.089.616.125Z"/><path class="a" d="M12.962,7.57l-.033.395a1.925,1.925,0,0,0-.556.163l-.023.012-.207-.327.065-.033A2.352,2.352,0,0,1,12.962,7.57Z"/><path class="a" d="M8.645,12.33l-.274-.271c.154-.177.307-.364.458-.559l.275.273C8.953,11.967,8.8,12.154,8.645,12.33Z"/><path class="a" d="M11.394,8.326l.208.33a6.22,6.22,0,0,0-.462.458l-.248-.3A6.393,6.393,0,0,1,11.394,8.326Z"/><path class="a" d="M14.628,7.815l-.184.349A4.508,4.508,0,0,0,13.838,8l.032-.391A4.866,4.866,0,0,1,14.628,7.815Z"/><path class="a" d="M6.366,13.3l.1.379c-.089.006-.183.01-.282.01-.154,0-.319-.008-.491-.023l.094-.378A4.627,4.627,0,0,0,6.366,13.3Z"/><path class="a" d="M16.088,8.516l-.194.336c-.21-.124-.413-.234-.611-.333l.181-.343Q15.767,8.327,16.088,8.516Z"/></svg>