<svg xmlns="http://www.w3.org/2000/svg" viewBox="0 0 20 19"><defs><style>.a{fill:#4d4d4d;}</style></defs><title>f_1</title><path class="a" d="M1.032,8.761l2.6,8.585,3.742-2.2,4.329.22,2.88-2.642,4.677-.33L15.742,5.129l-4.017-.165L9.029,7.22h0l-.756-.11c-.094.14-.205.311-.325.5l.965.14.827,2.517-.211.291c-.05.068-.1.137-.149.206l.276.275.185-.256.048-.065,1.337,4.072-3.986-.2-3.28,1.93-1.047-3.45c.11.037.227.074.349.111l.124-.365c-.226-.068-.434-.137-.612-.205L1.68,9,3.909,7.6c-.109-.173-.211-.33-.3-.462Zm9.256,1.411q.13-.177.263-.348l-.251-.3c-.053.067-.106.136-.158.205L9.449,7.618l2.473-2.069,3.448.082,1.722,3.534c-.078-.055-.157-.109-.234-.161l-.193.335q.383.26.788.568l.967,1.983-4.044.294L11.743,14.6Z"/><path class="a" d="M3.329,4.964a2.836,2.836,0,0,0,.592,1.653c.557.777,2.012,3.249,2.012,3.249S7.389,7.394,7.946,6.617a2.836,2.836,0,0,0,.592-1.653,2.6,2.6,0,0,0-5.209,0Zm1.184-.2a1.421,1.421,0,1,1,1.42,1.4A1.412,1.412,0,0,1,4.513,4.763Z"/><path class="a" d="M7.341,13.427l-.1-.384a3.164,3.164,0,0,0,.49-.344l.274.273A3.535,3.535,0,0,1,7.341,13.427Z"/><path class="a" d="M4.79,13.543c-.217-.038-.435-.083-.648-.132l.125-.369c.2.047.412.089.617.125Z"/><path class="a" d="M12.966,7.57l-.033.395a1.931,1.931,0,0,0-.557.163l-.023.012-.207-.327.065-.033A2.351,2.351,0,0,1,12.966,7.57Z"/><path class="a" d="M8.648,12.33l-.274-.271c.155-.177.307-.364.458-.559l.275.273C8.957,11.967,8.8,12.154,8.648,12.33Z"/><path class="a" d="M11.4,8.326l.208.33a6.22,6.22,0,0,0-.462.458l-.248-.3A6.393,6.393,0,0,1,11.4,8.326Z"/><path class="a" d="M14.631,7.815l-.184.349A4.508,4.508,0,0,0,13.841,8l.032-.391A4.866,4.866,0,0,1,14.631,7.815Z"/><path class="a" d="M6.369,13.3l.1.379c-.089.006-.183.01-.281.01-.155,0-.32-.008-.492-.023l.095-.378A4.608,4.608,0,0,0,6.369,13.3Z"/><path class="a" d="M16.091,8.516l-.194.336c-.209-.124-.413-.234-.61-.333l.181-.343C15.67,8.277,15.877,8.39,16.091,8.516Z"/></svg>