<svg xmlns="http://www.w3.org/2000/svg" viewBox="0 0 20 19"><defs><style>.a{fill:#4d4d4d;fill-rule:evenodd;}</style></defs><title>g</title><path class="a" d="M3.092,6.465a.444.444,0,1,1-.451.444.448.448,0,0,1,.451-.444ZM17.678,8.672V6.723h-.307l-.914,1.555H15.005l.913-1.555H14.461l-.914,1.555H12.1l.913-1.555H11.551l-.914,1.555H9.185L10.1,6.723H8.641L7.727,8.278H6.275l.914-1.555H5.731L4.818,8.278H3.365L4.2,6.861l13.1-3.45-.513-1.883-1.07.282,1.292,1.269-1.4.37-1.292-1.27L12.9,2.55,14.2,3.819l-1.4.37L11.5,2.919l-1.408.371,1.291,1.27-1.4.369L8.691,3.66l-1.408.37L8.575,5.3l-1.4.369L5.88,4.4l-1.408.37L5.764,6.04l-1.4.369L3.069,5.14H2.322V8.672h.25v8.274a.533.533,0,0,0,.536.526H16.9a.532.532,0,0,0,.535-.526V8.672ZM10,9.584a3.332,3.332,0,1,1-3.39,3.332A3.362,3.362,0,0,1,10,9.584Zm-.628,1.082,2.505,2.06a.238.238,0,0,1,0,.381L9.372,15.166c-.158.13-.463.13-.463-.13V10.789c0-.254.309-.25.463-.123Z"/></svg>