<svg xmlns="http://www.w3.org/2000/svg" viewBox="0 0 20 19"><defs><style>.a{fill:#4d4d4d;}</style></defs><title>j_1</title><path class="a" d="M10.673,9.806a1.79,1.79,0,0,1-1.23,1.7v3.52a.388.388,0,0,1-.65.29l-3.52-3.14a.37.37,0,0,0-.26-.1H2.473a.4.4,0,0,1-.4-.4V7.786a.4.4,0,0,1,.4-.4h2.54a.392.392,0,0,0,.26-.09l3.52-3.04a.392.392,0,0,1,.65.3V8.1A1.793,1.793,0,0,1,10.673,9.806Z"/><path class="a" d="M12.949,9.808a4.77,4.77,0,0,1-2.382,4.131l-.314-.536a4.141,4.141,0,0,0,.258-7.024l.314-.542A4.768,4.768,0,0,1,12.949,9.808Z"/><path class="a" d="M11.909,16.272l-.339-.585a6.785,6.785,0,0,0,.265-11.6l.339-.579a7.461,7.461,0,0,1-.265,12.762Z"/><path class="a" d="M17.923,9.808a9.75,9.75,0,0,1-4.869,8.447l-.308-.542a9.125,9.125,0,0,0,.259-15.649l.314-.536A9.734,9.734,0,0,1,17.923,9.808Z"/><path class="a" d="M13.319,1.528l-.314.536a9.125,9.125,0,0,1-.259,15.649l.308.542a9.755,9.755,0,0,0,.265-16.727Z"/><path class="a" d="M12.949,9.808a4.77,4.77,0,0,1-2.382,4.131l-.314-.536a4.141,4.141,0,0,0,.258-7.024l.314-.542A4.768,4.768,0,0,1,12.949,9.808Z"/><path class="a" d="M15.639,9.808a7.465,7.465,0,0,1-3.73,6.464l-.339-.585a6.785,6.785,0,0,0,.265-11.6l.339-.579A7.461,7.461,0,0,1,15.639,9.808Z"/><path class="a" d="M12.174,3.51l-.339.579a6.785,6.785,0,0,1-.265,11.6l.339.585A7.461,7.461,0,0,0,12.174,3.51Z"/><path class="a" d="M12.949,9.808a4.77,4.77,0,0,1-2.382,4.131l-.314-.536a4.141,4.141,0,0,0,.258-7.024l.314-.542A4.768,4.768,0,0,1,12.949,9.808Z"/><path class="a" d="M10.825,5.837l-.314.542a4.141,4.141,0,0,1-.258,7.024l.314.536a4.774,4.774,0,0,0,.258-8.1Z"/></svg>