<svg xmlns="http://www.w3.org/2000/svg" viewBox="0 0 20 19"><defs><style>.a{fill:#4d4d4d;}</style></defs><title>k_1</title><path class="a" d="M17.741,2.291H2.259a.567.567,0,0,0-.568.567V16.142a.567.567,0,0,0,.568.567H17.741a.567.567,0,0,0,.568-.567V2.858A.567.567,0,0,0,17.741,2.291ZM17.427,15.6H2.573V3.173H17.427Z"/><path class="a" d="M13.443,9.133a.525.525,0,0,0-.6-.007L10.6,10.664,7.867,7.416a.521.521,0,0,0-.395-.186.53.53,0,0,0-.4.178l-4,3.294v4.392H16.922V10.861Z"/><circle class="a" cx="13.696" cy="5.311" r="1.208"/></svg>