<svg xmlns="http://www.w3.org/2000/svg" viewBox="0 0 20 19"><defs><style>.a{fill:#4d4d4d;}</style></defs><title>m_1</title><path class="a" d="M17.155,13.058V5.288a.763.763,0,0,0-.762-.762H3.608a.763.763,0,0,0-.763.762v7.77H1.129v.257a1.81,1.81,0,0,0,1.828,1.827H17.044a1.829,1.829,0,0,0,1.827-1.827v-.257Zm-13.8-7.77a.249.249,0,0,1,.249-.249H16.393a.25.25,0,0,1,.249.249v7.77h-.806V5.845H4.165v.3h0v6.916h-.8Zm8.57,3.978A1.929,1.929,0,1,1,10,7.338,1.929,1.929,0,0,1,11.929,9.266ZM4.464,12.24H15.537V13H4.464Zm12.58,2.388H2.957a1.288,1.288,0,0,1-1.293-1.057H18.333A1.316,1.316,0,0,1,17.044,14.628Zm-5.82-.373H8.777v-.3h2.447ZM9.309,8.071l2.07,1.2-2.07,1.2Z"/></svg>