<svg xmlns="http://www.w3.org/2000/svg" viewBox="0 0 20 19"><defs><style>.a{fill:#4d4d4d;}.b{fill:#666;}</style></defs><title>r_1</title><polygon class="a" points="14.804 8.346 10.069 9.82 5.596 7.828 10.06 6.827 14.804 8.346"/><path class="b" d="M15.361,10.886l-.079,2.919L10.311,16V10.521l2.451,1.193a.228.228,0,0,0,.113.03.273.273,0,0,0,.089-.015Z"/><path class="b" d="M9.783,10.412v5.509L5.419,13.105l-.192-2.831L6.42,10.9a.266.266,0,0,0,.123.03.124.124,0,0,0,.04-.005Z"/><path class="a" d="M18.665,9.224,16.13,8.242l1.82-2a.261.261,0,0,0,.059-.251.277.277,0,0,0-.187-.183L12.2,4.307a.28.28,0,0,0-.252.069l-1.869,1.8L8.555,4.637a.255.255,0,0,0-.236-.074l-5.03.957a.245.245,0,0,0-.193.158.256.256,0,0,0,.03.251L4.29,7.537l-2.683.316a.261.261,0,0,0-.094.493L4.674,9.988,4.9,13.272a.267.267,0,0,0,.119.208l4.887,3.151a.247.247,0,0,0,.143.044.255.255,0,0,0,.1-.024l5.494-2.432a.265.265,0,0,0,.158-.232l.089-3.289,2.766-.981a.261.261,0,0,0,0-.493Zm-6.46-4.37,5.064,1.351L15.6,8.05l-5.03-1.613ZM3.8,5.959l4.478-.853L9.547,6.4l-4.67,1.05ZM2.519,8.277l2.205-.262L9.132,9.983l-.32.049H8.8l-2.209.355L5.562,9.855Zm7.264,7.644L5.419,13.105l-.192-2.831L6.42,10.9a.266.266,0,0,0,.123.03.124.124,0,0,0,.04-.005l3.2-.508Zm.286-6.1L5.6,7.828l4.464-1L14.8,8.346Zm5.213,3.985L10.311,16V10.521l2.451,1.193a.228.228,0,0,0,.113.03.273.273,0,0,0,.089-.015l2.4-.843Zm.291-3.556c-.01,0-.02,0-.03.01l-.567.2-2.086.735-2.12-1.035,4.9-1.524h.005l2.14.828Z"/></svg>