<svg xmlns="http://www.w3.org/2000/svg" viewBox="0 0 20 19"><defs><style>.a{fill:#4d4d4d;}</style></defs><title>t_1</title><path class="a" d="M17.807,5.312V4.569a6.113,6.113,0,0,0-3.9-1.487A6.108,6.108,0,0,0,10,4.569,6.109,6.109,0,0,0,6.1,3.082a6.108,6.108,0,0,0-3.9,1.487v.743a.743.743,0,0,0-.743.743v9.666a.743.743,0,0,0,.743.743H17.807a.743.743,0,0,0,.743-.743V6.055A.743.743,0,0,0,17.807,5.312Zm-14.87,9V4.833A5.318,5.318,0,0,1,6.1,3.732,5.393,5.393,0,0,1,9.487,5.025l.141.135v9.366A6.693,6.693,0,0,0,6.1,13.479,6.624,6.624,0,0,0,2.937,14.307Zm14.126,0a6.462,6.462,0,0,0-6.691.219V5.16l.141-.135A5.31,5.31,0,0,1,13.9,3.732a5.38,5.38,0,0,1,3.16,1.1Z"/></svg>